<svg width="340" height="218" viewBox="0 0 340 218" fill="none" xmlns="http://www.w3.org/2000/svg">
<path d="M4 195L4 179.5L19.6 179.5L19.6 164L35 164" stroke="#EAF2FF" stroke-width="8" stroke-linecap="round" stroke-linejoin="round"/>
<path opacity="0.1" d="M61 150L94 117" stroke="#D1E0FA" stroke-width="13" stroke-linecap="round"/>
<path opacity="0.1" d="M204 94.981L204 81.4905L217.955 81.4905L217.955 68.0001L231.73 68.0001" stroke="#D1E0FA" stroke-width="10" stroke-linecap="round" stroke-linejoin="round"/>
<path opacity="0.1" d="M108 61L136 33" stroke="#D1E0FA" stroke-width="19" stroke-linecap="round"/>
<path d="M217 45L235 27" stroke="#F2F6FD" stroke-width="14" stroke-linecap="round"/>
<ellipse opacity="0.1" cx="290.132" cy="12.1317" rx="5.5" ry="6" transform="rotate(135 290.132 12.1317)" fill="#D1E0FA"/>
<ellipse opacity="0.1" cx="61.1319" cy="95.1318" rx="5.5" ry="6" transform="rotate(135 61.1319 95.1318)" fill="#D1E0FA"/>
<path d="M218 193L239 172" stroke="#D1E0FA" stroke-width="12" stroke-linecap="round"/>
<ellipse cx="47.5" cy="6" rx="5.5" ry="6" fill="#F2F6FD"/>
<path d="M283 81.0615L286.492 68.0308L299.971 71.6425L303.462 58.6117L316.769 62.1771" stroke="#F2F6FD" stroke-width="10" stroke-linecap="round" stroke-linejoin="round"/>
<path d="M335.274 190.638L326.448 197.943L318.892 188.813L310.066 196.117L302.607 187.105" stroke="#EAF1FF" stroke-width="9" stroke-linecap="round" stroke-linejoin="round"/>
<path d="M159 68.9998C203.229 91.3522 183.5 59.1202 243.5 82.9999C402.961 146.465 229.726 255.402 82.6017 180.362C-64.5225 105.321 103.714 41.0594 159 68.9998Z" fill="url(#paint0_radial_1_2)"/>
<path d="M107.5 184.5C84.8333 183.5 46.7 174.1 75.5 144.5C111.5 107.5 57.5 97.4999 45 101" stroke="#CD3401" stroke-width="4" stroke-linecap="round"/>
<path d="M187.867 174C166.134 182.933 135.552 211.553 187.867 208.782C241.695 205.931 168.914 190.536 159.816 205.931C152.662 218.038 201.025 217.746 213.644 212.774C229.563 206.502 233.354 217.335 247 212.774" stroke="#CD3401" stroke-width="4"/>
<path d="M171.5 93.9999C190.333 84.4999 232 76.5999 248 121" stroke="#CD3401" stroke-width="4" stroke-linecap="round"/>
<path d="M31.5724 104.69L31.0943 104.966C30.5896 105.257 29.9586 105.211 29.5009 104.85C29.2576 104.659 29.212 104.308 29.3982 104.06L29.4346 104.012C29.7161 103.637 30.1492 103.407 30.617 103.384L31.2977 103.349L38.7504 101.124L39.2998 103.806L31.5724 104.69Z" fill="#FFD467"/>
<path d="M35.9635 107.069C35.7224 107.105 35.4949 106.947 35.4459 106.708L34.0735 100.009C34.0206 99.7506 34.1839 99.4975 34.4409 99.4393L35.4399 99.2132C39.1352 98.3766 42.9122 97.9544 46.701 97.9544L48.5805 97.9544C48.8104 97.9544 49.0087 98.1161 49.0549 98.3414L49.8733 102.336C49.9168 102.549 49.8098 102.764 49.6139 102.857L49.4282 102.945C45.1658 104.971 40.6292 106.36 35.9635 107.069Z" fill="#CD3401"/>
<path fill-rule="evenodd" clip-rule="evenodd" d="M35.0332 99.3052L34.5247 99.4204C34.8948 100.072 35.2146 100.791 35.4398 101.563C35.8666 103.028 35.9551 104.69 35.3941 106.455L35.446 106.708C35.4777 106.863 35.5843 106.984 35.721 107.04C36.474 105.018 36.4087 103.101 35.9198 101.424C35.6982 100.663 35.3901 99.9531 35.0332 99.3052ZM37.8227 106.749C37.6338 106.785 37.4445 106.821 37.255 106.855C37.9666 104.94 37.899 103.136 37.4398 101.56C37.1688 100.63 36.7607 99.7775 36.2928 99.0277C36.4665 98.9915 36.6403 98.9562 36.8143 98.9219C37.2638 99.6685 37.6541 100.508 37.9198 101.42C38.3855 103.018 38.4669 104.833 37.8227 106.749ZM39.9637 106.287C39.7773 106.332 39.5905 106.375 39.4035 106.418C39.9541 104.664 39.8642 103.013 39.4398 101.556C39.1276 100.485 38.6333 99.5163 38.0753 98.6891C38.2551 98.6583 38.4351 98.6284 38.6153 98.5994C39.1481 99.423 39.6155 100.372 39.9198 101.416C40.3482 102.886 40.4514 104.54 39.9637 106.287ZM42.101 105.723C41.9187 105.775 41.7361 105.827 41.5531 105.877C41.9321 104.323 41.8207 102.86 41.4398 101.553C41.0925 100.361 40.5199 99.2962 39.8848 98.4119C40.0713 98.3868 40.2579 98.3627 40.4447 98.3396C41.0477 99.2203 41.5834 100.259 41.9198 101.413C42.3021 102.725 42.4254 104.183 42.101 105.723ZM44.2137 105.06C44.037 105.12 43.8599 105.179 43.6825 105.237C43.8963 103.919 43.7682 102.676 43.4397 101.549C43.0644 100.261 42.4258 99.1211 41.7294 98.1973C41.9229 98.1783 42.1165 98.1605 42.3102 98.1437C42.9676 99.0643 43.5586 100.17 43.9198 101.409C44.2471 102.532 44.3845 103.763 44.2137 105.06ZM46.2793 104.306C46.109 104.373 45.9384 104.439 45.7674 104.503C45.8414 103.456 45.7068 102.462 45.4397 101.545C45.0443 100.189 44.3569 98.9964 43.6175 98.0477C43.8181 98.0355 44.0188 98.0246 44.2195 98.0148C44.9129 98.9597 45.5421 100.109 45.9198 101.406C46.1833 102.31 46.3238 103.284 46.2793 104.306ZM48.2755 103.474C48.1121 103.547 47.9482 103.618 47.784 103.689C47.762 102.937 47.637 102.219 47.4397 101.542C47.0336 100.148 46.3192 98.928 45.5571 97.9672C45.7645 97.9625 45.972 97.9592 46.1795 97.957C46.8887 98.912 47.5348 100.081 47.9198 101.402C48.1112 102.059 48.2377 102.752 48.2755 103.474ZM49.3935 99.9939L49.8734 102.336C49.9092 102.511 49.8431 102.687 49.7096 102.796C49.6499 102.363 49.5577 101.943 49.4397 101.538C49.0323 100.14 48.3146 98.9166 47.5497 97.9544H48.1802C48.626 98.5548 49.0468 99.2397 49.3935 99.9939Z" fill="#DF3B05"/>
<path d="M261.926 205.333L262.338 204.966C262.772 204.578 263.399 204.494 263.921 204.753C264.198 204.891 264.315 205.225 264.183 205.505L264.157 205.56C263.958 205.984 263.581 206.298 263.128 206.417L262.469 206.59L255.629 210.292L254.543 207.779L261.926 205.333Z" fill="#FFD467"/>
<path d="M257.141 203.903C257.37 203.818 257.625 203.926 257.722 204.15L260.435 210.427C260.539 210.669 260.431 210.95 260.192 211.06L259.26 211.485C255.814 213.06 252.203 214.245 248.494 215.02L246.654 215.404C246.429 215.451 246.202 215.334 246.111 215.123L244.493 211.379C244.407 211.18 244.468 210.948 244.64 210.817L244.804 210.693C248.562 207.838 252.719 205.55 257.141 203.903Z" fill="#CD3401"/>
<path fill-rule="evenodd" clip-rule="evenodd" d="M259.639 211.312L260.113 211.095C259.618 210.534 259.158 209.895 258.78 209.185C258.062 207.838 257.636 206.23 257.824 204.388L257.721 204.15C257.659 204.005 257.53 203.909 257.384 203.882C257.061 206.014 257.517 207.878 258.338 209.42C258.711 210.119 259.157 210.751 259.639 211.312ZM255.387 204.596C255.564 204.522 255.742 204.449 255.921 204.376C255.616 206.397 256.051 208.148 256.823 209.597C257.278 210.452 257.852 211.203 258.463 211.841C258.3 211.912 258.137 211.982 257.974 212.052C257.381 211.413 256.828 210.671 256.381 209.832C255.599 208.363 255.148 206.603 255.387 204.596ZM253.385 205.486C253.559 205.404 253.733 205.323 253.907 205.243C253.727 207.073 254.152 208.671 254.865 210.01C255.39 210.994 256.072 211.842 256.787 212.537C256.618 212.604 256.448 212.67 256.277 212.735C255.587 212.038 254.936 211.205 254.424 210.245C253.704 208.893 253.265 207.296 253.385 205.486ZM251.409 206.475C251.576 206.386 251.744 206.299 251.913 206.212C251.86 207.811 252.268 209.221 252.908 210.422C253.492 211.518 254.27 212.443 255.073 213.179C254.895 213.241 254.718 213.303 254.539 213.364C253.769 212.625 253.032 211.718 252.467 210.657C251.825 209.451 251.406 208.049 251.409 206.475ZM249.476 207.556C249.637 207.461 249.798 207.367 249.96 207.274C250.02 208.608 250.4 209.799 250.951 210.835C251.582 212.019 252.44 213.004 253.311 213.766C253.125 213.824 252.94 213.881 252.753 213.937C251.922 213.17 251.117 212.209 250.51 211.07C249.96 210.037 249.574 208.861 249.476 207.556ZM247.608 208.716C247.761 208.616 247.915 208.517 248.069 208.419C248.211 209.459 248.546 210.404 248.994 211.247C249.659 212.494 250.576 213.521 251.493 214.298C251.3 214.351 251.105 214.403 250.911 214.454C250.039 213.67 249.188 212.673 248.553 211.482C248.11 210.651 247.774 209.726 247.608 208.716ZM245.824 209.939C245.969 209.834 246.115 209.731 246.261 209.628C246.437 210.359 246.706 211.037 247.037 211.659C247.72 212.941 248.669 213.989 249.611 214.774C249.409 214.821 249.207 214.866 249.004 214.911C248.115 214.121 247.243 213.109 246.596 211.895C246.275 211.291 246.009 210.638 245.824 209.939ZM245.442 213.574L244.493 211.379C244.422 211.216 244.451 211.03 244.559 210.896C244.706 211.307 244.882 211.7 245.08 212.072C245.765 213.357 246.718 214.408 247.663 215.194L247.046 215.323C246.487 214.826 245.935 214.242 245.442 213.574Z" fill="#DF3B05"/>
<path d="M166.114 29L195.821 49.6391C196.594 50.1761 197.018 51.0881 196.929 52.0252L185.121 177.129C185.053 177.847 184.691 178.506 184.12 178.947L153 203L151.5 200.5L155.5 133L164.5 33.5L166.114 29Z" fill="url(#paint1_linear_1_2)"/>
<path d="M166.114 29L71.3753 40.4449C70.0318 40.6072 69.0358 41.7705 69.0825 43.123L71.6071 116.337L76.6765 189.844C76.761 191.068 77.6882 192.068 78.9029 192.244L153 203L157.641 116.011L166.114 29Z" fill="url(#paint2_linear_1_2)"/>
<path d="M152.576 115.89L152.574 115.918L152.572 115.946L148.582 195.532C148.544 196.299 147.853 196.867 147.092 196.756L82.924 187.391C82.3154 187.302 81.8517 186.8 81.8115 186.186L77.2266 116.244L74.9434 46.583C74.9213 45.9078 75.4186 45.3276 76.0892 45.2463L158.499 35.246C159.324 35.1459 160.031 35.8333 159.954 36.6609L161.251 36.7818L159.954 36.6609L152.576 115.89Z" fill="url(#paint3_linear_1_2)" stroke="#9A91F0" stroke-width="2.60708"/>
<ellipse cx="112.669" cy="73.6462" rx="24.1155" ry="25.7449" fill="url(#paint4_linear_1_2)"/>
<ellipse cx="112.017" cy="72.9944" rx="15.6425" ry="16.6201" fill="url(#paint5_linear_1_2)"/>
<ellipse cx="112.017" cy="72.9944" rx="8.473" ry="8.79888" fill="url(#paint6_linear_1_2)"/>
<ellipse cx="114.298" cy="146.318" rx="30.3073" ry="35.1955" fill="url(#paint7_linear_1_2)"/>
<ellipse cx="114.298" cy="146.318" rx="21.1825" ry="24.7672" fill="url(#paint8_linear_1_2)"/>
<ellipse cx="114.298" cy="146.318" rx="10.7542" ry="12.3836" fill="url(#paint9_linear_1_2)"/>
<path d="M175.366 119.035C175.286 118.164 175.648 117.311 176.33 116.764L195.117 101.672L196 102.5L210 149L220 192.5L260.5 184L298 176.5L299.726 176.952L292.557 189.987L216.952 204L183.171 189.299C182.298 188.919 181.702 188.094 181.615 187.147L175.366 119.035Z" fill="url(#paint10_linear_1_2)"/>
<path d="M299.726 176.951L219.885 192.92L216.952 204L292.557 189.987L299.726 176.951Z" fill="url(#paint11_linear_1_2)"/>
<path d="M209.753 148.038L209.748 148.018L209.742 147.998L196.384 102.517L273.533 94.0839C274.322 93.9977 275.058 94.4919 275.277 95.2544L276.216 94.9849L275.277 95.2544L298.494 176.201L220.608 191.778L209.753 148.038Z" fill="#9A91F0" stroke="#3D3B52" stroke-width="1.95531"/>
<path d="M207.827 129.046L279.196 119.922L294.512 173.364L223.496 187.38L213.278 146.369L207.827 129.046Z" fill="url(#paint12_linear_1_2)"/>
<ellipse rx="27.0484" ry="25.7449" transform="matrix(-0.989382 0.145336 0.145336 0.989382 251.365 152.257)" fill="url(#paint13_linear_1_2)"/>
<ellipse rx="20.7284" ry="20.3839" transform="matrix(-0.989382 0.145336 0.145336 0.989382 252.896 152.032)" fill="url(#paint14_linear_1_2)"/>
<ellipse rx="11.628" ry="11.4347" transform="matrix(-0.989382 0.145336 0.145336 0.989382 253.582 150.849)" fill="url(#paint15_linear_1_2)"/>
<path d="M200.983 104.605L272.026 96.458L278.544 118.292L207.201 127.094L200.983 104.605Z" fill="url(#paint16_linear_1_2)"/>
<path opacity="0.8" fill-rule="evenodd" clip-rule="evenodd" d="M202.982 104.376L200.983 104.605L201.209 105.424L202.573 106.915L201.846 107.726L202.484 110.032L203.94 108.41L206.246 110.932L203.94 113.454L203.203 112.633L204.408 116.993L206.351 119.157L205.319 120.285L205.953 122.579L207.704 120.664L210.128 123.365L207.089 126.689L207.201 127.094L209.735 126.782L211.481 124.872L212.851 126.397L218.329 125.721L219.048 124.935L219.622 125.562L222.076 125.259L220.414 123.441L222.861 120.765L225.308 123.442L223.846 125.041L228.928 124.414L228.039 123.442L230.727 120.501L233.196 123.153L232.44 123.981L236.279 123.507L235.938 123.141L238.446 120.398L240.781 122.951L244.112 122.54L246.071 120.398L247.633 122.106L252.9 121.456L253.79 120.501L254.485 121.261L256.938 120.958L255.167 119.021L257.637 116.369L260.291 119.272L258.979 120.706L263.79 120.113L263.022 119.272L265.469 116.595L267.916 119.272L267.574 119.646L270.652 119.266L273.094 116.595L275.041 118.725L278.544 118.292L277.967 116.362L276.8 117.662L274.459 115.102L276.82 112.519L275.413 107.806L274.459 106.762L274.944 106.232L274.272 103.981L273.094 105.269L270.555 102.492L272.953 99.9162L273.111 100.092L272.029 96.469L270.226 96.6645L270.052 96.6845L271.601 98.4104L269.19 101L266.499 98.0559L267.483 96.979L263.229 97.4669L263.768 98.0559L261.321 100.732L258.874 98.0557L258.965 97.9559L255.914 98.3057L253.696 100.732L251.898 98.7663L247.397 99.2825L246.071 100.732L244.997 99.5577L242.525 99.8411L244.706 102.226L242.259 104.902L239.811 102.226L241.929 99.9095L238.879 100.259L238.446 100.732L238.096 100.349L235.624 100.633L237.081 102.226L234.634 104.902L232.187 102.226L233.411 100.886L228.723 101.424L229.456 102.226L227.009 104.902L224.562 102.226L224.893 101.863L221.822 102.215L221.831 102.226L219.174 105.132L216.976 102.771L213.325 103.19L211.424 105.269L209.883 103.585L205.068 104.137L203.926 105.408L202.982 104.376ZM205.293 106.903L207.717 104.202L210.058 106.762L207.611 109.439L205.293 106.903ZM205.293 114.961L207.611 112.425L210.058 115.102L207.717 117.662L205.293 114.961ZM212.789 106.762L215.34 103.972L217.809 106.624L215.236 109.439L212.789 106.762ZM208.977 110.932L211.424 108.256L213.87 110.932L211.424 113.608L208.977 110.932ZM211.424 116.595L209.07 119.169L211.495 121.87L213.871 119.272L211.424 116.595ZM212.789 115.102L215.236 112.425L217.683 115.102L215.236 117.778L212.789 115.102ZM216.601 110.932L219.048 113.609L221.656 110.756L219.187 108.104L216.601 110.932ZM220.551 106.612L223.02 109.264L225.643 106.395L223.196 103.719L220.551 106.612ZM212.848 123.377L215.236 120.765L217.683 123.441L215.272 126.078L212.848 123.377ZM228.374 106.395L230.821 103.719L233.268 106.395L230.821 109.072L228.374 106.395ZM224.398 110.744L227.009 107.889L229.456 110.565L226.867 113.396L224.398 110.744ZM220.414 115.102L223.034 112.236L225.503 114.889L222.861 117.778L220.414 115.102ZM216.601 119.272L219.048 116.595L221.495 119.272L219.048 121.948L216.601 119.272ZM224.226 119.272L226.673 121.948L229.35 119.021L226.881 116.369L224.226 119.272ZM228.245 114.876L230.714 117.529L233.268 114.735L230.821 112.058L228.245 114.876ZM232.187 110.565L234.634 113.242L237.081 110.565L234.634 107.889L232.187 110.565ZM235.999 106.395L238.446 109.072L240.893 106.396L238.446 103.719L235.999 106.395ZM234.561 121.661L232.092 119.009L234.634 116.228L237.081 118.905L234.561 121.661ZM238.446 117.411L235.999 114.735L238.446 112.058L240.893 114.735L238.446 117.411ZM242.259 113.241L239.812 110.565L242.259 107.889L244.706 110.565L242.259 113.241ZM246.071 109.072L243.624 106.396L246.071 103.719L248.518 106.395L246.071 109.072ZM249.883 104.902L247.436 102.226L249.884 99.5492L252.33 102.226L249.883 104.902ZM239.811 118.905L242.259 121.581L244.706 118.905L242.259 116.228L239.811 118.905ZM243.624 114.735L246.071 117.411L248.518 114.735L246.071 112.058L243.624 114.735ZM247.436 110.565L249.883 113.242L252.33 110.565L249.883 107.889L247.436 110.565ZM251.249 106.395L253.696 109.072L256.143 106.395L253.696 103.719L251.249 106.395ZM255.061 102.226L257.508 104.902L259.955 102.226L257.508 99.549L255.061 102.226ZM249.956 121.661L247.436 118.905L249.883 116.228L252.425 119.009L249.956 121.661ZM253.803 117.529L251.249 114.735L253.696 112.058L256.272 114.876L253.803 117.529ZM257.65 113.396L255.061 110.565L257.508 107.889L260.119 110.744L257.65 113.396ZM261.497 109.264L258.874 106.395L261.321 103.719L263.966 106.612L261.497 109.264ZM265.344 105.132L262.686 102.226L265.133 99.5492L267.813 102.48L265.344 105.132ZM259.014 114.889L261.656 117.778L264.103 115.102L261.483 112.236L259.014 114.889ZM262.861 110.756L265.469 113.609L267.916 110.932L265.33 108.104L262.861 110.756ZM266.708 106.624L269.281 109.439L271.728 106.762L269.177 103.972L266.708 106.624ZM269.281 117.778L266.834 115.102L269.281 112.425L271.728 115.102L269.281 117.778ZM273.094 113.608L270.647 110.932L273.094 108.256L275.541 110.932L273.094 113.608Z" fill="#EEE9FF"/>
<defs>
<radialGradient id="paint0_radial_1_2" cx="0" cy="0" r="1" gradientUnits="userSpaceOnUse" gradientTransform="translate(180 131) rotate(90) scale(75 151)">
<stop stop-color="#86A7E0"/>
<stop offset="1" stop-color="#F2F6FD"/>
</radialGradient>
<linearGradient id="paint1_linear_1_2" x1="185.402" y1="238.982" x2="107.054" y2="201.934" gradientUnits="userSpaceOnUse">
<stop stop-color="#0B0A0A"/>
<stop offset="1" stop-color="#444258"/>
</linearGradient>
<linearGradient id="paint2_linear_1_2" x1="140.352" y1="238.982" x2="39.0787" y2="133.271" gradientUnits="userSpaceOnUse">
<stop stop-color="#212121"/>
<stop offset="1" stop-color="#3F3D56"/>
</linearGradient>
<linearGradient id="paint3_linear_1_2" x1="112.994" y1="63.218" x2="140.094" y2="113.916" gradientUnits="userSpaceOnUse">
<stop stop-color="#D4C6FF"/>
<stop offset="1" stop-color="#AEA6FF"/>
</linearGradient>
<linearGradient id="paint4_linear_1_2" x1="136.905" y1="68.6713" x2="88.7834" y2="71.8004" gradientUnits="userSpaceOnUse">
<stop stop-color="#6F45E8"/>
<stop offset="0.46875" stop-color="#8462E6"/>
<stop offset="1" stop-color="#6F45E8"/>
</linearGradient>
<linearGradient id="paint5_linear_1_2" x1="119.36" y1="96.4833" x2="102.729" y2="67.2059" gradientUnits="userSpaceOnUse">
<stop stop-color="#212121"/>
<stop offset="1" stop-color="#3F3D56"/>
</linearGradient>
<linearGradient id="paint6_linear_1_2" x1="112.017" y1="64.1955" x2="112.017" y2="81.7933" gradientUnits="userSpaceOnUse">
<stop stop-color="#F2F6FD"/>
<stop offset="1" stop-color="#B4C3DE"/>
</linearGradient>
<linearGradient id="paint7_linear_1_2" x1="144.757" y1="139.517" x2="84.2407" y2="143.135" gradientUnits="userSpaceOnUse">
<stop stop-color="#6F45E8"/>
<stop offset="0.46875" stop-color="#8462E6"/>
<stop offset="1" stop-color="#6F45E8"/>
</linearGradient>
<linearGradient id="paint8_linear_1_2" x1="124.242" y1="181.321" x2="98.3047" y2="139.828" gradientUnits="userSpaceOnUse">
<stop stop-color="#212121"/>
<stop offset="1" stop-color="#3F3D56"/>
</linearGradient>
<linearGradient id="paint9_linear_1_2" x1="114.298" y1="133.935" x2="114.298" y2="158.702" gradientUnits="userSpaceOnUse">
<stop stop-color="#F2F6FD"/>
<stop offset="1" stop-color="#B4C3DE"/>
</linearGradient>
<linearGradient id="paint10_linear_1_2" x1="206.849" y1="189.987" x2="193.403" y2="100.266" gradientUnits="userSpaceOnUse">
<stop stop-color="#282731"/>
<stop offset="1" stop-color="#53516F"/>
</linearGradient>
<linearGradient id="paint11_linear_1_2" x1="304.289" y1="206.281" x2="270.395" y2="169.627" gradientUnits="userSpaceOnUse">
<stop stop-color="#323137"/>
<stop offset="1" stop-color="#363548"/>
</linearGradient>
<linearGradient id="paint12_linear_1_2" x1="248.732" y1="128.435" x2="258.873" y2="178.719" gradientUnits="userSpaceOnUse">
<stop stop-color="#D4C6FF"/>
<stop offset="1" stop-color="#AEA6FF"/>
</linearGradient>
<linearGradient id="paint13_linear_1_2" x1="54.232" y1="20.77" x2="0.316887" y2="24.7022" gradientUnits="userSpaceOnUse">
<stop stop-color="#6F45E8"/>
<stop offset="0.46875" stop-color="#8462E6"/>
<stop offset="1" stop-color="#6F45E8"/>
</linearGradient>
<linearGradient id="paint14_linear_1_2" x1="30.4593" y1="49.192" x2="10.8971" y2="11.983" gradientUnits="userSpaceOnUse">
<stop stop-color="#212121"/>
<stop offset="1" stop-color="#3F3D56"/>
</linearGradient>
<linearGradient id="paint15_linear_1_2" x1="11.628" y1="0" x2="11.628" y2="22.8694" gradientUnits="userSpaceOnUse">
<stop stop-color="#F2F6FD"/>
<stop offset="1" stop-color="#B4C3DE"/>
</linearGradient>
<linearGradient id="paint16_linear_1_2" x1="237.646" y1="100.351" x2="240.045" y2="123.848" gradientUnits="userSpaceOnUse">
<stop stop-color="#D4C6FF"/>
<stop offset="1" stop-color="#AEA6FF"/>
</linearGradient>
</defs>
</svg>
