<svg width="360" height="242" viewBox="0 0 360 242" fill="none" xmlns="http://www.w3.org/2000/svg">
<g clip-path="url(#clip0_3_28240)">
<path d="M286.099 21.372C329.148 6.12285 361.639 31.7569 372.503 46.48C376.561 48.7084 378.23 54.891 352.445 61.7947C320.212 70.4243 313.983 38.4504 286.099 21.372Z" fill="url(#paint0_linear_3_28240)" stroke="black" stroke-width="1.2763"/>
<path d="M363.952 54.9158C357.365 48.2013 336.296 32.9223 304.719 25.5215" stroke="black" stroke-width="1.59538" stroke-linecap="round"/>
<path d="M55.6758 54.4689C112.679 31.4742 143.514 64.1084 151.806 83.2999C152.682 91.2735 152.909 108.559 146.807 113.913C83.5486 149.68 71.841 76.8736 55.6758 54.4689Z" fill="url(#paint1_linear_3_28240)" stroke="black" stroke-width="1.2763"/>
<path d="M147.785 112.23C142.66 103.937 127.694 88.4068 108.836 92.6307" stroke="black" stroke-width="1.59538" stroke-linecap="round"/>
<path d="M141.594 102.262C127.225 94.3786 96.6702 74.9154 89.4102 60.1333" stroke="black" stroke-width="1.59538" stroke-linecap="round"/>
<path d="M239.621 123.867C194.094 120.27 169.338 153.435 162.651 170.467C159.307 173.669 159.294 180.073 185.988 180.073C219.355 180.073 217.103 147.576 239.621 123.867Z" fill="url(#paint2_linear_3_28240)" stroke="black" stroke-width="1.2763"/>
<path d="M171.5 169.543C176.871 163.747 194.537 148.325 222.233 133.009" stroke="black" stroke-width="1.59538" stroke-linecap="round"/>
<path d="M233.524 31.9143C229.917 28.1716 211.55 44.0681 202.817 52.4841L214.338 58.6267L231.049 41.5182C233.377 39.8764 237.131 35.657 233.524 31.9143Z" fill="#D0A0FF" stroke="black" stroke-width="1.59538"/>
<path d="M240.379 35.5547C236.772 31.8119 218.405 47.7084 209.672 56.1244L237.904 45.1585C240.232 43.5167 243.986 39.2974 240.379 35.5547Z" fill="#D0A0FF" stroke="black" stroke-width="1.59538"/>
<path d="M290.744 123.379L291.345 123.903L291.869 123.302L298.118 116.131C298.683 115.483 298.835 114.572 298.512 113.775C292.966 100.099 281.241 89.8814 266.935 86.2587C266.102 86.0476 265.22 86.3232 264.655 86.9715L258.406 94.1422L257.882 94.7436L258.484 95.2677L290.744 123.379Z" fill="#FBE254" stroke="black" stroke-width="1.59538"/>
<path d="M269.339 115.218C273.847 119.146 278.556 122.035 282.548 123.516C284.542 124.256 286.398 124.66 287.982 124.639C289.567 124.619 290.975 124.17 291.91 123.096C292.846 122.022 293.099 120.566 292.902 118.994C292.706 117.421 292.052 115.638 291.047 113.764C289.033 110.012 285.527 105.742 281.019 101.814C276.511 97.8863 271.802 94.9966 267.81 93.5157C265.817 92.7762 263.961 92.3725 262.376 92.3928C260.792 92.413 259.384 92.8623 258.448 93.9363C257.512 95.0103 257.26 96.4665 257.456 98.0385C257.653 99.6112 258.307 101.394 259.312 103.268C261.325 107.02 264.832 111.29 269.339 115.218Z" fill="#FBE254" stroke="black" stroke-width="1.59538"/>
<ellipse cx="275.184" cy="108.516" rx="17.0061" ry="5.34868" transform="rotate(41.0691 275.184 108.516)" fill="#D9B048"/>
<path d="M42.4166 240.163L42.8121 240.856L43.5049 240.461L49.2979 237.153C49.8997 236.81 50.2572 236.157 50.2226 235.465C49.7017 225.052 44.2541 215.51 35.5523 209.768C34.9739 209.386 34.2301 209.362 33.6283 209.706L27.8352 213.013L27.1425 213.408L27.5379 214.101L42.4166 240.163Z" fill="#FBE254" stroke="black" stroke-width="1.59538"/>
<path d="M30.1241 229.819C32.2137 233.479 34.683 236.504 37.0128 238.429C38.1753 239.39 39.337 240.104 40.4289 240.469C41.5201 240.834 42.6327 240.875 43.5801 240.334C44.5275 239.793 45.0576 238.814 45.2984 237.689C45.5393 236.563 45.5145 235.2 45.2785 233.71C44.8055 230.725 43.456 227.061 41.3665 223.401C39.277 219.741 36.8077 216.716 34.4779 214.791C33.3153 213.831 32.1536 213.116 31.0617 212.752C29.9705 212.387 28.8579 212.346 27.9105 212.886C26.9631 213.427 26.433 214.406 26.1922 215.532C25.9513 216.657 25.9761 218.021 26.2121 219.51C26.6851 222.495 28.0346 226.159 30.1241 229.819Z" fill="#FBE254" stroke="black" stroke-width="1.59538"/>
<ellipse cx="35.7454" cy="226.61" rx="11.9271" ry="3.75127" transform="rotate(60.2782 35.7454 226.61)" fill="#D9B048"/>
<path d="M42.3787 9.43686L42.7476 8.72961L43.4549 9.09854L51.8877 13.4974C52.6502 13.8951 53.1243 14.6878 53.1139 15.5478C52.9362 30.3037 45.7431 44.0933 33.7432 52.6824C33.0439 53.183 32.1226 53.2478 31.3601 52.85L22.9272 48.4512L22.22 48.0822L22.5889 47.375L42.3787 9.43686Z" fill="#FBE254" stroke="black" stroke-width="1.59538"/>
<path d="M40.9498 32.8227C38.1846 38.1238 34.8532 42.5314 31.6755 45.3661C30.089 46.7814 28.508 47.834 27.0249 48.393C25.5424 48.9517 24.0676 49.0466 22.8045 48.3878C21.5415 47.7289 20.7755 46.4651 20.3854 44.9296C19.9951 43.3934 19.9538 41.4945 20.2067 39.3835C20.7132 35.1555 22.4217 29.9014 25.1869 24.6003C27.9521 19.2992 31.2835 14.8915 34.4612 12.0569C36.0477 10.6416 37.6287 9.58893 39.1118 9.02999C40.5943 8.4713 42.0691 8.37633 43.3322 9.03518C44.5952 9.69402 45.3612 10.9579 45.7513 12.4934C46.1416 14.0295 46.1829 15.9284 45.9301 18.0394C45.4236 22.2674 43.715 27.5216 40.9498 32.8227Z" fill="#FBE254" stroke="black" stroke-width="1.59538"/>
<ellipse rx="17.0061" ry="5.34868" transform="matrix(-0.462493 0.886623 0.886623 0.462493 33.0685 28.7115)" fill="#D9B048"/>
<rect x="164.264" y="16.3232" width="51.1525" height="64.3395" transform="rotate(-10.6914 164.264 16.3232)" fill="#FBE254" stroke="black" stroke-width="1.59538"/>
<mask id="mask0_3_28240" style="mask-type:alpha" maskUnits="userSpaceOnUse" x="163" y="5" width="65" height="76">
<rect x="163.332" y="15.6874" width="52.7479" height="65.9349" transform="rotate(-10.6914 163.332 15.6874)" fill="#FBE254"/>
</mask>
<g mask="url(#mask0_3_28240)">
<path d="M218.632 13.3333C219.723 19.1136 208.112 26.1586 192.698 29.0687C177.284 31.9788 163.904 29.6521 162.812 23.8718" stroke="black" stroke-width="1.59538"/>
<path d="M220.733 24.4639C221.825 30.2442 210.214 37.2892 194.8 40.1993C179.386 43.1094 166.005 40.7827 164.914 35.0024" stroke="black" stroke-width="1.59538"/>
<path d="M222.835 35.5945C223.926 41.3748 212.315 48.4198 196.901 51.3299C181.487 54.2401 168.107 51.9133 167.016 46.1331" stroke="black" stroke-width="1.59538"/>
<path d="M224.936 46.7253C226.028 52.5056 214.417 59.5505 199.003 62.4607C183.589 65.3708 170.208 63.0441 169.117 57.2638" stroke="black" stroke-width="1.59538"/>
<path d="M227.038 57.8558C228.129 63.6361 216.518 70.681 201.104 73.5912C185.69 76.5013 172.31 74.1746 171.219 68.3943" stroke="black" stroke-width="1.59538"/>
</g>
<path d="M147.726 79.1084C132.377 99.5293 139.484 142.987 152.213 191.753L194.477 191.753C190.414 179.814 176.655 119.022 173.54 109.84C170.695 101.456 173.391 101.128 179.029 99.0583C185.259 96.7719 196.533 92.5793 207.792 86.0151C213.13 82.9026 221.944 73.6409 226.159 69.1769C228.534 66.6617 236.486 55.405 240.36 48.7794C243.362 43.6457 242.69 41.7205 242.018 40.5713C238.575 34.6833 224.347 45.6347 211.043 60.1123C203.832 67.9593 195.916 72.0647 190.029 74.173C184.098 76.2971 184.256 73.5558 187.35 70.0837C192.994 63.7475 209.592 53.083 201.39 46.8849C196.496 43.187 177.339 56.0856 165.07 64.5843C153.54 72.5701 150.452 75.4808 147.726 79.1084Z" fill="#D0A0FF" stroke="black" stroke-width="1.59538"/>
<path d="M214.348 5.88355C214.547 6.93486 214.193 8.13405 213.183 9.44963C212.174 10.7647 210.563 12.1184 208.434 13.4186C204.181 16.0158 198.005 18.3083 190.918 19.6462C183.832 20.9842 177.245 21.1011 172.338 20.2335C169.881 19.7992 167.888 19.1256 166.469 18.2691C165.049 17.4122 164.282 16.4247 164.084 15.3733C163.885 14.322 164.239 13.1228 165.249 11.8073C166.258 10.4922 167.868 9.13846 169.998 7.83827C174.251 5.24106 180.427 2.94865 187.513 1.61068C194.6 0.272722 201.186 0.155782 206.094 1.02338C208.551 1.45772 210.544 2.13128 211.963 2.9878C213.383 3.84468 214.15 4.83224 214.348 5.88355Z" fill="#FBE254" stroke="black" stroke-width="1.59538"/>
<ellipse cx="189.22" cy="10.6285" rx="17.5826" ry="5.66823" transform="rotate(-10.6914 189.22 10.6285)" fill="#D9B048"/>
</g>
<defs>
<linearGradient id="paint0_linear_3_28240" x1="333.678" y1="47.3307" x2="387.536" y2="62.1826" gradientUnits="userSpaceOnUse">
<stop stop-color="#5BD576"/>
<stop offset="1" stop-color="#57A943"/>
</linearGradient>
<linearGradient id="paint1_linear_3_28240" x1="111.366" y1="79.8587" x2="154.279" y2="86.6717" gradientUnits="userSpaceOnUse">
<stop stop-color="#5BD576"/>
<stop offset="1" stop-color="#57A943"/>
</linearGradient>
<linearGradient id="paint2_linear_3_28240" x1="206.757" y1="147.687" x2="176.956" y2="171.69" gradientUnits="userSpaceOnUse">
<stop stop-color="#5BD576"/>
<stop offset="1" stop-color="#57A943"/>
</linearGradient>
<clipPath id="clip0_3_28240">
<rect width="360" height="242" fill="white"/>
</clipPath>
</defs>
</svg>
