<svg width="865" height="768" viewBox="0 0 865 768" fill="none" xmlns="http://www.w3.org/2000/svg">
<g clip-path="url(#clip0_121_9675)">
<path d="M686 106.848C828.685 95.5741 906.272 199.515 927.23 252.894C937.709 262.929 937.752 283 854.091 283C749.515 283 756.573 181.152 686 106.848Z" fill="url(#paint0_linear_121_9675)" stroke="black" stroke-width="4"/>
<path d="M894.5 271.5C880 245.833 828.6 182.5 739 134.5" stroke="black" stroke-width="5" stroke-linecap="round"/>
<path d="M254.5 286.5C446.9 296.1 491.667 429.5 490 495C482 518.833 459.9 568.3 435.5 575.5C208.5 594 271 371.5 254.5 286.5Z" fill="url(#paint1_linear_121_9675)" stroke="black" stroke-width="4"/>
<path d="M440.5 572C436.833 541.667 414.7 477.8 355.5 465" stroke="black" stroke-width="5" stroke-linecap="round"/>
<path d="M436 535.5C405.5 494.167 344.2 398.6 343 347" stroke="black" stroke-width="5" stroke-linecap="round"/>
<path d="M751 566.848C608.315 555.574 530.728 659.515 509.77 712.894C499.291 722.929 499.248 743 582.909 743C687.485 743 680.427 641.152 751 566.848Z" fill="url(#paint2_linear_121_9675)" stroke="black" stroke-width="4"/>
<path d="M537.5 710C554.333 691.833 609.7 643.5 696.5 595.5" stroke="black" stroke-width="5" stroke-linecap="round"/>
<path d="M731.882 278.662C720.578 266.933 663.012 316.753 635.642 343.129L671.751 362.38L724.125 308.762C731.421 303.616 743.186 290.392 731.882 278.662Z" fill="#D0A0FF" stroke="black" stroke-width="5"/>
<path d="M753.365 290.071C742.061 278.342 684.495 328.162 657.126 354.538L745.608 320.171C752.904 315.025 764.669 301.801 753.365 290.071Z" fill="#D0A0FF" stroke="black" stroke-width="5"/>
<path d="M811.014 565.319L812.899 566.962L814.541 565.077L834.124 542.604C835.895 540.572 836.373 537.717 835.36 535.219C817.98 492.359 781.231 460.336 736.397 448.982C733.785 448.321 731.022 449.184 729.251 451.216L709.668 473.69L708.025 475.574L709.91 477.217L811.014 565.319Z" fill="#FBE254" stroke="black" stroke-width="5"/>
<path d="M743.929 539.742C758.056 552.053 772.814 561.109 785.327 565.75C791.574 568.068 797.391 569.333 802.358 569.269C807.322 569.206 811.735 567.798 814.668 564.432C817.601 561.066 818.393 556.502 817.776 551.575C817.16 546.646 815.111 541.058 811.961 535.186C805.651 523.426 794.661 510.045 780.534 497.734C766.407 485.424 751.648 476.368 739.136 471.726C732.889 469.409 727.072 468.143 722.105 468.207C717.14 468.27 712.728 469.678 709.795 473.044C706.861 476.41 706.07 480.974 706.686 485.901C707.303 490.83 709.352 496.419 712.502 502.29C718.811 514.05 729.801 527.431 743.929 539.742Z" fill="#FBE254" stroke="black" stroke-width="5"/>
<ellipse cx="762.236" cy="518.738" rx="53.298" ry="16.7631" transform="rotate(41.0691 762.236 518.738)" fill="#D9B048"/>
<path d="M383.671 743.284L384.91 745.456L387.081 744.216L405.237 733.851C407.123 732.774 408.243 730.729 408.135 728.559C406.503 695.926 389.429 666.02 362.157 648.023C360.345 646.827 358.014 646.752 356.127 647.829L337.972 658.194L335.801 659.433L337.04 661.604L383.671 743.284Z" fill="#FBE254" stroke="black" stroke-width="5"/>
<path d="M345.145 710.865C351.694 722.336 359.433 731.817 366.734 737.849C370.378 740.859 374.019 743.099 377.441 744.242C380.86 745.385 384.348 745.514 387.317 743.819C390.286 742.124 391.947 739.055 392.702 735.53C393.457 732.001 393.379 727.728 392.64 723.06C391.157 713.705 386.928 702.221 380.379 690.751C373.83 679.28 366.091 669.799 358.79 663.767C355.146 660.757 351.505 658.517 348.083 657.374C344.663 656.231 341.176 656.102 338.207 657.797C335.238 659.492 333.577 662.561 332.822 666.086C332.067 669.615 332.145 673.888 332.884 678.556C334.367 687.911 338.596 699.395 345.145 710.865Z" fill="#FBE254" stroke="black" stroke-width="5"/>
<ellipse cx="362.762" cy="700.808" rx="37.3803" ry="11.7567" transform="rotate(60.2782 362.762 700.808)" fill="#D9B048"/>
<path d="M387.67 131.771L388.826 129.555L391.043 130.711L417.472 144.497C419.862 145.744 421.347 148.228 421.315 150.923C420.758 197.169 398.214 240.387 360.606 267.305C358.414 268.874 355.527 269.077 353.137 267.831L326.708 254.044L324.492 252.888L325.648 250.672L387.67 131.771Z" fill="#FBE254" stroke="black" stroke-width="5"/>
<path d="M383.197 205.064C374.531 221.677 364.09 235.491 354.131 244.375C349.159 248.811 344.204 252.11 339.556 253.862C334.91 255.613 330.288 255.91 326.329 253.845C322.371 251.781 319.97 247.82 318.747 243.007C317.524 238.193 317.395 232.242 318.187 225.626C319.775 212.375 325.129 195.908 333.796 179.294C342.462 162.68 352.903 148.866 362.862 139.982C367.834 135.547 372.789 132.248 377.437 130.496C382.083 128.745 386.706 128.447 390.664 130.512C394.622 132.577 397.023 136.538 398.246 141.35C399.469 146.165 399.598 152.116 398.806 158.732C397.219 171.983 391.864 188.45 383.197 205.064Z" fill="#FBE254" stroke="black" stroke-width="5"/>
<ellipse rx="53.298" ry="16.7631" transform="matrix(-0.462493 0.886623 0.886623 0.462493 358.494 192.179)" fill="#D9B048"/>
<rect x="514.819" y="229.799" width="160.315" height="201.644" transform="rotate(-10.6914 514.819 229.799)" fill="#FBE254" stroke="black" stroke-width="5"/>
<mask id="mask0_121_9675" style="mask-type:alpha" maskUnits="userSpaceOnUse" x="511" y="197" width="202" height="234">
<rect x="511.898" y="227.806" width="165.315" height="206.644" transform="rotate(-10.6914 511.898 227.806)" fill="#FBE254"/>
</mask>
<g mask="url(#mask0_121_9675)">
<path d="M685.214 220.428C688.635 238.544 652.245 260.624 603.937 269.744C555.628 278.865 513.694 271.573 510.273 253.457" stroke="black" stroke-width="5"/>
<path d="M691.8 255.313C695.221 273.428 658.831 295.508 610.523 304.628C562.214 313.749 520.28 306.457 516.859 288.341" stroke="black" stroke-width="5"/>
<path d="M698.386 290.197C701.806 308.312 665.417 330.392 617.109 339.512C568.8 348.633 526.866 341.341 523.445 323.225" stroke="black" stroke-width="5"/>
<path d="M704.972 325.081C708.392 343.196 672.003 365.276 623.695 374.396C575.386 383.517 533.451 376.225 530.031 358.109" stroke="black" stroke-width="5"/>
<path d="M711.558 359.965C714.978 378.08 678.589 400.16 630.28 409.28C581.972 418.401 540.037 411.109 536.617 392.993" stroke="black" stroke-width="5"/>
</g>
<path d="M462.979 426.572C414.875 490.572 437.149 626.77 477.041 779.605L609.5 779.605C596.765 742.188 553.645 551.664 543.882 522.887C534.967 496.61 543.416 495.581 561.086 489.096C580.611 481.93 615.943 468.79 651.229 448.218C667.96 438.463 695.585 409.436 708.795 395.446C716.238 387.563 741.16 352.284 753.301 331.519C762.709 315.429 760.603 309.396 758.497 305.794C747.706 287.341 703.113 321.663 661.419 367.037C638.821 391.63 614.009 404.496 595.56 411.104C576.972 417.761 577.469 409.169 587.163 398.288C604.854 378.43 656.87 345.006 631.166 325.581C615.829 313.992 555.79 354.417 517.336 381.052C481.202 406.08 471.524 415.203 462.979 426.572Z" fill="#D0A0FF" stroke="black" stroke-width="5"/>
<path d="M671.788 197.08C672.41 200.375 671.301 204.134 668.136 208.257C664.973 212.378 659.927 216.621 653.253 220.696C639.923 228.836 620.568 236.02 598.358 240.213C576.148 244.407 555.506 244.773 540.125 242.054C532.425 240.693 526.18 238.582 521.732 235.897C517.282 233.212 514.878 230.117 514.256 226.822C513.634 223.527 514.744 219.769 517.908 215.646C521.071 211.524 526.118 207.281 532.791 203.207C546.122 195.067 565.476 187.882 587.686 183.689C609.897 179.496 630.538 179.129 645.919 181.848C653.619 183.21 659.865 185.32 664.313 188.005C668.763 190.69 671.166 193.785 671.788 197.08Z" fill="#FBE254" stroke="black" stroke-width="5"/>
<ellipse cx="593.018" cy="211.951" rx="55.105" ry="17.7645" transform="rotate(-10.6914 593.018 211.951)" fill="#D9B048"/>
</g>
<defs>
<linearGradient id="paint0_linear_121_9675" x1="809" y1="224" x2="960.015" y2="312.617" gradientUnits="userSpaceOnUse">
<stop stop-color="#5BD576"/>
<stop offset="1" stop-color="#57A943"/>
</linearGradient>
<linearGradient id="paint1_linear_121_9675" x1="379.5" y1="432" x2="492.599" y2="507.846" gradientUnits="userSpaceOnUse">
<stop stop-color="#5BD576"/>
<stop offset="1" stop-color="#57A943"/>
</linearGradient>
<linearGradient id="paint2_linear_121_9675" x1="648" y1="641.5" x2="554.603" y2="716.729" gradientUnits="userSpaceOnUse">
<stop stop-color="#5BD576"/>
<stop offset="1" stop-color="#57A943"/>
</linearGradient>
<clipPath id="clip0_121_9675">
<rect width="865" height="768" fill="white"/>
</clipPath>
</defs>
</svg>
