<svg width="490" height="507" viewBox="0 0 490 507" fill="none" xmlns="http://www.w3.org/2000/svg">
<path fill-rule="evenodd" clip-rule="evenodd" d="M416.969 128.823L417.46 129.376L417.705 129.664C420.13 132.555 418.781 137.577 415.323 143.97L414.692 145.112L414.018 146.282L413.305 147.479L412.444 148.877L411.537 150.308L410.343 152.14L409.087 154.017L407.507 156.326L405.858 158.691L404.149 161.109L396.308 172.073L393.838 175.566L391.995 178.212L390.171 180.873L388.97 182.654L387.786 184.439L386.621 186.226L385.196 188.461L383.812 190.695C381.633 194.267 379.632 197.824 377.92 201.316L377.382 202.423L377.088 202.988L376.501 204.058L375.474 205.855L372.766 210.466L368.202 218.184L365.614 222.621L363.954 225.522L362.777 227.619L362.035 228.964L361.001 230.883L360.373 232.082L359.802 233.209L359.292 234.255L358.751 235.434L349.301 257.337L345.929 265.205L320.324 351.148L249.359 330.005L252.009 321.319L254.66 312.73C255.984 308.463 257.305 304.239 258.618 300.07L261.233 291.806L263.95 283.301C264.399 281.9 264.847 280.507 265.293 279.123L267.945 270.93L270.541 262.973L273.073 255.274L275.531 247.856L277.907 240.74L281.293 230.681L284.439 221.427L286.387 215.741L288.205 210.469L290.668 203.384L292.119 199.242L294.434 192.702L296.193 187.809L297.486 184.263L298.759 180.823L300.012 177.49L301.248 174.264L301.426 173.81C301.558 173.469 301.694 173.122 301.835 172.767L302.869 170.129L303.67 168.133L304.464 166.185L305.644 163.353L306.424 161.525L307.199 159.745L307.969 158.013L309.117 155.507L310.256 153.109L311.011 151.571L312.139 149.355L312.676 148.346C319.862 133.086 327.152 118.638 327.152 118.638L327.181 118.727L327.327 118.423L328.049 116.965L328.765 115.554L329.476 114.192L330.181 112.878C330.298 112.663 330.415 112.45 330.532 112.239L331.228 110.998L331.92 109.805L332.606 108.66L333.286 107.563L333.961 106.515L334.63 105.515L335.293 104.563L335.952 103.66C336.388 103.074 336.822 102.52 337.251 101.998L337.893 101.24C337.999 101.118 338.105 100.997 338.211 100.879L338.844 100.193C342.942 95.8911 346.689 94.6504 350.085 96.4708C354.859 99.0305 355.437 103.741 353.647 109.989L353.361 110.937C353.31 111.097 353.258 111.258 353.205 111.42L352.868 112.403L352.499 113.407C352.435 113.576 352.37 113.746 352.303 113.917L351.889 114.954L351.446 116.011C351.37 116.189 351.292 116.368 351.214 116.547L350.731 117.635L350.222 118.742L349.415 120.438L348.559 122.176L347.658 123.954L346.072 127.002L344.737 129.513L341.224 136.044L340.902 136.868L340.596 137.7L340.095 139.154L339.734 140.258L339.15 142.119L338.515 144.224L338.064 145.763L338.587 144.379L339.099 143.081L339.602 141.868C340.183 140.502 340.745 139.309 341.288 138.291L341.748 137.46C343.114 135.096 344.352 133.88 345.461 133.812C350.977 133.477 356.104 136.512 360.001 139.582L360.817 140.239L361.21 140.565L361.966 141.21L363.35 142.442L365.55 144.464L366.162 144.996L366.338 145.139C373.294 150.621 376.246 156.347 371.833 164.765L373.55 162.259L375.22 159.848L376.843 157.531L378.42 155.307L379.952 153.175L381.44 151.132L382.885 149.178L384.288 147.311L385.649 145.53L386.97 143.834L388.252 142.221L389.8 140.319L391.291 138.543L392.442 137.21L393.005 136.573L394.104 135.355C396.089 133.191 397.904 131.406 399.575 129.961L400.473 129.207C407.52 123.457 411.951 124.012 415.935 127.768L416.476 128.3L416.969 128.823Z" fill="#D0A0FF"/>
<path d="M417.46 129.376L418.984 128.081L418.97 128.065L418.957 128.049L417.46 129.376ZM416.969 128.823L418.466 127.496L418.445 127.473L418.424 127.45L416.969 128.823ZM417.705 129.664L419.237 128.379L419.229 128.369L417.705 129.664ZM415.323 143.97L417.074 144.938L417.078 144.93L417.083 144.921L415.323 143.97ZM414.692 145.112L416.425 146.11L416.434 146.095L416.442 146.08L414.692 145.112ZM414.018 146.282L415.736 147.306L415.744 147.293L415.752 147.28L414.018 146.282ZM413.305 147.479L415.008 148.527L415.016 148.515L415.023 148.503L413.305 147.479ZM412.444 148.877L414.133 149.948L414.14 149.937L414.147 149.926L412.444 148.877ZM411.537 150.308L413.212 151.401L413.219 151.39L413.226 151.379L411.537 150.308ZM410.343 152.14L412.005 153.252L412.012 153.242L412.018 153.232L410.343 152.14ZM409.087 154.017L410.738 155.147L410.743 155.138L410.749 155.129L409.087 154.017ZM407.507 156.326L409.148 157.47L409.153 157.463L409.158 157.455L407.507 156.326ZM405.858 158.691L407.491 159.846L407.499 159.835L405.858 158.691ZM404.149 161.109L405.776 162.272L405.782 162.263L404.149 161.109ZM396.308 172.073L394.681 170.909L394.674 170.918L396.308 172.073ZM393.838 175.566L392.205 174.412L392.197 174.423L393.838 175.566ZM391.995 178.212L390.354 177.068L390.349 177.075L390.345 177.081L391.995 178.212ZM390.171 180.873L388.521 179.742L388.517 179.749L388.512 179.755L390.171 180.873ZM388.97 182.654L387.312 181.536L387.308 181.542L387.304 181.548L388.97 182.654ZM387.786 184.439L386.12 183.333L386.115 183.34L386.111 183.347L387.786 184.439ZM386.621 186.226L384.946 185.134L384.94 185.142L384.935 185.151L386.621 186.226ZM385.196 188.461L383.51 187.386L383.503 187.397L383.496 187.408L385.196 188.461ZM383.812 190.695L382.112 189.642L382.105 189.653L383.812 190.695ZM377.92 201.316L376.124 200.435L376.121 200.442L377.92 201.316ZM377.382 202.423L379.157 203.346L379.169 203.321L379.181 203.297L377.382 202.423ZM377.088 202.988L378.841 203.951L378.852 203.931L378.863 203.911L377.088 202.988ZM376.501 204.058L378.237 205.05L378.246 205.035L378.254 205.021L376.501 204.058ZM375.474 205.855L377.199 206.868L377.205 206.857L377.211 206.847L375.474 205.855ZM372.766 210.466L374.487 211.484L374.49 211.479L372.766 210.466ZM368.202 218.184L366.48 217.166L366.474 217.177L368.202 218.184ZM365.614 222.621L363.887 221.614L363.883 221.621L363.879 221.628L365.614 222.621ZM363.954 225.522L362.219 224.528L362.214 224.535L362.21 224.542L363.954 225.522ZM362.777 227.619L361.033 226.64L361.029 226.646L361.025 226.653L362.777 227.619ZM362.035 228.964L360.283 227.999L360.279 228.007L360.274 228.016L362.035 228.964ZM361.001 230.883L359.24 229.934L359.234 229.945L359.229 229.956L361.001 230.883ZM360.373 232.082L358.601 231.155L358.595 231.166L358.59 231.178L360.373 232.082ZM359.802 233.209L358.018 232.304L358.011 232.319L358.004 232.333L359.802 233.209ZM359.292 234.255L357.494 233.378L357.484 233.399L357.474 233.421L359.292 234.255ZM358.751 235.434L356.933 234.601L356.924 234.621L356.915 234.642L358.751 235.434ZM349.301 257.337L347.465 256.545L347.463 256.549L349.301 257.337ZM345.929 265.205L344.091 264.417L344.045 264.523L344.012 264.634L345.929 265.205ZM320.324 351.148L319.753 353.065L321.669 353.636L322.24 351.719L320.324 351.148ZM249.359 330.005L247.446 329.421L246.858 331.347L248.788 331.922L249.359 330.005ZM252.009 321.319L250.098 320.73L250.097 320.736L252.009 321.319ZM254.66 312.73L252.75 312.138L252.749 312.141L254.66 312.73ZM258.618 300.07L256.712 299.467L256.711 299.469L258.618 300.07ZM261.233 291.806L259.328 291.198L259.326 291.203L261.233 291.806ZM263.95 283.301L262.045 282.69L262.044 282.693L263.95 283.301ZM265.293 279.123L263.39 278.507L263.389 278.51L265.293 279.123ZM267.945 270.93L266.043 270.31L266.042 270.314L267.945 270.93ZM270.541 262.973L268.641 262.348L268.64 262.353L270.541 262.973ZM273.073 255.274L271.175 254.645L271.173 254.65L273.073 255.274ZM275.531 247.856L273.634 247.223L273.633 247.227L275.531 247.856ZM277.907 240.74L276.011 240.101L276.009 240.106L277.907 240.74ZM281.293 230.681L279.399 230.037L279.397 230.043L281.293 230.681ZM284.439 221.427L282.547 220.778L282.545 220.783L284.439 221.427ZM286.387 215.741L284.496 215.089L284.495 215.093L286.387 215.741ZM288.205 210.469L286.316 209.813L286.315 209.817L288.205 210.469ZM290.668 203.384L288.78 202.723L288.779 202.728L290.668 203.384ZM292.119 199.242L290.234 198.574L290.232 198.58L292.119 199.242ZM294.434 192.702L292.552 192.026L292.548 192.035L294.434 192.702ZM296.193 187.809L294.314 187.124L294.31 187.133L296.193 187.809ZM297.486 184.263L295.61 183.569L295.607 183.578L297.486 184.263ZM298.759 180.823L296.887 180.119L296.883 180.129L298.759 180.823ZM300.012 177.49L298.145 176.775L298.14 176.786L300.012 177.49ZM301.248 174.264L299.386 173.534L299.383 173.541L299.38 173.548L301.248 174.264ZM301.426 173.81L303.288 174.541L303.29 174.534L301.426 173.81ZM301.835 172.767L303.694 173.504L303.697 173.498L301.835 172.767ZM302.869 170.129L301.013 169.384L301.01 169.391L301.008 169.399L302.869 170.129ZM303.67 168.133L301.818 167.378L301.814 167.388L303.67 168.133ZM304.464 166.185L302.618 165.416L302.615 165.423L302.612 165.43L304.464 166.185ZM305.644 163.353L303.805 162.568L303.801 162.576L303.798 162.583L305.644 163.353ZM306.424 161.525L304.591 160.726L304.588 160.733L304.585 160.74L306.424 161.525ZM307.199 159.745L305.372 158.932L305.369 158.939L305.365 158.947L307.199 159.745ZM307.969 158.013L306.151 157.181L306.146 157.191L306.142 157.201L307.969 158.013ZM309.117 155.507L307.31 154.649L307.304 154.661L307.298 154.674L309.117 155.507ZM310.256 153.109L308.461 152.227L308.455 152.239L308.449 152.251L310.256 153.109ZM311.011 151.571L309.229 150.664L309.223 150.676L309.216 150.689L311.011 151.571ZM312.139 149.355L310.373 148.417L310.365 148.433L310.357 148.448L312.139 149.355ZM312.676 148.346L314.442 149.284L314.465 149.241L314.485 149.198L312.676 148.346ZM327.152 118.638L329.059 118.034L327.577 113.357L325.367 117.737L327.152 118.638ZM327.181 118.727L325.274 119.331L326.794 124.129L328.982 119.596L327.181 118.727ZM327.327 118.423L325.535 117.536L325.53 117.545L325.526 117.554L327.327 118.423ZM328.049 116.965L326.266 116.059L326.261 116.068L326.256 116.078L328.049 116.965ZM328.765 115.554L326.992 114.629L326.987 114.639L326.982 114.648L328.765 115.554ZM329.476 114.192L327.714 113.246L327.708 113.256L327.703 113.267L329.476 114.192ZM330.181 112.878L328.425 111.921L328.419 111.932L330.181 112.878ZM330.532 112.239L328.788 111.26L328.781 111.272L330.532 112.239ZM331.228 110.998L329.498 109.995L329.491 110.007L329.484 110.019L331.228 110.998ZM331.92 109.805L330.204 108.777L330.197 108.789L330.189 108.802L331.92 109.805ZM332.606 108.66L330.906 107.605L330.898 107.619L330.89 107.632L332.606 108.66ZM333.286 107.563L331.604 106.481L331.595 106.495L331.586 106.509L333.286 107.563ZM333.961 106.515L332.298 105.403L332.289 105.417L332.279 105.433L333.961 106.515ZM334.63 105.515L332.989 104.371L332.978 104.387L332.968 104.403L334.63 105.515ZM335.293 104.563L333.677 103.386L333.665 103.402L333.653 103.419L335.293 104.563ZM335.952 103.66L334.348 102.465L334.341 102.474L334.335 102.482L335.952 103.66ZM337.251 101.998L335.724 100.707L335.716 100.717L335.707 100.727L337.251 101.998ZM337.893 101.24L336.384 99.9273L336.375 99.9378L336.366 99.9484L337.893 101.24ZM338.211 100.879L336.742 99.5223L336.731 99.5334L336.721 99.5446L338.211 100.879ZM338.844 100.193L337.396 98.8135L337.385 98.8248L337.375 98.8364L338.844 100.193ZM350.085 96.4708L351.029 94.7081L351.029 94.7081L350.085 96.4708ZM353.647 109.989L355.561 110.566L355.565 110.553L355.569 110.54L353.647 109.989ZM353.361 110.937L355.268 111.54L355.272 111.527L355.275 111.515L353.361 110.937ZM353.205 111.42L355.097 112.069L355.1 112.058L355.104 112.046L353.205 111.42ZM352.868 112.403L354.745 113.092L354.753 113.072L354.76 113.051L352.868 112.403ZM352.499 113.407L354.37 114.115L354.373 114.106L354.377 114.096L352.499 113.407ZM352.303 113.917L354.16 114.66L354.164 114.652L354.167 114.643L352.303 113.917ZM351.889 114.954L353.733 115.727L353.74 115.711L353.746 115.696L351.889 114.954ZM351.446 116.011L353.285 116.798L353.288 116.791L353.29 116.784L351.446 116.011ZM351.214 116.547L353.042 117.359L353.047 117.347L351.214 116.547ZM350.731 117.635L352.548 118.469L352.553 118.458L352.558 118.447L350.731 117.635ZM350.222 118.742L352.028 119.601L352.034 119.589L352.04 119.576L350.222 118.742ZM349.415 120.438L351.209 121.322L351.215 121.31L351.221 121.297L349.415 120.438ZM348.559 122.176L350.343 123.08L350.348 123.07L350.353 123.06L348.559 122.176ZM347.658 123.954L349.432 124.878L349.438 124.868L349.443 124.858L347.658 123.954ZM346.072 127.002L347.838 127.941L347.842 127.933L347.846 127.926L346.072 127.002ZM344.737 129.513L346.499 130.46L346.503 130.452L344.737 129.513ZM341.224 136.044L339.463 135.097L339.406 135.203L339.362 135.315L341.224 136.044ZM340.902 136.868L339.039 136.138L339.032 136.158L339.024 136.178L340.902 136.868ZM340.596 137.7L338.718 137.011L338.711 137.03L338.705 137.049L340.596 137.7ZM340.095 139.154L338.204 138.502L338.199 138.517L338.194 138.531L340.095 139.154ZM339.734 140.258L337.833 139.636L337.829 139.647L337.825 139.659L339.734 140.258ZM339.15 142.119L337.241 141.52L337.238 141.531L337.235 141.542L339.15 142.119ZM338.515 144.224L336.6 143.647L336.598 143.654L336.596 143.662L338.515 144.224ZM338.064 145.763L336.145 145.201L339.936 146.469L338.064 145.763ZM338.587 144.379L336.726 143.645L336.721 143.659L336.715 143.673L338.587 144.379ZM339.099 143.081L337.252 142.315L337.245 142.331L337.239 142.347L339.099 143.081ZM339.602 141.868L337.762 141.084L337.758 141.093L337.755 141.102L339.602 141.868ZM341.288 138.291L339.538 137.321L339.53 137.336L339.522 137.351L341.288 138.291ZM341.748 137.46L340.016 136.459L340.007 136.475L339.998 136.491L341.748 137.46ZM345.461 133.812L345.339 131.816L345.339 131.816L345.461 133.812ZM360.001 139.582L361.256 138.024L361.247 138.017L361.239 138.011L360.001 139.582ZM360.817 140.239L362.095 138.7L362.083 138.691L362.072 138.681L360.817 140.239ZM361.21 140.565L362.508 139.044L362.498 139.035L362.488 139.027L361.21 140.565ZM361.966 141.21L363.296 139.716L363.28 139.702L363.264 139.689L361.966 141.21ZM363.35 142.442L364.703 140.969L364.691 140.958L364.679 140.947L363.35 142.442ZM365.55 144.464L364.197 145.937L364.217 145.955L364.238 145.973L365.55 144.464ZM366.162 144.996L364.85 146.505L364.877 146.528L364.904 146.551L366.162 144.996ZM366.338 145.139L365.08 146.693L365.09 146.701L365.1 146.709L366.338 145.139ZM371.833 164.765L370.061 163.836L373.482 165.896L371.833 164.765ZM373.55 162.259L371.906 161.12L371.901 161.128L373.55 162.259ZM375.22 159.848L373.582 158.701L373.576 158.709L375.22 159.848ZM376.843 157.531L375.212 156.375L375.205 156.384L376.843 157.531ZM378.42 155.307L376.796 154.141L376.789 154.151L378.42 155.307ZM379.952 153.175L378.336 151.997L378.328 152.008L379.952 153.175ZM381.44 151.132L379.832 149.943L379.828 149.949L379.824 149.955L381.44 151.132ZM382.885 149.178L381.286 147.977L381.282 147.983L381.277 147.989L382.885 149.178ZM384.288 147.311L382.699 146.097L382.694 146.103L382.689 146.11L384.288 147.311ZM385.649 145.53L384.071 144.302L384.066 144.309L384.06 144.316L385.649 145.53ZM386.97 143.834L385.404 142.59L385.398 142.597L385.392 142.605L386.97 143.834ZM388.252 142.221L386.701 140.958L386.694 140.967L386.686 140.977L388.252 142.221ZM389.8 140.319L388.268 139.034L388.259 139.045L388.249 139.056L389.8 140.319ZM391.291 138.543L389.777 137.235L389.768 137.246L389.758 137.257L391.291 138.543ZM392.442 137.21L390.943 135.887L390.936 135.894L390.929 135.902L392.442 137.21ZM393.005 136.573L391.52 135.232L391.513 135.241L391.505 135.249L393.005 136.573ZM394.104 135.355L392.63 134.003L392.625 134.009L392.62 134.015L394.104 135.355ZM399.575 129.961L398.289 128.43L398.278 128.439L398.268 128.448L399.575 129.961ZM400.473 129.207L399.209 127.657L399.198 127.666L399.187 127.676L400.473 129.207ZM415.935 127.768L417.337 126.342L417.322 126.328L417.307 126.313L415.935 127.768ZM416.476 128.3L417.93 126.927L417.904 126.9L417.878 126.874L416.476 128.3ZM418.957 128.049L418.466 127.496L415.473 130.15L415.964 130.704L418.957 128.049ZM419.229 128.369L418.984 128.081L415.937 130.672L416.181 130.96L419.229 128.369ZM417.083 144.921C418.846 141.661 420.16 138.596 420.684 135.883C421.209 133.164 420.993 130.471 419.237 128.379L416.173 130.95C416.842 131.748 417.164 133.012 416.757 135.125C416.348 137.243 415.258 139.886 413.564 143.019L417.083 144.921ZM416.442 146.08L417.074 144.938L413.573 143.002L412.942 144.144L416.442 146.08ZM415.752 147.28L416.425 146.11L412.958 144.115L412.285 145.284L415.752 147.28ZM415.023 148.503L415.736 147.306L412.3 145.258L411.587 146.455L415.023 148.503ZM414.147 149.926L415.008 148.527L411.602 146.43L410.741 147.829L414.147 149.926ZM413.226 151.379L414.133 149.948L410.755 147.807L409.848 149.237L413.226 151.379ZM412.018 153.232L413.212 151.401L409.862 149.216L408.667 151.048L412.018 153.232ZM410.749 155.129L412.005 153.252L408.68 151.028L407.425 152.905L410.749 155.129ZM409.158 157.455L410.738 155.147L407.436 152.888L405.857 155.197L409.158 157.455ZM407.499 159.835L409.148 157.47L405.867 155.182L404.217 157.547L407.499 159.835ZM405.782 162.263L407.491 159.846L404.225 157.537L402.516 159.955L405.782 162.263ZM397.934 173.236L405.776 162.272L402.522 159.945L394.681 170.909L397.934 173.236ZM395.471 176.721L397.941 173.227L394.674 170.918L392.205 174.412L395.471 176.721ZM393.636 179.355L395.479 176.71L392.197 174.423L390.354 177.068L393.636 179.355ZM391.821 182.004L393.645 179.342L390.345 177.081L388.521 179.742L391.821 182.004ZM390.629 183.772L391.829 181.991L388.512 179.755L387.312 181.536L390.629 183.772ZM389.453 185.545L390.637 183.76L387.304 181.548L386.12 183.333L389.453 185.545ZM388.297 187.318L389.462 185.531L386.111 183.347L384.946 185.134L388.297 187.318ZM386.883 189.536L388.308 187.301L384.935 185.151L383.51 187.386L386.883 189.536ZM385.512 191.749L386.896 189.515L383.496 187.408L382.112 189.642L385.512 191.749ZM379.715 202.197C381.394 198.773 383.363 195.271 385.519 191.737L382.105 189.653C379.903 193.263 377.87 196.875 376.124 200.435L379.715 202.197ZM379.181 203.297L379.719 202.19L376.121 200.442L375.583 201.549L379.181 203.297ZM378.863 203.911L379.157 203.346L375.608 201.5L375.314 202.065L378.863 203.911ZM378.254 205.021L378.841 203.951L375.335 202.025L374.748 203.095L378.254 205.021ZM377.211 206.847L378.237 205.05L374.764 203.066L373.738 204.863L377.211 206.847ZM374.49 211.479L377.199 206.868L373.75 204.842L371.041 209.453L374.49 211.479ZM369.923 219.202L374.487 211.484L371.044 209.448L366.48 217.166L369.923 219.202ZM367.342 223.629L369.929 219.192L366.474 217.177L363.887 221.614L367.342 223.629ZM365.69 226.515L367.35 223.615L363.879 221.628L362.219 224.528L365.69 226.515ZM364.521 228.598L365.698 226.501L362.21 224.542L361.033 226.64L364.521 228.598ZM363.786 229.93L364.528 228.585L361.025 226.653L360.283 227.999L363.786 229.93ZM362.762 231.831L363.795 229.913L360.274 228.016L359.24 229.934L362.762 231.831ZM362.145 233.009L362.773 231.81L359.229 229.956L358.601 231.155L362.145 233.009ZM361.585 234.114L362.157 232.987L358.59 231.178L358.018 232.304L361.585 234.114ZM361.09 235.131L361.599 234.086L358.004 232.333L357.494 233.378L361.09 235.131ZM360.569 236.268L361.11 235.088L357.474 233.421L356.933 234.601L360.569 236.268ZM351.138 258.13L360.587 236.227L356.915 234.642L347.465 256.545L351.138 258.13ZM347.767 265.993L351.14 258.125L347.463 256.549L344.091 264.417L347.767 265.993ZM322.24 351.719L347.846 265.776L344.012 264.634L318.407 350.577L322.24 351.719ZM248.788 331.922L319.753 353.065L320.895 349.231L249.93 328.089L248.788 331.922ZM250.097 320.736L247.446 329.421L251.272 330.589L253.922 321.903L250.097 320.736ZM252.749 312.141L250.098 320.73L253.921 321.909L256.571 313.32L252.749 312.141ZM256.711 299.469C255.397 303.641 254.075 307.868 252.75 312.138L256.57 313.323C257.893 309.059 259.214 304.838 260.526 300.671L256.711 299.469ZM259.326 291.203L256.712 299.467L260.525 300.673L263.14 292.41L259.326 291.203ZM262.044 282.693L259.328 291.198L263.138 292.415L265.855 283.91L262.044 282.693ZM263.389 278.51C262.943 279.894 262.495 281.288 262.045 282.69L265.854 283.912C266.303 282.512 266.751 281.12 267.197 279.737L263.389 278.51ZM266.042 270.314L263.39 278.507L267.196 279.739L269.847 271.546L266.042 270.314ZM268.64 262.353L266.043 270.31L269.846 271.551L272.442 263.594L268.64 262.353ZM271.173 254.65L268.641 262.348L272.441 263.598L274.973 255.899L271.173 254.65ZM273.633 247.227L271.175 254.645L274.972 255.904L277.43 248.485L273.633 247.227ZM276.009 240.106L273.634 247.223L277.429 248.489L279.804 241.373L276.009 240.106ZM279.397 230.043L276.011 240.101L279.802 241.378L283.188 231.319L279.397 230.043ZM282.545 220.783L279.399 230.037L283.186 231.324L286.332 222.07L282.545 220.783ZM284.495 215.093L282.547 220.778L286.331 222.075L288.279 216.39L284.495 215.093ZM286.315 209.817L284.496 215.089L288.278 216.393L290.096 211.121L286.315 209.817ZM288.779 202.728L286.316 209.813L290.094 211.126L292.557 204.041L288.779 202.728ZM290.232 198.58L288.78 202.723L292.555 204.046L294.007 199.903L290.232 198.58ZM292.548 192.035L290.234 198.574L294.005 199.909L296.319 193.37L292.548 192.035ZM294.31 187.133L292.552 192.026L296.316 193.379L298.075 188.486L294.31 187.133ZM295.607 183.578L294.314 187.124L298.071 188.494L299.365 184.948L295.607 183.578ZM296.883 180.129L295.61 183.569L299.362 184.957L300.635 181.517L296.883 180.129ZM298.14 176.786L296.887 180.119L300.631 181.527L301.884 178.194L298.14 176.786ZM299.38 173.548L298.145 176.775L301.88 178.205L303.116 174.979L299.38 173.548ZM299.564 173.08L299.386 173.534L303.11 174.994L303.288 174.541L299.564 173.08ZM299.975 172.031C299.833 172.389 299.695 172.741 299.561 173.087L303.29 174.534C303.421 174.197 303.555 173.854 303.694 173.504L299.975 172.031ZM301.008 169.399L299.973 172.037L303.697 173.498L304.731 170.859L301.008 169.399ZM301.814 167.388L301.013 169.384L304.726 170.873L305.526 168.877L301.814 167.388ZM302.612 165.43L301.818 167.378L305.522 168.888L306.316 166.94L302.612 165.43ZM303.798 162.583L302.618 165.416L306.31 166.954L307.49 164.122L303.798 162.583ZM304.585 160.74L303.805 162.568L307.484 164.138L308.264 162.31L304.585 160.74ZM305.365 158.947L304.591 160.726L308.258 162.323L309.033 160.543L305.365 158.947ZM306.142 157.201L305.372 158.932L309.027 160.558L309.797 158.826L306.142 157.201ZM307.298 154.674L306.151 157.181L309.788 158.846L310.935 156.339L307.298 154.674ZM308.449 152.251L307.31 154.649L310.923 156.365L312.062 153.967L308.449 152.251ZM309.216 150.689L308.461 152.227L312.051 153.991L312.806 152.453L309.216 150.689ZM310.357 148.448L309.229 150.664L312.794 152.478L313.922 150.263L310.357 148.448ZM310.909 147.407L310.373 148.417L313.906 150.294L314.442 149.284L310.909 147.407ZM327.152 118.638C325.367 117.737 325.367 117.737 325.367 117.737C325.367 117.737 325.367 117.738 325.366 117.738C325.366 117.738 325.366 117.739 325.365 117.74C325.364 117.742 325.363 117.744 325.361 117.748C325.358 117.755 325.352 117.766 325.345 117.78C325.331 117.808 325.31 117.85 325.282 117.905C325.227 118.015 325.145 118.178 325.038 118.391C324.824 118.817 324.51 119.442 324.112 120.24C323.315 121.836 322.177 124.122 320.815 126.885C318.091 132.411 314.466 139.849 310.866 147.493L314.485 149.198C318.071 141.582 321.685 134.167 324.403 128.654C325.761 125.898 326.896 123.618 327.69 122.028C328.087 121.233 328.399 120.61 328.612 120.186C328.719 119.974 328.8 119.812 328.855 119.703C328.883 119.649 328.903 119.608 328.917 119.58C328.924 119.566 328.929 119.556 328.933 119.549C328.935 119.546 328.936 119.543 328.937 119.542C328.937 119.541 328.937 119.54 328.938 119.54C328.938 119.539 328.938 119.539 328.938 119.539C328.938 119.539 328.938 119.539 327.152 118.638ZM329.087 118.123L329.059 118.034L325.246 119.242L325.274 119.331L329.087 118.123ZM325.526 117.554L325.379 117.858L328.982 119.596L329.128 119.293L325.526 117.554ZM326.256 116.078L325.535 117.536L329.12 119.31L329.842 117.851L326.256 116.078ZM326.982 114.648L326.266 116.059L329.832 117.87L330.548 116.46L326.982 114.648ZM327.703 113.267L326.992 114.629L330.538 116.479L331.249 115.117L327.703 113.267ZM328.419 111.932L327.714 113.246L331.238 115.138L331.943 113.824L328.419 111.932ZM328.781 111.272C328.663 111.486 328.544 111.703 328.425 111.921L331.938 113.835C332.053 113.623 332.167 113.414 332.282 113.207L328.781 111.272ZM329.484 110.019L328.788 111.26L332.276 113.218L332.973 111.977L329.484 110.019ZM330.189 108.802L329.498 109.995L332.959 112L333.65 110.807L330.189 108.802ZM330.89 107.632L330.204 108.777L333.636 110.832L334.321 109.688L330.89 107.632ZM331.586 106.509L330.906 107.605L334.305 109.714L334.985 108.618L331.586 106.509ZM332.279 105.433L331.604 106.481L334.968 108.646L335.642 107.597L332.279 105.433ZM332.968 104.403L332.298 105.403L335.623 107.627L336.292 106.627L332.968 104.403ZM333.653 103.419L332.989 104.371L336.27 106.659L336.934 105.707L333.653 103.419ZM334.335 102.482L333.677 103.386L336.91 105.741L337.568 104.838L334.335 102.482ZM335.707 100.727C335.256 101.276 334.803 101.855 334.348 102.465L337.555 104.855C337.974 104.293 338.388 103.765 338.795 103.27L335.707 100.727ZM336.366 99.9484L335.724 100.707L338.778 103.29L339.42 102.532L336.366 99.9484ZM336.721 99.5446C336.609 99.6703 336.496 99.7979 336.384 99.9273L339.402 102.553C339.502 102.437 339.602 102.324 339.701 102.213L336.721 99.5446ZM337.375 98.8364L336.742 99.5223L339.681 102.235L340.314 101.549L337.375 98.8364ZM351.029 94.7081C348.835 93.5315 346.479 93.3493 344.099 94.1374C341.796 94.9001 339.566 96.5352 337.396 98.8135L340.293 101.572C342.22 99.5488 343.913 98.4127 345.356 97.9346C346.723 97.482 347.939 97.5896 349.14 98.2334L351.029 94.7081ZM355.569 110.54C356.504 107.277 356.903 104.157 356.278 101.404C355.626 98.5354 353.904 96.2492 351.029 94.7081L349.14 98.2334C351.04 99.2521 351.994 100.601 352.377 102.289C352.787 104.093 352.579 106.453 351.724 109.438L355.569 110.54ZM355.275 111.515L355.561 110.566L351.732 109.411L351.446 110.36L355.275 111.515ZM355.104 112.046C355.16 111.877 355.215 111.708 355.268 111.54L351.453 110.335C351.405 110.487 351.356 110.64 351.305 110.794L355.104 112.046ZM354.76 113.051L355.097 112.069L351.313 110.772L350.976 111.754L354.76 113.051ZM354.377 114.096L354.745 113.092L350.991 111.713L350.622 112.718L354.377 114.096ZM354.167 114.643C354.236 114.467 354.303 114.291 354.37 114.115L350.629 112.699C350.567 112.862 350.504 113.026 350.44 113.191L354.167 114.643ZM353.746 115.696L354.16 114.66L350.446 113.175L350.032 114.211L353.746 115.696ZM353.29 116.784L353.733 115.727L350.044 114.181L349.601 115.238L353.29 116.784ZM353.047 117.347C353.127 117.163 353.206 116.98 353.285 116.798L349.607 115.224C349.533 115.397 349.458 115.572 349.381 115.747L353.047 117.347ZM352.558 118.447L353.042 117.359L349.386 115.735L348.903 116.822L352.558 118.447ZM352.04 119.576L352.548 118.469L348.913 116.8L348.405 117.907L352.04 119.576ZM351.221 121.297L352.028 119.601L348.416 117.882L347.609 119.579L351.221 121.297ZM350.353 123.06L351.209 121.322L347.621 119.554L346.765 121.292L350.353 123.06ZM349.443 124.858L350.343 123.08L346.775 121.272L345.874 123.05L349.443 124.858ZM347.846 127.926L349.432 124.878L345.884 123.031L344.298 126.079L347.846 127.926ZM346.503 130.452L347.838 127.941L344.306 126.063L342.971 128.574L346.503 130.452ZM342.985 136.992L346.499 130.46L342.976 128.565L339.463 135.097L342.985 136.992ZM342.764 137.597L343.086 136.774L339.362 135.315L339.039 136.138L342.764 137.597ZM342.473 138.39L342.779 137.557L339.024 136.178L338.718 137.011L342.473 138.39ZM341.986 139.805L342.487 138.352L338.705 137.049L338.204 138.502L341.986 139.805ZM341.634 140.88L341.996 139.776L338.194 138.531L337.833 139.636L341.634 140.88ZM341.058 142.718L341.642 140.857L337.825 139.659L337.241 141.52L341.058 142.718ZM340.43 144.801L341.064 142.696L337.235 141.542L336.6 143.647L340.43 144.801ZM339.984 146.325L340.435 144.786L336.596 143.662L336.145 145.201L339.984 146.325ZM336.715 143.673L336.193 145.057L339.936 146.469L340.458 145.086L336.715 143.673ZM337.239 142.347L336.726 143.645L340.447 145.114L340.959 143.815L337.239 142.347ZM337.755 141.102L337.252 142.315L340.947 143.847L341.45 142.634L337.755 141.102ZM339.522 137.351C338.946 138.432 338.36 139.679 337.762 141.084L341.442 142.651C342.007 141.324 342.544 140.186 343.053 139.231L339.522 137.351ZM339.998 136.491L339.538 137.321L343.037 139.26L343.497 138.429L339.998 136.491ZM345.339 131.816C344.097 131.892 343.078 132.583 342.299 133.348C341.5 134.133 340.744 135.199 340.016 136.459L343.48 138.461C344.118 137.356 344.664 136.632 345.102 136.202C345.561 135.751 345.716 135.8 345.582 135.809L345.339 131.816ZM361.239 138.011C357.26 134.877 351.628 131.433 345.339 131.816L345.582 135.809C350.326 135.52 354.948 138.147 358.764 141.153L361.239 138.011ZM362.072 138.681L361.256 138.024L358.747 141.139L359.563 141.796L362.072 138.681ZM362.488 139.027L362.095 138.7L359.539 141.777L359.932 142.104L362.488 139.027ZM363.264 139.689L362.508 139.044L359.912 142.087L360.668 142.732L363.264 139.689ZM364.679 140.947L363.296 139.716L360.637 142.704L362.02 143.936L364.679 140.947ZM366.904 142.991L364.703 140.969L361.996 143.914L364.197 145.937L366.904 142.991ZM367.475 143.487L366.863 142.955L364.238 145.973L364.85 146.505L367.475 143.487ZM367.597 143.584L367.42 143.441L364.904 146.551L365.08 146.693L367.597 143.584ZM373.604 165.694C375.994 161.136 376.516 157.03 375.247 153.219C374.009 149.503 371.172 146.402 367.576 143.568L365.1 146.709C368.461 149.358 370.578 151.861 371.452 154.483C372.293 157.01 372.085 159.976 370.061 163.836L373.604 165.694ZM371.901 161.128L370.183 163.634L373.482 165.896L375.2 163.39L371.901 161.128ZM373.576 158.709L371.906 161.12L375.195 163.398L376.864 160.987L373.576 158.709ZM375.205 156.384L373.582 158.701L376.858 160.996L378.481 158.679L375.205 156.384ZM376.789 154.151L375.212 156.375L378.475 158.688L380.052 156.464L376.789 154.151ZM378.328 152.008L376.796 154.141L380.045 156.474L381.577 154.342L378.328 152.008ZM379.824 149.955L378.336 151.997L381.569 154.352L383.057 152.31L379.824 149.955ZM381.277 147.989L379.832 149.943L383.049 152.321L384.493 150.367L381.277 147.989ZM382.689 146.11L381.286 147.977L384.484 150.379L385.887 148.513L382.689 146.11ZM384.06 144.316L382.699 146.097L385.877 148.526L387.238 146.745L384.06 144.316ZM385.392 142.605L384.071 144.302L387.227 146.759L388.548 145.063L385.392 142.605ZM386.686 140.977L385.404 142.59L388.536 145.078L389.818 143.465L386.686 140.977ZM388.249 139.056L386.701 140.958L389.803 143.484L391.351 141.582L388.249 139.056ZM389.758 137.257L388.268 139.034L391.333 141.605L392.823 139.828L389.758 137.257ZM390.929 135.902L389.777 137.235L392.804 139.85L393.956 138.518L390.929 135.902ZM391.505 135.249L390.943 135.887L393.942 138.533L394.504 137.896L391.505 135.249ZM392.62 134.015L391.52 135.232L394.489 137.913L395.589 136.695L392.62 134.015ZM398.268 128.448C396.524 129.955 394.653 131.798 392.63 134.003L395.578 136.707C397.525 134.585 399.284 132.857 400.883 131.474L398.268 128.448ZM399.187 127.676L398.289 128.43L400.862 131.492L401.76 130.738L399.187 127.676ZM417.307 126.313C415.077 124.211 412.472 122.782 409.264 122.925C406.152 123.063 402.873 124.668 399.209 127.657L401.738 130.756C405.12 127.996 407.58 127.004 409.441 126.921C411.206 126.843 412.809 127.57 414.563 129.224L417.307 126.313ZM417.878 126.874L417.337 126.342L414.533 129.194L415.073 129.726L417.878 126.874ZM418.424 127.45L417.93 126.927L415.022 129.673L415.515 130.196L418.424 127.45Z" fill="black"/>
<path d="M347 189.172L338.5 172.672L345.5 171.672L347 189.172Z" fill="#2C2C2C"/>
<path d="M348.5 257.672L296.5 293.672L344.5 267.672L348.5 257.672Z" fill="#292929"/>
<path d="M274.5 251.172L301.5 267.672C298.512 260.7 294.653 254.134 290.015 248.132L280 235.172L274.5 251.172Z" fill="#292929"/>
<g opacity="0.8">
<path d="M339.898 195.46C339.898 195.46 321.435 203.117 331.969 230.537" stroke="black" stroke-width="4" stroke-linecap="round" stroke-linejoin="round" style="mix-blend-mode:multiply"/>
</g>
<path fill-rule="evenodd" clip-rule="evenodd" d="M354.46 179.236C349.414 177.081 347.07 171.243 349.226 166.197L358.592 144.27C360.747 139.224 366.585 136.88 371.631 139.036C376.677 141.191 379.02 147.029 376.865 152.075L367.499 174.002C365.343 179.048 359.506 181.391 354.46 179.236Z" fill="#D0A0FF" stroke="black" stroke-width="4"/>
<path fill-rule="evenodd" clip-rule="evenodd" d="M337.757 171.858C332.711 169.702 330.367 163.865 332.523 158.819L341.889 136.891C344.044 131.845 349.882 129.502 354.928 131.657C359.973 133.812 362.317 139.65 360.162 144.696L350.795 166.624C348.64 171.67 342.802 174.013 337.757 171.858Z" fill="#D0A0FF" stroke="black" stroke-width="4"/>
<path fill-rule="evenodd" clip-rule="evenodd" d="M354.706 156.977C348.798 157.927 344.515 163.148 345.139 168.636L347.854 192.488C348.479 197.977 353.775 201.655 359.683 200.705C365.591 199.754 369.874 194.533 369.249 189.045L366.535 165.193C365.91 159.704 360.614 156.026 354.706 156.977Z" fill="#D0A0FF" stroke="black" stroke-width="4"/>
<path d="M392.5 428.172C392.333 424.505 388.001 419.759 383.5 422.672C375 428.172 385.139 453.344 401.5 435.672C417.861 418 429.867 361.057 377 325C353.817 309.189 301.403 295.447 254.001 300.172C211.501 304.172 97.9993 388.672 43.4993 343.172C-11.0007 297.672 59.6929 235.172 64.9978 255.172C71.4965 279.672 -8.00005 243.672 82 180.172" stroke="white" stroke-width="4" stroke-linecap="round"/>
<path d="M126.033 303.757C166.903 353.413 224.132 329.368 247.638 311.139C227.167 151.362 92.2588 110.857 27.3639 110.576C36.6205 153.879 63.9237 242.528 99.0837 250.697C143.034 260.907 158.164 294.053 126.033 303.757Z" fill="url(#paint0_linear_3_20470)" stroke="black" stroke-width="4"/>
<path d="M248.199 312.196C241.205 292.981 193.618 230.935 59.2305 136.462" stroke="black" stroke-width="4" stroke-linecap="round"/>
<path d="M218.256 269.989C203.831 261.17 164.124 243.373 120.696 242.733" stroke="black" stroke-width="4" stroke-linecap="round"/>
<path d="M253.998 365.023C263.135 321.895 322.418 237.394 486.449 244.412C436.012 354.058 428.336 439.583 253.998 365.023Z" fill="url(#paint1_linear_3_20470)" stroke="black" stroke-width="4"/>
<path d="M263.369 393.681C265.816 379.431 294.423 340.744 389.273 300" stroke="black" stroke-width="4" stroke-linecap="round"/>
<path d="M281.917 370.963C288.13 359.998 316.784 338.288 381.695 339.165" stroke="black" stroke-width="4" stroke-linecap="round"/>
<mask id="path-17-outside-1_3_20470" maskUnits="userSpaceOnUse" x="136.368" y="17.2652" width="123.717" height="94.0294" fill="black">
<rect fill="white" x="136.368" y="17.2652" width="123.717" height="94.0294"/>
<path fill-rule="evenodd" clip-rule="evenodd" d="M146.362 54.102C140.674 48.7069 140.055 39.8583 144.936 33.7233L156.399 32.921L156.934 40.5628L164.183 40.0554L164.54 45.1501L157.291 45.6575L157.826 53.2997L146.362 54.102ZM151.601 80.1791C145.913 74.7839 145.293 65.9353 150.174 59.8004L161.637 58.998L162.173 66.6471L170.319 66.1091L170.697 71.2038L162.529 71.7432L163.064 79.3767L151.601 80.1791ZM157.265 106.243C151.577 100.847 150.957 91.9988 155.838 85.8638L167.301 85.0615L167.838 92.7227L176.604 92.1437L176.982 97.2384L168.194 97.8188L168.728 105.44L157.265 106.243ZM230.103 84.09L230.46 89.1846L239.356 88.5619L239.891 96.2041L251.354 95.4018C256.235 89.2668 255.616 80.4183 249.927 75.0231L238.464 75.8254L238.999 83.4673L230.103 84.09ZM228.283 57.5623L228.749 62.6569L233.962 62.3775L234.5 70.0612L245.963 69.2588C250.844 63.1238 250.225 54.2753 244.537 48.8801L233.074 49.6825L233.605 57.277L228.283 57.5623ZM221.978 31.4465L222.444 36.5412L230.416 36.114L230.957 43.8538L242.42 43.0514C247.301 36.9165 246.682 28.0679 240.994 22.6727L229.531 23.4751L230.059 31.0135L221.978 31.4465Z"/>
</mask>
<path fill-rule="evenodd" clip-rule="evenodd" d="M146.362 54.102C140.674 48.7069 140.055 39.8583 144.936 33.7233L156.399 32.921L156.934 40.5628L164.183 40.0554L164.54 45.1501L157.291 45.6575L157.826 53.2997L146.362 54.102ZM151.601 80.1791C145.913 74.7839 145.293 65.9353 150.174 59.8004L161.637 58.998L162.173 66.6471L170.319 66.1091L170.697 71.2038L162.529 71.7432L163.064 79.3767L151.601 80.1791ZM157.265 106.243C151.577 100.847 150.957 91.9988 155.838 85.8638L167.301 85.0615L167.838 92.7227L176.604 92.1437L176.982 97.2384L168.194 97.8188L168.728 105.44L157.265 106.243ZM230.103 84.09L230.46 89.1846L239.356 88.5619L239.891 96.2041L251.354 95.4018C256.235 89.2668 255.616 80.4183 249.927 75.0231L238.464 75.8254L238.999 83.4673L230.103 84.09ZM228.283 57.5623L228.749 62.6569L233.962 62.3775L234.5 70.0612L245.963 69.2588C250.844 63.1238 250.225 54.2753 244.537 48.8801L233.074 49.6825L233.605 57.277L228.283 57.5623ZM221.978 31.4465L222.444 36.5412L230.416 36.114L230.957 43.8538L242.42 43.0514C247.301 36.9165 246.682 28.0679 240.994 22.6727L229.531 23.4751L230.059 31.0135L221.978 31.4465Z" fill="#2C2C2C"/>
<path d="M144.936 33.7233L144.657 29.7331L142.901 29.856L141.806 31.2329L144.936 33.7233ZM146.362 54.102L143.61 57.0042L144.886 58.2151L146.642 58.0923L146.362 54.102ZM156.399 32.921L160.389 32.6417L160.11 28.6514L156.12 28.9307L156.399 32.921ZM156.934 40.5628L152.944 40.8421L153.223 44.8323L157.213 44.553L156.934 40.5628ZM164.183 40.0554L168.174 39.7761L167.894 35.7858L163.904 36.0651L164.183 40.0554ZM164.54 45.1501L164.819 49.1403L168.81 48.861L168.53 44.8708L164.54 45.1501ZM157.291 45.6575L157.011 41.6672L153.021 41.9465L153.3 45.9368L157.291 45.6575ZM157.826 53.2997L158.105 57.2899L162.095 57.0106L161.816 53.0204L157.826 53.2997ZM150.174 59.8004L149.895 55.8101L148.14 55.933L147.044 57.3099L150.174 59.8004ZM151.601 80.1791L148.848 83.0812L150.125 84.2922L151.88 84.1693L151.601 80.1791ZM161.637 58.998L165.628 58.7187L165.348 54.7285L161.358 55.0078L161.637 58.998ZM162.173 66.6471L158.183 66.9264L158.461 70.901L162.436 70.6384L162.173 66.6471ZM170.319 66.1091L174.308 65.8132L174.014 61.8563L170.055 62.1178L170.319 66.1091ZM170.697 71.2038L170.96 75.1951L174.984 74.9293L174.686 70.9079L170.697 71.2038ZM162.529 71.7432L162.266 67.7519L158.259 68.0165L158.539 72.0225L162.529 71.7432ZM163.064 79.3767L163.343 83.3669L167.333 83.0876L167.054 79.0974L163.064 79.3767ZM155.838 85.8638L155.559 81.8736L153.804 81.9965L152.708 83.3734L155.838 85.8638ZM157.265 106.243L154.512 109.145L155.789 110.356L157.544 110.233L157.265 106.243ZM167.301 85.0615L171.292 84.7822L171.012 80.7919L167.022 81.0712L167.301 85.0615ZM167.838 92.7227L163.847 93.002L164.126 96.9766L168.101 96.714L167.838 92.7227ZM176.604 92.1437L180.593 91.8478L180.3 87.8909L176.341 88.1524L176.604 92.1437ZM176.982 97.2384L177.246 101.23L181.269 100.964L180.971 96.9425L176.982 97.2384ZM168.194 97.8188L167.931 93.8275L163.924 94.0921L164.204 98.0981L168.194 97.8188ZM168.728 105.44L169.007 109.43L172.997 109.151L172.718 105.161L168.728 105.44ZM230.46 89.1846L226.47 89.4639L226.749 93.4542L230.739 93.1749L230.46 89.1846ZM230.103 84.09L229.824 80.0997L225.834 80.379L226.113 84.3693L230.103 84.09ZM239.356 88.5619L243.346 88.2826L243.067 84.2924L239.077 84.5717L239.356 88.5619ZM239.891 96.2041L235.901 96.4834L236.18 100.474L240.17 100.194L239.891 96.2041ZM251.354 95.4018L251.633 99.392L253.389 99.2691L254.484 97.8922L251.354 95.4018ZM249.927 75.0231L252.68 72.1209L251.403 70.91L249.648 71.0328L249.927 75.0231ZM238.464 75.8254L238.185 71.8352L234.195 72.1145L234.474 76.1047L238.464 75.8254ZM238.999 83.4673L239.279 87.4575L243.269 87.1782L242.99 83.188L238.999 83.4673ZM228.749 62.6569L224.765 63.0211L225.116 66.8574L228.963 66.6512L228.749 62.6569ZM228.283 57.5623L228.069 53.568L223.922 53.7903L224.3 57.9264L228.283 57.5623ZM233.962 62.3775L237.953 62.0982L237.678 58.1727L233.748 58.3833L233.962 62.3775ZM234.5 70.0612L230.51 70.3405L230.789 74.3307L234.78 74.0514L234.5 70.0612ZM245.963 69.2588L246.243 73.2491L247.998 73.1262L249.093 71.7492L245.963 69.2588ZM244.537 48.8801L247.29 45.9779L246.013 44.767L244.258 44.8899L244.537 48.8801ZM233.074 49.6825L232.795 45.6923L228.804 45.9716L229.084 49.9618L233.074 49.6825ZM233.605 57.277L233.819 61.2713L237.88 61.0537L237.596 56.9977L233.605 57.277ZM222.444 36.5412L218.461 36.9054L218.811 40.7416L222.658 40.5355L222.444 36.5412ZM221.978 31.4465L221.764 27.4523L217.617 27.6745L217.995 31.8107L221.978 31.4465ZM230.416 36.114L234.406 35.8347L234.131 31.9091L230.201 32.1197L230.416 36.114ZM230.957 43.8538L226.967 44.1331L227.246 48.1233L231.237 47.844L230.957 43.8538ZM242.42 43.0514L242.7 47.0417L244.455 46.9188L245.55 45.5418L242.42 43.0514ZM240.994 22.6727L243.747 19.7706L242.47 18.5596L240.715 18.6825L240.994 22.6727ZM229.531 23.4751L229.252 19.4849L225.261 19.7642L225.541 23.7544L229.531 23.4751ZM230.059 31.0135L230.273 35.0078L234.333 34.7902L234.049 30.7342L230.059 31.0135ZM141.806 31.2329C135.633 38.9913 136.416 50.1814 143.61 57.0042L149.115 51.1998C144.932 47.2323 144.477 40.7253 148.066 36.2137L141.806 31.2329ZM156.12 28.9307L144.657 29.7331L145.215 37.7136L156.678 36.9112L156.12 28.9307ZM160.924 40.2835L160.389 32.6417L152.409 33.2003L152.944 40.8421L160.924 40.2835ZM163.904 36.0651L156.655 36.5726L157.213 44.553L164.463 44.0456L163.904 36.0651ZM168.53 44.8708L168.174 39.7761L160.193 40.3347L160.55 45.4294L168.53 44.8708ZM157.57 49.6477L164.819 49.1403L164.261 41.1598L157.011 41.6672L157.57 49.6477ZM161.816 53.0204L161.281 45.3782L153.3 45.9368L153.835 53.579L161.816 53.0204ZM146.642 58.0923L158.105 57.2899L157.546 49.3094L146.083 50.1118L146.642 58.0923ZM147.044 57.3099C140.871 65.0684 141.655 76.2584 148.848 83.0812L154.353 77.2769C150.17 73.3094 149.715 66.8023 153.305 62.2908L147.044 57.3099ZM161.358 55.0078L149.895 55.8101L150.454 63.7906L161.917 62.9882L161.358 55.0078ZM166.163 66.3678L165.628 58.7187L157.647 59.2773L158.183 66.9264L166.163 66.3678ZM170.055 62.1178L161.909 62.6558L162.436 70.6384L170.582 70.1004L170.055 62.1178ZM174.686 70.9079L174.308 65.8132L166.33 66.405L166.708 71.4997L174.686 70.9079ZM162.793 75.7345L170.96 75.1951L170.433 67.2125L162.266 67.7519L162.793 75.7345ZM167.054 79.0974L166.52 71.4639L158.539 72.0225L159.074 79.656L167.054 79.0974ZM151.88 84.1693L163.343 83.3669L162.784 75.3865L151.321 76.1888L151.88 84.1693ZM152.708 83.3734C146.536 91.1318 147.319 102.322 154.512 109.145L160.018 103.34C155.835 99.3728 155.379 92.8658 158.969 88.3543L152.708 83.3734ZM167.022 81.0712L155.559 81.8736L156.118 89.8541L167.581 89.0517L167.022 81.0712ZM171.828 92.4434L171.292 84.7822L163.311 85.3408L163.847 93.002L171.828 92.4434ZM176.341 88.1524L167.574 88.7314L168.101 96.714L176.868 96.135L176.341 88.1524ZM180.971 96.9425L180.593 91.8478L172.615 92.4396L172.993 97.5343L180.971 96.9425ZM168.458 101.81L177.246 101.23L176.719 93.2471L167.931 93.8275L168.458 101.81ZM172.718 105.161L172.185 97.5395L164.204 98.0981L164.738 105.719L172.718 105.161ZM157.544 110.233L169.007 109.43L168.449 101.45L156.986 102.252L157.544 110.233ZM234.45 88.9053L234.093 83.8107L226.113 84.3693L226.47 89.4639L234.45 88.9053ZM239.077 84.5717L230.18 85.1944L230.739 93.1749L239.635 92.5522L239.077 84.5717ZM243.881 95.9248L243.346 88.2826L235.366 88.8412L235.901 96.4834L243.881 95.9248ZM251.075 91.4115L239.612 92.2139L240.17 100.194L251.633 99.392L251.075 91.4115ZM247.175 77.9253C251.358 81.8928 251.813 88.3998 248.224 92.9114L254.484 97.8922C260.657 90.1338 259.874 78.9437 252.68 72.1209L247.175 77.9253ZM238.744 79.8157L250.207 79.0133L249.648 71.0328L238.185 71.8352L238.744 79.8157ZM242.99 83.188L242.455 75.5461L234.474 76.1047L235.009 83.7466L242.99 83.188ZM230.382 88.0802L239.279 87.4575L238.72 79.477L229.824 80.0997L230.382 88.0802ZM232.732 62.2928L232.266 57.1981L224.3 57.9264L224.765 63.0211L232.732 62.2928ZM233.748 58.3833L228.535 58.6627L228.963 66.6512L234.177 66.3718L233.748 58.3833ZM238.491 69.7819L237.953 62.0982L229.972 62.6568L230.51 70.3405L238.491 69.7819ZM245.684 65.2686L234.221 66.071L234.78 74.0514L246.243 73.2491L245.684 65.2686ZM241.784 51.7823C245.967 55.7498 246.423 62.2569 242.833 66.7684L249.093 71.7492C255.266 63.9908 254.483 52.8008 247.29 45.9779L241.784 51.7823ZM233.353 53.6727L244.816 52.8704L244.258 44.8899L232.795 45.6923L233.353 53.6727ZM237.596 56.9977L237.064 49.4032L229.084 49.9618L229.615 57.5563L237.596 56.9977ZM228.497 61.5565L233.819 61.2713L233.391 53.2828L228.069 53.568L228.497 61.5565ZM226.428 36.177L225.962 31.0824L217.995 31.8107L218.461 36.9054L226.428 36.177ZM230.201 32.1197L222.23 32.5469L222.658 40.5355L230.63 40.1083L230.201 32.1197ZM226.425 36.3933L226.967 44.1331L234.948 43.5745L234.406 35.8347L226.425 36.3933ZM231.237 47.844L242.7 47.0417L242.141 39.0612L230.678 39.8636L231.237 47.844ZM245.55 45.5418C251.723 37.7834 250.94 26.5934 243.747 19.7706L238.241 25.5749C242.424 29.5424 242.88 36.0495 239.29 40.561L245.55 45.5418ZM240.715 18.6825L229.252 19.4849L229.81 27.4653L241.273 26.663L240.715 18.6825ZM225.541 23.7544L226.068 31.2928L234.049 30.7342L233.521 23.1958L225.541 23.7544ZM222.192 35.4408L230.273 35.0078L229.844 27.0192L221.764 27.4523L222.192 35.4408Z" fill="black" mask="url(#path-17-outside-1_3_20470)"/>
<path fill-rule="evenodd" clip-rule="evenodd" d="M176.218 303.593L180.464 335.347C182.626 351.517 179.608 367.957 171.843 382.305C154.676 414.029 162.007 453.618 189.168 477.354C229.758 512.825 292.245 506.975 325.051 464.203L329.666 458.186C350.479 431.049 349.012 392.936 326.173 367.48C315.444 355.52 309.084 340.278 308.13 324.239L306.158 291.062C304.158 257.414 277.024 231.234 244.094 229.692L224.375 113.996C223.787 109.642 225.661 105.293 229.279 102.735L234.41 99.1079L222.246 16.7638C217.905 17.0677 213.831 14.6468 212.022 10.6886L210.495 7.3485L168.862 10.2626C162.623 10.6994 158.238 16.5911 159.61 22.6936L179.298 110.216L179.948 110.171C184.29 109.868 188.199 112.544 189.578 116.527L210.163 237.312C186.954 249.735 172.483 275.657 176.218 303.593Z" fill="#2C2C2C"/>
<path d="M180.464 335.347L182.446 335.082L180.464 335.347ZM176.218 303.593L178.201 303.328L178.201 303.328L176.218 303.593ZM171.843 382.305L173.602 383.257L173.602 383.257L171.843 382.305ZM189.168 477.354L187.852 478.86L189.168 477.354ZM325.051 464.203L323.464 462.986L323.464 462.986L325.051 464.203ZM329.666 458.186L331.253 459.403L331.253 459.403L329.666 458.186ZM326.173 367.48L324.685 368.815L326.173 367.48ZM308.13 324.239L310.127 324.121L308.13 324.239ZM306.158 291.062L304.162 291.181L306.158 291.062ZM244.094 229.692L242.122 230.028L242.392 231.614L244 231.69L244.094 229.692ZM224.375 113.996L222.393 114.263L222.398 114.298L222.404 114.332L224.375 113.996ZM229.279 102.735L230.433 104.369L230.433 104.369L229.279 102.735ZM234.41 99.1079L235.564 100.741L236.568 100.031L236.388 98.8156L234.41 99.1079ZM222.246 16.7638L224.225 16.4715L223.954 14.6394L222.107 14.7687L222.246 16.7638ZM212.022 10.6886L210.202 11.52L210.202 11.52L212.022 10.6886ZM210.495 7.3485L212.314 6.51713L211.738 5.25661L210.355 5.35339L210.495 7.3485ZM159.61 22.6936L161.562 22.2547L159.61 22.6936ZM179.298 110.216L177.347 110.655L177.724 112.331L179.437 112.211L179.298 110.216ZM179.948 110.171L180.087 112.166L180.087 112.166L179.948 110.171ZM189.578 116.527L191.55 116.191L191.522 116.029L191.468 115.873L189.578 116.527ZM210.163 237.312L211.107 239.076L212.377 238.396L212.135 236.976L210.163 237.312ZM182.446 335.082L178.201 303.328L174.236 303.858L178.481 335.612L182.446 335.082ZM173.602 383.257C181.568 368.537 184.664 351.671 182.446 335.082L178.481 335.612C180.587 351.363 177.648 367.377 170.084 381.353L173.602 383.257ZM190.484 475.848C164.02 452.721 156.885 414.151 173.602 383.257L170.084 381.353C152.468 413.908 159.994 454.515 187.852 478.86L190.484 475.848ZM323.464 462.986C291.37 504.831 230.215 510.568 190.484 475.848L187.852 478.86C229.3 515.081 293.121 509.12 326.638 465.42L323.464 462.986ZM328.079 456.969L323.464 462.986L326.638 465.42L331.253 459.403L328.079 456.969ZM324.685 368.815C346.88 393.555 348.306 430.596 328.079 456.969L331.253 459.403C352.652 431.503 351.143 392.317 327.662 366.144L324.685 368.815ZM306.134 324.358C307.114 340.848 313.653 356.519 324.685 368.815L327.662 366.144C317.235 354.521 311.053 339.708 310.127 324.121L306.134 324.358ZM304.162 291.181L306.134 324.358L310.127 324.121L308.155 290.943L304.162 291.181ZM244 231.69C275.919 233.185 302.223 258.564 304.162 291.181L308.155 290.943C306.093 256.264 278.128 229.284 244.187 227.694L244 231.69ZM246.065 229.356L226.347 113.66L222.404 114.332L242.122 230.028L246.065 229.356ZM226.357 113.728C225.869 110.109 227.426 106.495 230.433 104.369L228.124 101.102C223.895 104.092 221.706 109.174 222.393 114.263L226.357 113.728ZM230.433 104.369L235.564 100.741L233.255 97.4748L228.124 101.102L230.433 104.369ZM236.388 98.8156L224.225 16.4715L220.268 17.0561L232.431 99.4001L236.388 98.8156ZM222.107 14.7687C218.597 15.0144 215.303 13.0572 213.841 9.85726L210.202 11.52C212.358 16.2364 217.213 19.121 222.386 18.7589L222.107 14.7687ZM213.841 9.85726L212.314 6.51713L208.676 8.17985L210.202 11.52L213.841 9.85726ZM210.355 5.35339L168.723 8.26749L169.002 12.2577L210.635 9.34362L210.355 5.35339ZM168.723 8.26749C161.261 8.78976 156.018 15.8351 157.659 23.1325L161.562 22.2547C160.458 17.3471 163.984 12.609 169.002 12.2577L168.723 8.26749ZM157.659 23.1325L177.347 110.655L181.249 109.777L161.562 22.2547L157.659 23.1325ZM179.437 112.211L180.087 112.166L179.808 108.176L179.159 108.221L179.437 112.211ZM180.087 112.166C183.512 111.927 186.6 114.038 187.688 117.182L191.468 115.873C189.798 111.049 185.067 107.809 179.808 108.176L180.087 112.166ZM187.606 116.863L208.192 237.648L212.135 236.976L191.55 116.191L187.606 116.863ZM178.201 303.328C174.58 276.252 188.603 251.121 211.107 239.076L209.22 235.549C185.304 248.349 170.386 275.063 174.236 303.858L178.201 303.328Z" fill="black"/>
<ellipse cx="248.714" cy="364.327" rx="31.0684" ry="33.622" transform="rotate(-94.0039 248.714 364.327)" fill="black"/>
<path d="M171.064 41.2528L204.978 117.38L259.994 451.175" stroke="white"/>
<path d="M176.999 68.1717L198.669 118.67L254.493 451.175" stroke="white"/>
<path d="M183.495 95.6717L193.997 118.999L248.989 454.675" stroke="white"/>
<path d="M213.228 37.278L210.599 120.576L265.492 450.175" stroke="white"/>
<path d="M218.996 61.6719L216.931 119.387L271.992 449.675" stroke="white"/>
<path d="M222.496 86.6718L221.377 117.926L277.49 448.175" stroke="white"/>
<circle cx="189.669" cy="93.7009" r="7.23511" transform="rotate(-94.0039 189.669 93.7009)" fill="#FBE254"/>
<circle cx="215.63" cy="86.7661" r="7.23511" transform="rotate(-94.0039 215.63 86.7661)" fill="#FBE254"/>
<circle cx="183.724" cy="63.2783" r="7.23511" transform="rotate(-94.0039 183.724 63.2783)" fill="#FBE254"/>
<circle cx="212.154" cy="61.4141" r="7.23511" transform="rotate(-94.0039 212.154 61.4141)" fill="#FBE254"/>
<circle cx="178.724" cy="38.7232" r="7.23511" transform="rotate(-94.0039 178.724 38.7232)" fill="#FBE254"/>
<circle cx="207.822" cy="36.1201" r="7.23511" transform="rotate(-94.0039 207.822 36.1201)" fill="#FBE254"/>
<rect x="241.492" y="449.814" width="42" height="10" rx="1" transform="rotate(-8.44666 241.492 449.814)" fill="#FBE254"/>
<path d="M420.071 29.5087C420.174 28.5628 421.455 28.3497 421.858 29.2116L428.936 44.3492C429.075 44.6469 429.36 44.8504 429.687 44.8858L446.3 46.6847C447.246 46.7872 447.459 48.0686 446.597 48.4715L431.46 55.5497C431.162 55.6889 430.959 55.9735 430.923 56.3003L429.124 72.9139C429.022 73.8597 427.74 74.0728 427.337 73.211L420.259 58.0734C420.12 57.7756 419.835 57.5721 419.509 57.5368L402.895 55.7378C401.949 55.6354 401.736 54.354 402.598 53.951L417.736 46.8729C418.033 46.7336 418.237 46.449 418.272 46.1222L420.071 29.5087Z" fill="#FBE254"/>
<path d="M79.6934 413.744C79.8023 412.738 81.1649 412.511 81.5934 413.428L86.8407 424.65C86.9888 424.966 87.2914 425.183 87.6389 425.22L99.9552 426.554C100.961 426.663 101.188 428.026 100.271 428.454L89.0491 433.701C88.7324 433.849 88.5161 434.152 88.4784 434.5L87.1448 446.816C87.0359 447.822 85.6733 448.048 85.2447 447.132L79.9974 435.91C79.8494 435.593 79.5467 435.377 79.1992 435.339L66.8829 434.005C65.8771 433.897 65.6506 432.534 66.567 432.105L77.7891 426.858C78.1057 426.71 78.3221 426.407 78.3597 426.06L79.6934 413.744Z" fill="#FBE254"/>
<path d="M456.203 66.6683C456.695 65.8545 457.947 66.2033 457.947 67.1547L457.954 75.7032C457.954 76.0319 458.126 76.3366 458.407 76.5069L465.72 80.9347C466.534 81.4275 466.185 82.6788 465.233 82.6795L456.685 82.6861C456.356 82.6864 456.051 82.8583 455.881 83.1394L451.453 90.4519C450.961 91.2657 449.709 90.9169 449.708 89.9655L449.702 81.417C449.702 81.0883 449.53 80.7836 449.249 80.6133L441.936 76.1855C441.122 75.6927 441.471 74.4414 442.422 74.4407L450.971 74.434C451.3 74.4338 451.604 74.2619 451.775 73.9807L456.203 66.6683Z" fill="#FBE254"/>
<path d="M54.8334 410.37C55.3575 409.504 56.688 409.875 56.6888 410.887L56.6939 417.403C56.6942 417.752 56.8769 418.076 57.1759 418.257L62.7496 421.632C63.615 422.156 63.2441 423.487 62.2324 423.488L55.7166 423.493C55.367 423.493 55.043 423.676 54.8619 423.975L51.4869 429.548C50.9629 430.414 49.6323 430.043 49.6315 429.031L49.6265 422.515C49.6262 422.166 49.4435 421.842 49.1445 421.661L43.5708 418.286C42.7054 417.762 43.0763 416.431 44.088 416.43L50.6038 416.425C50.9534 416.425 51.2774 416.242 51.4584 415.943L54.8334 410.37Z" fill="#FBE254"/>
<defs>
<linearGradient id="paint0_linear_3_20470" x1="41.6043" y1="287.959" x2="203.394" y2="395.345" gradientUnits="userSpaceOnUse">
<stop stop-color="#5BD576"/>
<stop offset="1" stop-color="#57A943"/>
</linearGradient>
<linearGradient id="paint1_linear_3_20470" x1="357.992" y1="336.996" x2="323.992" y2="444.996" gradientUnits="userSpaceOnUse">
<stop stop-color="#5BD576"/>
<stop offset="1" stop-color="#57A943"/>
</linearGradient>
</defs>
</svg>
