<svg width="17" height="17" viewBox="0 0 17 17" fill="none" xmlns="http://www.w3.org/2000/svg">
<path fill-rule="evenodd" clip-rule="evenodd" d="M8.49998 0.875046C6.3273 0.875046 6.05487 0.884255 5.20159 0.923188C4.35008 0.962025 3.76854 1.09727 3.25968 1.29505C2.73361 1.49946 2.28748 1.77301 1.8427 2.21775C1.39796 2.66252 1.12442 3.10866 0.920003 3.63473C0.722228 4.14358 0.586979 4.72513 0.548142 5.57663C0.509209 6.42991 0.5 6.70235 0.5 8.87502C0.5 11.0477 0.509209 11.3201 0.548142 12.1734C0.586979 13.0249 0.722228 13.6064 0.920003 14.1153C1.12442 14.6413 1.39796 15.0875 1.8427 15.5323C2.28748 15.977 2.73361 16.2505 3.25968 16.455C3.76854 16.6527 4.35008 16.788 5.20159 16.8268C6.05487 16.8658 6.3273 16.875 8.49998 16.875C10.6726 16.875 10.9451 16.8658 11.7983 16.8268C12.6498 16.788 13.2314 16.6527 13.7402 16.455C14.2663 16.2505 14.7124 15.977 15.1572 15.5323C15.602 15.0875 15.8755 14.6413 16.0799 14.1153C16.2777 13.6064 16.4129 13.0249 16.4518 12.1734C16.4907 11.3201 16.4999 11.0477 16.4999 8.87502C16.4999 6.70235 16.4907 6.42991 16.4518 5.57663C16.4129 4.72513 16.2777 4.14358 16.0799 3.63473C15.8755 3.10866 15.602 2.66252 15.1572 2.21775C14.7124 1.77301 14.2663 1.49946 13.7402 1.29505C13.2314 1.09727 12.6498 0.962025 11.7983 0.923188C10.9451 0.884255 10.6726 0.875046 8.49998 0.875046ZM8.49994 2.31644C10.636 2.31644 10.889 2.32461 11.7326 2.36309C12.5126 2.39866 12.9362 2.52899 13.2181 2.63854C13.5915 2.78367 13.858 2.95702 14.1379 3.23698C14.4179 3.51691 14.5912 3.78341 14.7364 4.15683C14.8459 4.43872 14.9762 4.86231 15.0118 5.6423C15.0503 6.48587 15.0585 6.7389 15.0585 8.87499C15.0585 11.011 15.0503 11.2641 15.0118 12.1076C14.9762 12.8876 14.8459 13.3112 14.7364 13.5931C14.5912 13.9665 14.4179 14.233 14.1379 14.513C13.858 14.7929 13.5915 14.9663 13.2181 15.1114C12.9362 15.221 12.5126 15.3513 11.7326 15.3868C10.8892 15.4253 10.6362 15.4335 8.49994 15.4335C6.36369 15.4335 6.11073 15.4253 5.26726 15.3868C4.48727 15.3513 4.06368 15.221 3.78178 15.1114C3.40836 14.9663 3.14187 14.7929 2.86194 14.513C2.58201 14.233 2.40862 13.9665 2.2635 13.5931C2.15394 13.3112 2.02361 12.8876 1.98805 12.1076C1.94956 11.2641 1.9414 11.011 1.9414 8.87499C1.9414 6.7389 1.94956 6.48587 1.98805 5.6423C2.02361 4.86231 2.15394 4.43872 2.2635 4.15683C2.40862 3.78341 2.58198 3.51691 2.86194 3.23698C3.14187 2.95702 3.40836 2.78367 3.78178 2.63854C4.06368 2.52899 4.48727 2.39866 5.26726 2.36309C6.11082 2.32461 6.36385 2.31644 8.49994 2.31644ZM4.39138 8.87498C4.39138 6.60612 6.23062 4.76688 8.49948 4.76688C10.7683 4.76688 12.6075 6.60612 12.6075 8.87498C12.6075 11.1438 10.7683 12.9831 8.49948 12.9831C6.23062 12.9831 4.39138 11.1438 4.39138 8.87498ZM8.49875 11.5417C7.02598 11.5417 5.83208 10.3478 5.83208 8.87508C5.83208 7.40231 7.02598 6.20841 8.49875 6.20841C9.97149 6.20841 11.1654 7.40231 11.1654 8.87508C11.1654 10.3478 9.97149 11.5417 8.49875 11.5417ZM12.7679 5.56461C13.2981 5.56461 13.7279 5.13483 13.7279 4.60463C13.7279 4.07444 13.2981 3.64462 12.7679 3.64462C12.2377 3.64462 11.8079 4.07444 11.8079 4.60463C11.8079 5.13483 12.2377 5.56461 12.7679 5.56461Z" fill="white"/>
</svg>
