<svg width="87" height="38" viewBox="0 0 87 38" fill="none" xmlns="http://www.w3.org/2000/svg">
<path opacity="0.4" fill-rule="evenodd" clip-rule="evenodd" d="M37.6489 16.5693C37.6489 16.4585 37.6554 16.3491 37.6679 16.2416L36.3536 16.9012C37.022 17.1318 37.5982 17.5132 38.0767 18.0447C37.8101 17.6147 37.6489 17.1119 37.6489 16.5693ZM42.6398 14.863C43.2075 13.8523 44.294 12.786 45.7468 12.6761C45.7113 12.535 45.6895 12.382 45.6778 12.2234L41.8375 14.1497C42.1477 14.334 42.4196 14.5775 42.6398 14.863ZM31.2555 31.8703C30.4493 30.944 30.1218 29.6985 30.1218 28.1677L30.0534 25.6901C29.7963 26.2248 29.4631 26.7302 29.0358 27.1717C26.9803 29.2958 25.2895 29.437 23.7443 29.566C23.638 29.5749 23.5324 29.5837 23.4274 29.5931L23.4225 29.5935L23.4224 29.5935C23.0324 29.6285 22.6608 29.6618 22.3011 29.7179C22.0513 29.9761 21.6085 30.7177 21.2751 31.2761L21.2692 31.2859C20.1184 33.215 18.3793 36.13 15.1488 37.4662C14.3048 37.8152 13.2988 38 12.2391 38C8.5657 37.9995 4.16386 35.69 2.68867 29.2617C2.56055 29.1819 2.43849 29.09 2.33209 28.9741C1.39757 27.9543 0.709685 22.773 0.852881 21.0475C0.96102 19.9586 1.1759 18.726 1.96657 17.6438C3.41168 15.5799 5.80769 14.4754 8.87725 14.4754C9.12407 14.4754 9.37341 14.4824 9.62336 14.4957C10.315 14.5327 11.1157 14.6372 11.891 14.7384L11.9021 14.7398C12.7644 14.8523 13.6563 14.9686 14.2372 14.9686C14.3759 14.9686 14.4595 14.9619 14.5029 14.9567C14.7961 14.79 15.2541 14.2005 15.6265 13.7213L15.6274 13.7201C16.1042 13.1063 16.6449 12.4104 17.338 11.8176C18.2912 10.9897 19.605 10.5296 21.0285 10.5296C21.2733 10.5296 21.521 10.5434 21.7647 10.5709C24.0616 10.8274 26.1478 12.0904 27.6716 14.1001L42.952 6.76615C42.7696 6.63589 42.6201 6.51167 42.5264 6.40663C42.1968 6.03696 42.0439 5.57462 42.0963 5.1049C42.2321 3.88407 43.8851 3.05252 44.7062 2.89562C45.3829 1.93987 47.0835 1.38358 47.2406 1.35991L47.3569 1.34232L47.3852 1.34207C48.1026 0.446997 49.7246 0.049814 49.743 0.0457421C49.8857 0.0153421 50.0274 0 50.165 0C50.8403 0 51.7006 0.396034 51.9135 1.50798C52.4742 1.59319 53.5342 2.14096 56.5145 5.68261C57.1017 6.38024 57.0338 7.0644 56.9412 7.40995C56.8594 7.71468 56.711 7.94937 56.5406 8.13937C56.6772 8.31135 56.7857 8.49689 56.8437 8.69975C56.9857 9.19699 56.8846 9.72558 56.5653 10.1503C55.9966 10.907 54.2345 11.5708 53.4708 11.5708C53.4531 11.5708 53.4361 11.5685 53.4191 11.5662C53.4058 11.5645 53.3925 11.5627 53.3789 11.562C53.2467 11.6916 53.0987 11.8073 52.9255 11.8927C51.162 12.8209 50.568 12.8259 50.3442 12.8259C50.3144 12.8259 50.2854 12.8234 50.2563 12.8208C50.2436 12.8197 50.231 12.8186 50.2183 12.8178C50.0602 12.9891 49.8471 13.153 49.558 13.281L49.4755 13.3182C48.996 13.5345 48.603 13.6992 48.2607 13.8079C48.6155 14.2832 48.8258 14.8735 48.8258 15.5119C48.8258 15.9434 48.7174 16.3635 48.5268 16.7451L48.592 16.7363L48.592 16.7363C48.6906 16.7228 48.7891 16.7094 48.8901 16.7094C49.3753 16.7094 49.8304 16.8305 50.2268 17.0455C50.5568 16.9254 50.9199 16.8574 51.3129 16.8574C51.6283 16.8574 51.9458 16.9149 52.2569 17.028C52.4087 17.0837 52.552 17.1539 52.6893 17.2326C53.2701 16.7966 53.9522 16.5609 54.6981 16.5609C55.349 16.5609 55.9227 16.7056 56.4121 16.9337C56.7577 16.7802 57.1374 16.6957 57.5312 16.6957C58.5178 16.6957 59.3813 17.2158 59.878 17.9943C60.4954 17.3297 61.5252 16.6375 63.1521 16.6375C64.1435 16.6375 64.9981 16.8752 65.7127 17.335L65.7132 15.6297C65.7148 14.0833 66.9668 12.8263 68.5042 12.8263C70.0438 12.8263 71.2963 14.0841 71.2963 15.6302V16.9366C71.6333 16.7911 72.0031 16.7094 72.3917 16.7094C73.1771 16.7094 73.8881 17.0369 74.3957 17.563C74.8998 17.0369 75.605 16.7094 76.3847 16.7094C76.7149 16.7094 77.027 16.7773 77.3214 16.8833V15.6297C77.3214 14.0841 78.5827 12.8263 80.1337 12.8263C81.6728 12.8263 82.9247 14.0841 82.9247 15.6302V16.5837L83.0517 16.5819C84.3296 16.5819 85.3984 17.2195 86.061 18.3775C86.5817 19.2894 86.834 20.4838 86.834 22.0302V27.7514C86.834 29.2613 86.5412 31.4111 85.2237 32.421C84.4861 32.9863 83.758 33.3666 82.9076 33.3666C82.2813 33.3666 81.7565 33.2579 81.3206 33.0918C80.9549 33.2684 80.5478 33.3666 80.1227 33.3666C79.1471 33.3666 78.2873 32.8551 77.7827 32.0777C76.9521 32.9063 75.7766 33.3603 74.314 33.3603C72.5856 33.3603 71.5251 32.6263 70.9129 31.956C70.4235 32.7977 69.5227 33.3687 68.5068 33.3687C67.6003 33.3687 66.7759 32.9053 66.2594 32.1995C66.1054 32.3473 65.9416 32.4831 65.7674 32.6059C65.0548 33.107 64.2179 33.3603 63.2791 33.3603C61.8784 33.3603 60.744 32.91 59.8962 32.0333C59.4031 32.83 58.5309 33.3656 57.5306 33.3656C57.0748 33.3656 56.6444 33.2569 56.2645 33.0626C55.7604 33.2621 55.2026 33.3687 54.618 33.3687C53.5665 33.3687 52.811 32.8055 52.4482 32.5344C52.0116 32.2073 51.7253 31.8421 51.5185 31.4795C51.1337 32.5688 50.1048 33.3603 48.8989 33.3603C48.0821 33.3603 47.3539 33.0072 46.84 32.4513C46.3313 33.0077 45.6076 33.3603 44.791 33.3603C43.9127 33.3603 43.1294 32.9341 42.6156 32.2846C42.1019 32.9341 41.3184 33.3603 40.4404 33.3603C39.3913 33.3603 38.4941 32.7841 38.0177 31.9299C37.7961 32.1832 37.5563 32.4152 37.284 32.6065C36.573 33.107 35.7361 33.3603 34.7973 33.3603C33.3095 33.3603 32.1179 32.8593 31.2555 31.8703ZM40.394 17.6098C39.8649 17.6098 39.4111 17.1533 39.4111 16.5593C39.4111 16.0272 39.8649 15.5707 40.394 15.5707C40.9845 15.5707 41.4383 16.0272 41.4383 16.5593C41.4383 17.1533 40.9845 17.6098 40.394 17.6098ZM16.8668 25.5805C15.1384 25.1377 14.1253 23.3776 14.594 21.6878C15.0342 19.9492 16.7841 18.9302 18.464 19.4016C20.1924 19.8444 21.2055 21.6046 20.7368 23.2943C20.2966 25.0329 18.5468 26.0519 16.8668 25.5805ZM39.4111 30.5236V19.4634C39.4111 18.9308 39.8649 18.4748 40.394 18.4748C40.9845 18.4748 41.4383 18.9308 41.4383 19.4634V30.5236C41.4383 31.0562 40.9845 31.5122 40.394 31.5122C39.8649 31.5122 39.4111 31.0562 39.4111 30.5236ZM46.1683 18.5984C46.6059 18.586 46.9668 18.9493 46.9668 19.4016C46.9668 19.7832 46.7504 20.1798 46.2297 20.2049C46.104 20.1798 45.7254 20.1884 45.7383 20.2049V30.6472C45.7086 31.1482 45.3181 31.574 44.8168 31.574C44.257 31.574 43.8263 31.1597 43.834 30.6472V20.2049H43.4654C43.0277 20.1983 42.6668 19.8628 42.6668 19.4016C42.6668 18.9642 43.0688 18.586 43.5268 18.5984H43.834V17.9187C43.8147 17.0936 43.901 16.4257 44.1411 15.9415C44.3663 15.4518 45.0249 14.5203 45.9226 14.5203C46.5087 14.5203 46.9651 14.9801 46.9668 15.5707C46.9651 15.9902 46.6277 16.3674 46.2911 16.4976C45.7767 16.7221 45.7332 17.2028 45.7383 17.6715V18.5984H46.1683ZM63.184 18.4748C64.0727 18.4748 64.7673 18.7525 65.2726 19.3398C65.7588 19.8939 66.0097 20.7193 66.0097 21.7496C66.0097 21.7764 66.0087 21.7764 66.0097 22.6146C66.0045 23.1683 65.5592 23.6046 65.0268 23.6033C64.5072 23.6046 64.0487 23.207 64.044 22.6764C64.0455 22.6849 64.0446 22.4828 64.0435 22.2441V22.243V22.242V22.2413C64.0419 21.9116 64.0401 21.5133 64.044 21.5024C64.0372 20.4122 63.5548 20.179 63.184 20.2049C62.4074 20.179 62.228 20.9704 62.2011 21.2553V28.5463C62.228 28.9251 62.3093 29.2275 62.4468 29.4732C62.6473 29.7359 62.895 29.8698 63.184 29.8439C63.3529 29.8698 63.6314 29.7966 63.8597 29.4114C64.0007 29.1877 64.0456 28.8593 64.044 28.4846C64.0448 28.4732 64.0446 28.2938 64.0443 28.0514V28.0484V28.0445C64.0441 27.843 64.0438 27.5991 64.044 27.3724C64.0435 26.8318 64.4821 26.3924 65.0268 26.3837C65.5633 26.3924 66.0014 26.8318 66.0097 27.3724V27.9285C66.0097 28.674 65.9169 29.331 65.7026 29.9057C65.4662 30.442 65.1398 30.8647 64.7197 31.1415C64.3335 31.4307 63.8453 31.574 63.3068 31.574C62.3233 31.574 61.5746 31.2884 61.034 30.7089C60.5545 30.1188 60.2968 29.2756 60.2968 28.1756V21.9967C60.2968 20.8909 60.5493 20.0053 61.034 19.4016C61.5434 18.774 62.2561 18.4748 63.184 18.4748ZM34.6811 18.4748C35.5729 18.4748 36.2642 18.7525 36.7697 19.3398C37.2559 19.8939 37.5068 20.7193 37.5068 21.7496C37.5068 21.7764 37.5061 21.777 37.5068 22.6146C37.5013 23.1683 37.0599 23.6046 36.524 23.6033C36.0077 23.6046 35.549 23.207 35.5411 22.6764C35.5451 22.6882 35.5433 22.2864 35.5418 21.9497V21.9492C35.5407 21.7137 35.5398 21.5101 35.5411 21.5024C35.538 20.4122 35.0522 20.1795 34.6811 20.2049C33.9048 20.1795 33.7251 20.9704 33.6983 21.2553V28.5463C33.7251 28.9251 33.8065 29.2275 33.944 29.4732C34.1442 29.7359 34.3952 29.8698 34.6811 29.8439C34.8532 29.8698 35.1322 29.7966 35.3568 29.4114C35.5015 29.1877 35.5458 28.8593 35.5411 28.4846C35.5458 28.4638 35.5442 27.8759 35.5411 27.3724C35.5442 26.8318 35.9826 26.3924 36.524 26.3837C37.0638 26.3924 37.5019 26.8318 37.5068 27.3724V27.9285C37.5068 28.674 37.4137 29.331 37.1997 29.9057C36.9637 30.442 36.6405 30.8647 36.2168 31.1415C35.834 31.4307 35.3457 31.574 34.804 31.574C33.8241 31.574 33.0721 31.2884 32.5311 30.7089C32.0517 30.1188 31.794 29.2756 31.794 28.1756V21.9967C31.794 20.8909 32.0464 20.0053 32.5311 19.4016C33.0405 18.774 33.7565 18.4748 34.6811 18.4748ZM82.964 18.4748C83.6231 18.4677 84.1169 18.7564 84.4383 19.3398C84.8123 19.9726 84.9911 20.8974 84.9911 22.1203V27.8049C84.9911 28.6124 84.9014 29.2991 84.7454 29.8439C84.5485 30.4342 84.3029 30.867 84.0083 31.1415C83.6601 31.4537 83.3041 31.6358 82.9026 31.6358C81.6542 31.6358 81.1855 30.9816 81.0597 30.7707C80.9958 31.2647 80.587 31.6358 80.0768 31.6358C79.5778 31.6358 79.1514 31.2276 79.094 30.7089C79.0929 30.7164 79.0934 26.545 79.0939 22.5978V22.5778V22.5648V22.5591V22.5507C79.0943 19.0254 79.0948 15.6931 79.094 15.6943C79.0956 15.1481 79.5282 14.7057 80.0768 14.7057C80.6104 14.7057 81.0504 15.1481 81.0597 15.6943V19.6468C81.0596 19.6477 81.0596 19.6483 81.0597 19.6488V19.6468C81.0688 19.5855 81.6953 18.4678 82.964 18.4748ZM56.6726 19.278C56.8075 18.8425 57.22 18.5477 57.6554 18.5366C58.1977 18.5477 58.6383 18.9881 58.6383 19.5252V30.5854C58.6383 31.1307 58.1982 31.5709 57.6554 31.574C57.1251 31.5709 56.6713 31.1516 56.6726 30.6472C56.668 30.6437 56.6526 30.6631 56.6246 30.6984L56.6246 30.6984C56.4697 30.8934 55.9291 31.574 54.7068 31.574C54.2891 31.574 53.9316 31.3353 53.6011 31.0797C53.2964 30.8623 53.1067 30.5908 52.9254 30.1528C52.7668 29.6644 52.6797 29.1047 52.6797 28.4846V21.9967C52.6797 20.893 52.8801 20.0126 53.294 19.3398C53.6589 18.7208 54.1696 18.413 54.7683 18.413C55.8927 18.413 56.4584 19.1363 56.6222 19.3457C56.6518 19.3836 56.6683 19.4047 56.6726 19.4016V19.278ZM51.622 18.7196L51.6354 18.722C52.0501 18.8912 52.3111 19.2619 52.3111 19.6488C52.3111 20.1319 51.9967 20.5266 51.574 20.6374L51.5619 20.6387C51.461 20.6497 51.3927 20.6572 51.3283 20.6374C50.7233 20.658 49.8833 21.4778 49.854 22.8V30.5854C49.872 31.1421 49.436 31.574 48.8711 31.574C48.3687 31.574 47.9186 31.1563 47.8883 30.6472C47.8836 30.6308 47.8859 27.7764 47.8882 24.9638V24.9629V24.9623V24.9594V24.9552C47.8904 22.2265 47.8925 19.5399 47.8883 19.5252C47.8935 18.9834 48.3333 18.5366 48.8711 18.5366C49.4236 18.5366 49.8596 18.9614 49.854 19.5252V19.8341C49.8566 19.8352 49.8649 19.8167 49.8798 19.7837C49.9796 19.5617 50.3753 18.6818 51.3283 18.6602C51.4178 18.6839 51.5276 18.7031 51.622 18.7196ZM68.5283 14.7057C69.051 14.7057 69.5111 15.3488 69.5111 15.8797L69.5111 15.9147C69.5104 16.7084 69.4989 30.7299 69.5111 30.7089C69.4525 31.2334 69.0249 31.6358 68.5283 31.6358C68.0223 31.6358 67.484 31.3165 67.484 30.7707V15.8179C67.484 15.2199 67.9869 14.7057 68.5283 14.7057ZM74.3026 31.5122H74.2411C72.7631 31.5122 71.354 30.7422 71.354 28.7935V19.5252C71.3561 18.9774 71.8044 18.5366 72.3368 18.5366C72.8845 18.5366 73.3606 18.9774 73.3811 19.5252V28.361C73.3606 29.6446 73.8605 29.8434 74.4254 29.8439C74.869 29.8434 75.4065 29.59 75.4083 28.361V19.5252C75.4065 18.9774 75.8531 18.5366 76.3911 18.5366C76.9343 18.5366 77.374 18.9774 77.374 19.5252V28.8553C77.374 30.3318 76.375 31.5122 74.3026 31.5122ZM47.4583 10.4423C47.5682 10.1436 49.1682 11.276 49.2397 11.3691L49.2499 11.3818C49.3499 11.5055 49.4727 11.6575 49.1783 11.8016C49.1277 11.8217 49.0519 11.8532 48.9593 11.8918L48.9592 11.8918C48.4706 12.0953 47.5151 12.4932 47.3354 12.4195C47.0781 12.3102 47.3109 10.7071 47.4583 10.4423ZM9.18827 17.1772C7.8131 17.0856 5.9233 17.5939 4.76541 18.5984C2.78306 20.381 3.25686 24.6494 3.4887 26.738C3.567 27.4434 3.6177 27.9001 3.53684 27.9285C3.19293 28.0369 2.21956 23.2206 2.3697 21.1935C2.48113 20.2537 2.64915 19.3313 3.2297 18.5984C4.64348 16.5189 7.00985 15.9322 9.49541 16.065C10.1434 16.0997 10.9207 16.2013 11.6918 16.3022L11.6919 16.3022H11.6919C13.0956 16.4858 14.4787 16.6667 15.024 16.4358C15.6858 16.1518 16.2271 15.4637 16.8141 14.7177L16.8141 14.7177L16.8141 14.7176C17.2698 14.1386 17.7528 13.5245 18.3411 13.0374C19.1977 12.2581 20.4308 12.0128 21.5354 12.1106C24.5957 12.4781 26.3117 14.8563 27.0026 16.0033L44.0183 7.84715C44.286 7.73529 44.6196 8.45436 44.3254 8.58862C44.1528 8.72247 33.5858 13.7675 26.898 16.9605L26.8975 16.9607L26.8968 16.961C23.938 18.3737 21.7388 19.4237 21.5354 19.5252C21.243 19.6913 20.8286 18.9399 21.1668 18.7837L26.0811 16.4358C25.3665 15.2906 23.8346 12.8868 20.8597 13.3463C19.5078 13.5679 18.5553 14.6635 17.6527 15.7016C16.9276 16.5357 16.2346 17.3328 15.3926 17.6098C14.3796 17.9272 12.2822 17.6146 10.6812 17.376L10.6811 17.376C10.0889 17.2878 9.56464 17.2096 9.18827 17.1772ZM47.5197 2.78049C47.7583 2.74146 47.9523 4.27842 47.9497 4.51057C47.945 4.75549 47.8758 4.86618 47.6426 4.81951C47.453 4.74102 45.9221 3.84786 45.984 3.64553C46.0516 3.46928 47.2352 2.82055 47.5197 2.78049ZM43.5268 5.31382C43.5545 5.05838 44.8197 4.41705 44.9397 4.44878C45.1876 4.50326 45.6523 6.2034 45.554 6.30244C45.4186 6.38844 43.5024 5.51966 43.5268 5.31382ZM50.3271 1.55431C50.333 1.57227 50.3389 1.58991 50.3454 1.6065C50.4482 2.28441 50.4269 3.09322 50.284 3.21301C50.1726 3.31603 48.4934 2.28579 48.564 2.10081C48.6409 1.90702 49.7406 1.42887 50.0383 1.35935C50.2489 1.31985 50.29 1.44315 50.3271 1.55431ZM50.5911 9.33008C50.7864 9.22772 52.3881 10.1553 52.434 10.3187C52.5185 10.4095 52.5077 10.5037 52.3726 10.5659C51.7794 10.8798 50.3531 11.3962 50.2226 11.1837C50.1481 11.0112 50.3441 9.45015 50.5911 9.33008ZM42.4574 12.1208C37.6198 14.5485 28.5872 19.0814 28.5997 19.0927C29.749 21.7398 29.1915 24.7234 27.8626 26.1366C26.3345 27.7892 24.8234 27.9253 23.276 28.0647H23.276C22.8021 28.1074 22.3248 28.1504 21.8426 28.2374C21.2044 28.3509 20.6399 29.2944 19.9125 30.51C18.7926 32.3817 17.2868 34.8983 14.5326 36.0228C11.9663 37.107 5.65065 36.5852 3.96684 28.6699C3.91044 28.3647 4.29693 28.3498 4.33541 28.6699C5.01797 31.6014 7.63865 34.8902 12.3211 34.9106C15.9276 34.8904 17.1633 32.6412 19.3532 28.655L19.4468 28.4846C20.1973 27.1139 21.3205 26.754 22.764 26.8163C24.7974 26.8949 29.7512 24.807 27.494 19.5252C27.4817 19.5133 22.7377 21.8719 22.5183 21.9967C22.308 22.0755 21.7959 21.2897 22.0883 21.1317L45.0626 9.88618C45.2892 9.78978 45.6687 10.5109 45.4311 10.6276C45.364 10.6621 44.1754 11.2586 42.4579 12.1205L42.4574 12.1208ZM55.2597 9.14472C55.272 9.54897 53.4443 10.3676 53.2326 10.1333C53.0628 9.95684 53.2403 8.62484 53.4168 8.46504C53.5801 8.35521 55.2473 8.78488 55.2597 9.14472ZM51.3897 2.90406C51.7314 2.65735 54.8943 6.19553 55.1983 6.54959C55.4761 6.88868 55.2608 7.20711 54.8911 7.35285C54.9012 7.34186 51.9549 8.28348 49.52 9.06167C47.8639 9.59096 46.4444 10.0446 46.3526 10.0715C46.0617 10.1523 45.8214 9.52011 46.1068 9.39187C46.2502 9.36175 53.1586 6.67165 53.3554 6.54959C53.6129 6.41896 51.4157 4.29169 51.0211 4.57236C50.8237 4.70108 49.8274 5.2833 48.7326 5.92309L48.7317 5.92358L48.7315 5.92369C47.2858 6.76856 45.6687 7.71358 45.4926 7.84715C45.1138 8.05402 44.8127 7.44177 45.0011 7.29106C45.0774 7.23244 46.0458 6.57204 47.2072 5.78005C48.9872 4.56616 51.2206 3.04315 51.3897 2.90406ZM55.5668 29.9057C55.7739 29.9057 55.9846 29.7947 56.2426 29.5967C56.4902 29.2943 56.6111 29.0415 56.6111 28.7935V20.761C56.3114 20.3584 55.9236 20.1431 55.5668 20.1431C55.1163 20.1431 54.584 20.4084 54.584 21.6878V28.6699C54.584 29.0321 54.6639 29.3214 54.8297 29.535C54.9892 29.7801 55.2673 29.9057 55.5668 29.9057ZM15.6383 22.3675C15.6383 21.1528 16.6421 20.1431 17.8497 20.1431C19.1187 20.1431 20.1226 21.1528 20.1226 22.3675C20.1226 23.6439 19.1187 24.6537 17.8497 24.6537C16.6421 24.6537 15.6383 23.6439 15.6383 22.3675ZM82.104 29.8439C82.5271 29.8439 83.0868 29.6114 83.0868 28.4846V21.4407C83.0868 20.3678 82.5959 20.1431 82.2268 20.1431C81.459 20.1431 81.0597 21.0169 81.0597 21.2553V28.9171C81.0597 29.1604 81.3498 29.8439 82.104 29.8439Z" fill="white"/>
</svg>
