<svg width="93" height="12" viewBox="0 0 93 12" fill="none" xmlns="http://www.w3.org/2000/svg">
<g opacity="0.4">
<path fill-rule="evenodd" clip-rule="evenodd" d="M7.08302 0.338135C9.65018 0.338135 11.7301 2.4269 11.7301 5.00292C11.7301 7.57989 9.65018 9.66771 7.08302 9.66771C6.92404 9.66771 3.02016 9.6441 3.02016 9.6441C2.62883 9.6441 2.3532 9.85279 2.25443 10.1852V11.5242C2.25443 11.7612 2.06347 11.9529 1.82736 11.9529H0.595044C0.35893 11.9529 0.167969 11.7612 0.167969 11.5242V0.766842C0.167969 0.608201 0.253572 0.469391 0.381507 0.394792V0.338135H7.08302ZM21.578 3.59114L21.6159 3.69131L24.3712 11.5525C24.4484 11.7725 24.3204 11.9529 24.0871 11.9529H22.6507C22.4174 11.9529 22.1634 11.7725 22.0863 11.5525L20.6122 7.35704C20.5793 7.26355 20.472 7.18706 20.3723 7.18706L15.8071 7.19273C15.1261 7.19273 14.5739 7.74703 14.5739 8.43069C14.5739 9.11436 15.1261 9.66771 15.8071 9.66771L19.0695 9.68471C19.3028 9.68471 19.4937 9.87545 19.4937 10.1087L19.5031 11.5289C19.5031 11.7621 19.3122 11.9529 19.0789 11.9529H15.8993C15.1496 11.9529 14.1732 11.7178 13.6031 11.3164C13.4469 11.2201 13.0255 10.8226 12.9597 10.731C12.4291 10.1144 12.1083 9.30983 12.1083 8.43069C12.1083 6.48451 13.6793 4.90755 15.6171 4.90755H19.4617C19.6555 4.90755 19.7675 4.75646 19.7044 4.57422C19.0147 2.59277 18.1261 2.59932 16.7129 2.60974L16.7128 2.60974L16.7127 2.60974C16.6457 2.61024 16.5774 2.61074 16.508 2.61104H13.2936C13.0603 2.61104 12.8694 2.41935 12.8694 2.18705L12.9032 0.762121C12.9032 0.528881 13.0942 0.338135 13.3275 0.338135H16.6359C20.345 0.338135 20.7916 1.51641 21.578 3.59114ZM30.1698 9.69793H29.5395C29.313 9.69793 29.1353 9.665 28.9151 9.62419L28.9151 9.62419L28.8951 9.6205C28.8951 9.6205 27.8989 9.69226 27.1633 7.93305L24.6582 0.738513C24.5811 0.51755 24.3281 0.338135 24.0948 0.338135H22.7035C22.4702 0.338135 22.3413 0.51755 22.4184 0.738513L25.1756 8.65732C25.2528 8.87829 25.4061 9.22578 25.5162 9.43164C25.5162 9.43164 26.1342 10.5195 26.8369 11.1134C27.644 11.7952 28.6336 11.9293 28.6336 11.9293C28.6976 11.9406 30.2225 11.9293 30.2225 11.9293C30.4774 11.9293 30.6966 11.7215 30.6966 11.4647V10.2031C30.6966 10.0114 30.5799 9.84618 30.4134 9.77536C30.3447 9.72626 30.2601 9.69793 30.1698 9.69793ZM36.4808 0.338135H39.7554C39.9896 0.338135 40.1796 0.528881 40.1796 0.762121V2.18422C40.1796 2.41746 39.9868 2.61104 39.7526 2.61104L36.4808 2.62331C34.543 2.62331 32.972 4.20028 32.972 6.14551C32.972 8.09075 34.543 9.66771 36.4808 9.66771L39.7554 9.69415C39.9896 9.69415 40.1796 9.88584 40.1796 10.1191V11.5289C40.1796 11.7621 39.9981 11.9406 39.7648 11.9406L36.5758 11.951L36.4808 11.9529C33.2862 11.9529 30.6965 9.35326 30.6965 6.14551C30.6965 2.93776 33.2862 0.338135 36.4808 0.338135ZM40.7489 6.14551C40.7489 9.35326 43.3386 11.9529 46.5341 11.9529C49.7287 11.9529 52.3185 9.35326 52.3185 6.14551C52.3185 2.93776 49.7287 0.338135 46.5341 0.338135C43.3386 0.338135 40.7489 2.93776 40.7489 6.14551ZM43.0253 6.1455C43.0253 4.20026 44.5963 2.6233 46.5341 2.6233C48.472 2.6233 50.0429 4.20026 50.0429 6.1455C50.0429 8.09073 48.472 9.6677 46.5341 9.6677C44.5963 9.6677 43.0253 8.09073 43.0253 6.1455ZM7.24971 7.38345H2.75225C2.47757 7.38345 2.25462 7.15021 2.25462 6.86314V2.95284C2.25462 2.66483 2.47757 2.43254 2.75225 2.43254H7.24971H7.27323C8.58268 2.43254 9.64378 3.54113 9.64378 4.90752C9.64378 6.27485 8.58268 7.38345 7.27323 7.38345H7.24971Z" fill="white"/>
<path fill-rule="evenodd" clip-rule="evenodd" d="M64.8412 2.65155C63.6202 2.65155 62.6306 3.64494 62.6306 4.87063V11.6459C62.6306 11.8536 62.4792 12 62.2637 12H60.5517C60.3362 12 60.1848 11.8536 60.1848 11.6459V4.87063C60.1848 3.64494 59.1952 2.65155 57.9742 2.65155C56.7531 2.65155 55.7635 3.64494 55.7635 4.87063V11.6459C55.7635 11.8536 55.6234 12 55.4249 12H53.8445C53.646 12 53.5059 11.8536 53.5059 11.6459V4.82341C53.5059 2.37204 55.4851 0.385254 57.9271 0.385254C59.3683 0.385254 60.6476 1.07742 61.4547 2.1473C62.2619 1.07742 63.5412 0.385254 64.9823 0.385254C67.4244 0.385254 69.4036 2.37204 69.4036 4.82341V11.6459C69.4036 11.8536 69.2578 12 69.0508 12H67.4046C67.1977 12 67.0519 11.8536 67.0519 11.6459V4.87063C67.0519 3.64494 66.0623 2.65155 64.8412 2.65155ZM91.5681 5.70632L91.3621 5.99339L91.5681 6.28045C91.966 6.83664 92.1805 7.55807 92.1674 8.42493C92.1228 11.4116 89.8517 11.8479 89.4347 11.928L89.4186 11.9311C89.2286 11.9679 88.7047 12 88.5118 12H83.4208C83.211 12 83.0417 11.8291 83.0417 11.6195V10.0963C83.0417 9.88575 83.211 9.71483 83.4208 9.71483H88.731C89.3603 9.71483 89.8692 9.16148 89.8692 8.47781C89.8692 7.79415 89.3603 7.23985 88.731 7.23985H85.8863C85.6766 7.23985 85.5072 7.06893 85.5072 6.8593V5.33616C85.5072 5.12559 85.6767 4.95467 85.8863 4.95467H88.731C89.3603 4.95467 89.8692 4.44381 89.8692 3.81302C89.8692 3.18129 89.3603 2.67043 88.731 2.67043H83.4208C83.211 2.67043 83.0417 2.49952 83.0417 2.28894V0.765802C83.0417 0.55617 83.211 0.385254 83.4208 0.385254L88.985 0.387142C89.8711 0.387142 90.6067 0.694036 91.2361 1.32482C91.7337 1.82435 92.0272 2.88573 92.0987 3.25212C92.1391 3.46364 92.1674 3.73748 92.1674 3.85174C92.1674 4.53446 91.9707 5.14164 91.5681 5.70632ZM77.7984 7.43057H73.3019C73.0262 7.43057 72.8033 7.19733 72.8033 6.91026V2.99996C72.8033 2.71195 73.0262 2.47966 73.3019 2.47966H77.7984H77.8219C79.1313 2.47966 80.1934 3.58825 80.1934 4.95464C80.1934 6.32197 79.1313 7.43057 77.8219 7.43057H77.7984ZM82.2797 5.05004C82.2797 7.62701 80.1988 9.71483 77.6326 9.71483C77.4727 9.71483 73.5698 9.69122 73.5698 9.69122C73.1784 9.69122 72.9028 9.89991 72.8031 10.2323V11.5713C72.8031 11.8083 72.6121 12 72.377 12H71.1437C70.9085 12 70.7166 11.8083 70.7166 11.5713V0.813961C70.7166 0.655321 70.8032 0.51651 70.9302 0.441911V0.385254H77.6326C80.1988 0.385254 82.2797 2.47402 82.2797 5.05004Z" fill="white"/>
</g>
</svg>
