<svg width="79" height="24" viewBox="0 0 79 24" fill="none" xmlns="http://www.w3.org/2000/svg">
<path opacity="0.4" fill-rule="evenodd" clip-rule="evenodd" d="M67.3121 13.0268C67.2333 15.4111 67.2273 16.6294 67.7036 16.8626C68.2267 17.1186 69.3315 16.1863 71.5605 14.3053C71.8066 14.0976 72.0665 13.8783 72.3408 13.6477C72.6954 13.7698 73.0307 13.8861 73.3472 13.9959C76.0277 14.9255 77.364 15.3889 77.7383 14.9774C78.1103 14.5683 77.5313 13.2942 76.3766 10.7534C76.2391 10.4508 76.0935 10.1303 75.9402 9.79106C76.0105 9.69995 76.0796 9.61032 76.1476 9.52214C78.2338 6.81685 79.2625 5.48282 78.9426 4.9315C78.6313 4.39515 77.0436 4.59958 73.9112 5.00291C73.7846 5.01921 73.6554 5.03585 73.5237 5.05277C73.3336 4.80025 73.1523 4.55846 72.979 4.32751C71.1274 1.85904 70.2048 0.628965 69.5732 0.763681C68.9459 0.897492 68.6058 2.3778 67.9279 5.32848C67.87 5.58027 67.8097 5.84277 67.7465 6.11605C67.4752 6.2079 67.2152 6.29547 66.9666 6.37921C64.2697 7.28768 62.9085 7.74622 62.8466 8.34018C62.7905 8.8779 63.7994 9.52661 65.8461 10.7206C64.3695 11.5019 63.3998 12.1103 63.3998 12.1103C63.3998 12.1103 60.9855 8.71075 60.4847 7.8629C59.992 7.01494 58.9747 7.12708 58.6437 7.29499C58.0948 7.59109 56.8671 8.27059 56.5605 9.02235C56.3209 9.6059 55.9115 11.1119 55.444 12.8318C54.7448 15.4034 53.9157 18.4532 53.3301 19.6131C52.8779 20.493 52.1348 21.4525 51.4972 21.389C51.077 21.2367 50.8028 20.709 50.8352 19.6131L50.8433 19.5169C51.0051 16.3897 53.177 10.5343 53.5805 9.89453C54.2024 8.89465 54.1132 8.2468 53.6454 7.71878C52.7974 6.75088 50.302 6.87082 49.309 9.59849C49.309 9.59849 48.2187 7.15077 45.5778 7.15077C42.9294 7.15077 39.4167 11.0062 38.8434 15.8856C38.6739 17.3414 38.6009 18.5973 38.6739 19.669C38.0037 20.5488 37.1556 21.4128 36.4126 21.4128C34.8382 21.4128 34.6927 19.1811 36.2675 15.4374C36.8969 13.939 37.1711 13.2257 37.3414 12.7829C37.4092 12.6065 37.4605 12.4731 37.5112 12.35C37.5239 12.3175 37.5419 12.2756 37.5632 12.226C37.8242 11.6173 38.5848 9.84353 36.4047 9.80624C35.6312 9.79347 35.2108 9.95198 34.8151 10.1012C34.4754 10.2292 34.154 10.3504 33.6431 10.3504C32.5445 10.3504 31.8099 10.1266 32.3025 8.40658C32.7788 6.74307 32.0604 5.66314 30.5664 5.63116C29.425 5.60152 29.0522 6.04097 28.8597 6.26793C28.7934 6.34602 28.7485 6.39896 28.701 6.39896H27.207L28.6766 1.4556C28.6766 1.4556 28.8946 0 27.207 0C23.9931 0 23.1615 6.39896 23.1615 6.39896C23.1615 6.39896 19.2935 6.72708 18.6555 8.79872C17.9206 7.51878 16.4913 7.03093 15.0295 7.17505C13.0999 7.36686 8.37581 10.3266 7.90746 15.8375C7.86722 16.2854 7.85105 16.7014 7.85894 17.1013C6.71233 20.293 5.6304 21.4045 4.54009 21.3969C3.57092 21.389 3.53869 19.853 3.78899 17.9414C4.21722 14.7658 8.44839 1.4556 8.44839 1.4556C8.44839 1.4556 8.65856 0 6.9788 0C4.41078 0 3.26417 4.20722 2.05287 8.8307C1.29393 11.7264 0.243852 17.2135 0.0743017 18.1574C-0.256415 20.125 0.454018 23.9725 3.48223 23.9725C5.97729 23.9725 7.56003 22.4365 8.60177 20.6288C9.99084 23.5324 12.9299 24.0925 13.9961 23.9885C15.8371 23.8043 18.7119 22.6126 20.2462 19.5811C20.3755 21.5647 21.3202 23.9725 23.7104 23.9725C27.3794 23.9725 28.3709 21.7889 29.3842 19.5572L29.3953 19.5329C29.7278 18.796 30.0368 17.7874 30.3434 16.7865C30.9154 14.9191 31.4793 13.0782 32.1732 13.0782C33.077 13.0782 32.9572 13.3782 32.8051 13.7593C32.7765 13.8311 32.7467 13.9057 32.7223 13.9818C32.569 14.4697 31.5029 17.9493 31.6242 19.4291C31.7454 20.9166 31.9957 23.9725 35.0964 23.9725C36.9781 23.9725 38.351 22.7567 39.134 21.8045C39.7558 23.2362 41.0157 23.9725 43.2117 23.9725C45.8044 23.9725 47.5081 20.8367 47.5081 20.8367C47.5081 20.8367 47.6692 23.9482 50.1971 23.9725C50.2161 23.9725 50.2357 23.9725 50.2558 23.9726C51.3013 23.9742 53.7521 23.9781 55.535 19.7009C56.158 18.2063 57.0997 15.4564 57.7524 13.5506C58.165 12.3458 58.4621 11.4783 58.4901 11.4783C58.6681 11.4783 60.1862 13.7261 60.4447 14.3338C58.6118 16.0534 57.3598 17.7012 57.0775 18.4613C56.5118 20.0367 55.9785 23.9725 61.3971 23.9725C63.5215 23.9725 67.1391 21.9806 66.7751 18.7011C66.6301 17.4615 64.9666 14.4376 64.9666 14.4376C64.9666 14.4376 66.2811 13.5185 67.3121 13.0268ZM70.4026 4.52579L71.8175 6.50386C72.4218 7.34729 72.9277 7.26618 74.5417 7.00742L74.5418 7.00741C74.8514 6.95777 75.2018 6.90159 75.6015 6.84415C75.2573 7.25623 74.9597 7.59646 74.707 7.88528C74.0143 8.6772 73.6597 9.0826 73.6094 9.52281C73.5565 9.98454 73.8384 10.4846 74.416 11.5091C74.57 11.7823 74.745 12.0927 74.9403 12.4497C74.4571 12.2592 74.0539 12.0901 73.7112 11.9464C72.7608 11.5478 72.2766 11.3447 71.844 11.4238C71.3947 11.506 71.0011 11.8928 70.1986 12.6813C69.9544 12.9213 69.6723 13.1985 69.3393 13.5156C69.3642 12.9764 69.3958 12.5285 69.4223 12.1525C69.4913 11.1734 69.5261 10.6806 69.3212 10.3264C69.1136 9.96729 68.6597 9.75059 67.7459 9.31424C67.4104 9.15401 67.0128 8.96417 66.5426 8.72678C66.9043 8.62345 67.2237 8.53474 67.5061 8.4563C69.4805 7.90784 69.6499 7.86079 69.8856 6.8197L70.4026 4.52579ZM20.6743 15.8937C20.6743 15.8937 17.9288 21.2288 14.8116 21.5327C12.1871 21.7966 12.1146 18.7011 12.1146 18.7011C12.1146 18.7011 19.8506 16.6935 19.1401 10.3586V10.3023C19.463 10.3664 19.9637 10.3504 20.6984 10.3504H21.942L20.6743 15.8937ZM29.0965 13.3902C28.9675 14.1099 28.919 14.7097 28.2165 16.7417C27.0212 20.2047 25.9472 21.4367 24.8168 21.4288C23.8397 21.4205 23.7672 19.853 24.0254 17.9414C24.2759 16.0215 25.9233 10.3504 25.9233 10.3504H28.1276C28.1276 10.3504 29.5972 10.4863 29.0965 13.3902ZM48.3642 12.35C48.3642 12.35 47.4594 16.3417 47.4437 17.2532C47.4194 18.1574 45.6265 21.4288 44.1327 21.4288C42.6386 21.4288 42.0167 18.5011 43.0262 15.0697C44.0354 11.6462 45.4891 9.99068 46.5227 9.99068C47.5567 9.99068 48.4529 11.1905 48.3642 12.35ZM60.8325 21.4288C59.6529 21.4288 59.0072 20.6207 58.9585 19.645C58.8941 18.5331 61.5913 16.1655 61.5913 16.1655C61.5913 16.1655 62.7784 17.4293 63.125 19.1009C63.5215 20.973 62.019 21.4288 60.8325 21.4288ZM15.1751 9.65443C16.8062 9.49464 16.0311 12.1904 15.3447 13.3742C14.5449 14.7579 12.6961 16.4534 11.848 16.8775C11.7995 11.1425 14.1093 9.7586 15.1751 9.65443Z" fill="white"/>
</svg>
