<svg width="360" height="421" viewBox="0 0 360 421" fill="none" xmlns="http://www.w3.org/2000/svg">
<path d="M-31.2105 6.3224C-0.93436 1.37099 68.8229 18.5073 105.643 126.664C21.8081 121.606 -35.5968 138.199 -31.2105 6.3224Z" fill="url(#paint0_linear_3_27929)" stroke="black" stroke-width="1.67906"/>
<path d="M-48.4202 19.6367C-38.5607 17.6297 -6.25458 26.426 44.0938 77.6672" stroke="black" stroke-width="2.34467" stroke-linecap="round"/>
<path d="M332.424 205.265C326.683 214.217 321.165 225.762 318.704 231.709C311.792 247.205 305.584 282.784 336.05 301.132C374.132 324.067 425.655 276.58 413.797 254.232C404.311 236.353 381.034 235.376 370.581 237.122C341.328 240.97 296.288 267.064 350.155 340.658C362.515 358.97 384.522 405.489 358.111 419.072" stroke="white" stroke-width="2.09883"/>
<path d="M320.533 216.095C314.014 207.934 313.693 196.441 319.748 187.93C332.218 170.399 359.791 182.106 355.84 203.253L354.433 210.782L418.828 242.421L474.829 196.411L513.711 243.998L419.092 290.629C413.755 293.26 407.37 292.51 402.787 288.713L331.09 229.312L320.533 216.095Z" fill="#D0A0FF" stroke="black" stroke-width="2.09883"/>
<path d="M332.422 205.265C326.681 214.216 321.163 225.761 318.703 231.708C311.79 247.204 305.582 282.783 336.048 301.131C374.13 324.066 425.653 276.58 413.795 254.231C404.309 236.352 381.032 235.375 370.58 237.122" stroke="white" stroke-width="2.09883"/>
<path d="M309.467 75.073C324.218 95.7854 343.016 113.287 364.72 126.523L343.268 165.937C322.879 153.94 300.126 146.506 276.577 144.153L257.034 142.2L300.558 62.5639L309.467 75.073ZM380.787 137.831C388.505 141.948 392.329 150.874 389.984 159.301C389.252 161.933 387.951 164.372 386.173 166.446C380.479 173.088 370.937 174.883 363.218 170.766L352.973 165.301L370.541 132.365L380.787 137.831Z" fill="#FBE254" stroke="black" stroke-width="2.09883"/>
<path d="M261.21 92.7043C255.112 104.134 251.334 115.359 250.129 124.242C249.526 128.688 249.575 132.49 250.26 135.417C250.946 138.346 252.232 140.271 254.003 141.216C255.774 142.16 258.089 142.157 260.904 141.094C263.717 140.033 266.902 137.957 270.258 134.98C276.965 129.031 284.183 119.641 290.28 108.211C296.377 96.7813 300.155 85.5568 301.36 76.6735C301.964 72.2276 301.914 68.426 301.229 65.4989C300.544 62.5694 299.257 60.6443 297.486 59.6997C295.716 58.7551 293.4 58.7588 290.585 59.8211C287.773 60.8825 284.588 62.9588 281.231 65.936C274.525 71.8847 267.307 81.2742 261.21 92.7043Z" fill="#FBE254" stroke="black" stroke-width="2.09883"/>
<path d="M294.356 87.0312C295.814 87.8091 297.079 88.8313 298.14 90.0468C296.233 95.8152 293.598 101.986 290.277 108.211C286.905 114.532 283.187 120.235 279.399 125.078C277.816 124.871 276.28 124.392 274.837 123.622C266.988 119.435 264.566 107.876 270.062 97.5732C275.557 87.2705 286.507 82.844 294.356 87.0312Z" fill="white" stroke="black" stroke-width="2.09883"/>
<path d="M357.338 175.072L342.281 167.04L321.465 206.064C320.318 208.213 321.131 210.885 323.28 212.031L330.554 215.911C332.703 217.058 335.375 216.245 336.522 214.096L357.338 175.072Z" fill="white" stroke="black" stroke-width="2.09883"/>
<path d="M361.617 122.366L383.864 134.234C381.609 149.982 374.103 164.509 362.559 175.459L361.122 176.822L337.949 164.461L340.226 162.302C351.257 151.838 358.425 137.952 360.566 122.9C360.636 122.405 361.176 122.131 361.617 122.366ZM361.133 176.828L361.133 176.828L361.133 176.828Z" fill="white" stroke="black" stroke-width="2.09883"/>
<path d="M216.126 82.4081L225.581 77.6828L242.164 96.6186L216.126 82.4081Z" fill="#FBE254"/>
<path d="M209.6 103.959L215.742 112.562L239.261 103.594L209.6 103.959Z" fill="#FBE254"/>
<path d="M201.72 83.9261L238.549 99.3593L201.12 96.122L201.72 83.9261Z" fill="#FBE254"/>
<path d="M342.505 193.318L341.999 197.332L339.533 205.739L343.706 210.458L351.583 190.318L351.125 189.351L341.652 181.117L336.911 180.801L335.299 183.551L340.182 188.877L342.505 193.318Z" fill="#D0A0FF"/>
<path d="M337.195 190.821L331.047 186.601L329.483 185.068L323.272 192.511L319.604 208.219L322.544 210.558L326.099 210.796L327.98 207.588L328.138 205.217L331.236 205.186L334.112 201.33L333.544 199.149L336.183 198.849L339.976 195.53L337.195 190.821Z" fill="#D0A0FF"/>
<path d="M316.285 204.428L321.895 209.564L322.602 210.062C325.519 212.115 329.326 209.136 328.033 205.811V205.811C326.993 203.137 325.523 200.651 323.68 198.452L321.39 195.72" stroke="black" stroke-width="2.09883" stroke-linecap="round"/>
<path d="M325.073 190.489L329.807 194.021C331.746 195.468 333.2 197.469 333.976 199.761V199.761C334.943 202.617 332.434 205.441 329.484 204.816L327.948 204.491" stroke="black" stroke-width="2.09883" stroke-linecap="round"/>
<path d="M329.212 185.526L335.466 189.626C337.193 190.758 338.562 192.357 339.415 194.237V194.237C340.68 197.026 338.06 200.002 335.133 199.099L333.811 198.691" stroke="black" stroke-width="2.09883" stroke-linecap="round"/>
<path d="M341.728 197.791C340.116 200.54 337.966 204.207 340.858 210.829" stroke="black" stroke-width="2.09883" stroke-linecap="round"/>
<path d="M341.006 197.981C341.965 196.695 344.41 192.176 339.269 188.34C335.413 185.464 334.576 183.741 335.65 181.908C336.725 180.075 339.364 179.775 343.947 182.462C347.614 184.611 350.591 187.115 351.571 187.895" stroke="black" stroke-width="2.09883" stroke-linecap="round"/>
<path d="M-43.7892 349.379C-47.0239 323.544 -30.2678 264.928 62.6342 237.146C55.6736 308.087 67.9171 357.301 -43.7892 349.379Z" fill="url(#paint1_linear_3_27929)" stroke="black" stroke-width="1.67906"/>
<path d="M-33.0468 364.398C-34.4349 355.972 -25.9453 328.853 19.1172 287.785" stroke="black" stroke-width="2.34467" stroke-linecap="round"/>
<defs>
<linearGradient id="paint0_linear_3_27929" x1="12.2358" y1="51.983" x2="-65.6919" y2="41.2823" gradientUnits="userSpaceOnUse">
<stop stop-color="#5BD576"/>
<stop offset="1" stop-color="#57A943"/>
</linearGradient>
<linearGradient id="paint1_linear_3_27929" x1="11.7009" y1="295.569" x2="-9.54594" y2="382.358" gradientUnits="userSpaceOnUse">
<stop stop-color="#5BD576"/>
<stop offset="1" stop-color="#57A943"/>
</linearGradient>
</defs>
</svg>
