<svg width="747" height="768" viewBox="0 0 747 768" fill="none" xmlns="http://www.w3.org/2000/svg">
<path d="M422.247 335.328C394.039 278.999 281.557 183.578 57.3009 252.52C166.635 385.902 208.134 501.377 422.247 335.328Z" fill="url(#paint0_linear_3_20947)" stroke="black" stroke-width="3.44792"/>
<path d="M420.815 379.984C412.285 361.165 358.761 318.009 212.906 295.932" stroke="black" stroke-width="4.81472" stroke-linecap="round"/>
<path d="M714.237 484.874C664.894 445.709 594.578 316.044 708.061 110.702C816.176 245.075 920.681 309.381 714.237 484.874Z" fill="url(#paint1_linear_3_20947)" stroke="black" stroke-width="3.44792"/>
<path d="M758.24 492.635C741.571 480.426 710.313 419.187 718.629 271.905" stroke="black" stroke-width="4.81472" stroke-linecap="round"/>
<path d="M567.924 312.928C562.638 334.116 559.491 360.203 558.613 373.39C555.349 408.079 566.655 481.377 637.984 497.05C727.145 516.641 796.171 390.396 758.415 354.711C728.209 326.163 682.283 339.56 663.095 349.827C608.713 376.538 538.238 456.905 691.401 564.678C727.483 592.179 800.869 668.217 758.416 712" stroke="white" stroke-width="4.3099"/>
<path d="M549.756 342.372C532.826 330.332 525.462 308.836 531.452 288.944C544.291 246.311 606.113 251.001 612.372 295.084L614.376 309.194L760.447 431.1L839.157 304.785L946.075 371.81L799.019 518.361C787.435 529.905 768.876 530.465 756.618 519.64L581.141 364.692L549.756 342.372Z" fill="#D0A0FF" stroke="black" stroke-width="4.3099"/>
<path d="M567.927 312.928C562.642 334.115 559.494 360.202 558.616 373.389C555.353 408.078 566.658 481.376 637.987 497.049C727.149 516.64 796.174 390.395 758.418 354.71C728.213 326.162 682.286 339.559 663.099 349.826" stroke="white" stroke-width="4.3099"/>
<path d="M437.714 74.73C480.025 105.33 528.098 127.025 579.021 138.51L563.191 229.289C515.639 219.349 466.488 219.84 419.129 230.738L379.824 239.783L412.161 56.249L437.714 74.73ZM617.71 149.95C635.432 152.887 648.736 167.739 649.713 185.676C650.018 191.278 649.09 196.878 646.994 202.081C640.282 218.743 622.898 228.509 605.176 225.572L581.652 221.673L594.186 146.051L617.71 149.95Z" fill="#FBE254" stroke="black" stroke-width="4.3099"/>
<path d="M355.424 140.747C351.075 166.991 351.101 191.311 354.595 209.385C356.343 218.431 358.938 225.794 362.194 231.038C365.453 236.287 369.221 239.187 373.287 239.861C377.353 240.535 381.855 239.006 386.633 235.089C391.407 231.176 396.238 225.043 400.812 217.045C409.95 201.064 417.821 178.054 422.171 151.81C426.521 125.566 426.494 101.246 423.001 83.1718C421.252 74.126 418.658 66.7626 415.401 61.5183C412.142 56.2694 408.374 53.3699 404.309 52.696C400.243 52.0221 395.741 53.551 390.962 57.4676C386.188 61.3809 381.357 67.5135 376.784 75.5115C367.646 91.4922 359.774 114.503 355.424 140.747Z" fill="#FBE254" stroke="black" stroke-width="4.3099"/>
<path d="M416.187 107.924C419.535 108.479 422.667 109.637 425.529 111.304C425.612 123.779 424.539 137.516 422.17 151.81C419.764 166.324 416.279 179.861 412.092 191.774C408.877 192.41 405.575 192.488 402.262 191.939C384.239 188.951 371.93 168.055 375.851 144.4C379.772 120.744 398.164 104.937 416.187 107.924Z" fill="white" stroke="black" stroke-width="4.3099"/>
<path d="M596.561 237.815L561.989 232.085L547.138 321.684C546.32 326.619 549.658 331.282 554.593 332.1L571.294 334.868C576.229 335.686 580.892 332.349 581.71 327.414L596.561 237.815Z" fill="white" stroke="black" stroke-width="4.3099"/>
<path d="M570.249 132.464L621.33 140.931C627.294 173.051 622.237 206.246 606.976 235.134L605.075 238.732L551.871 229.914L554.881 224.216L552.976 223.209L554.881 224.216C569.464 196.61 574.283 164.884 568.555 134.193C568.367 133.185 569.238 132.297 570.249 132.464Z" fill="white" stroke="black" stroke-width="4.3099"/>
<path d="M260.942 150.347L276.231 134.94L320.938 160.88L260.942 150.347Z" fill="#FBE254"/>
<path d="M262.406 196.563L280.009 209.262L319.871 176.358L262.406 196.563Z" fill="#FBE254"/>
<path d="M233.916 162.767L315.709 168.587L240.763 186.889L233.916 162.767Z" fill="#FBE254"/>
<path d="M579.684 283.06L581.337 291.202L582.065 309.178L593.285 315.617L595.373 271.257L593.847 269.677L570.006 259.885L560.575 262.385L559.246 268.794L572.246 275.947L579.684 283.06Z" fill="#D0A0FF"/>
<path d="M567.712 281.691L552.979 277.521L548.928 275.567L541.736 294.13L544.925 327.1L552.181 329.719L559.254 327.844L560.805 320.367L559.555 315.651L565.56 313.554L568.622 304.162L566.082 300.293L571.02 297.975L576.218 289.026L567.712 281.691Z" fill="#D0A0FF"/>
<path d="M535.983 321.904L550.272 328.21L551.976 328.714C558.999 330.791 564.447 322.492 559.748 316.875V316.875C555.967 312.356 551.472 308.486 546.442 305.419L540.192 301.608" stroke="black" stroke-width="4.3099" stroke-linecap="round"/>
<path d="M543.915 289.012L555.446 292.771C560.17 294.311 564.314 297.25 567.329 301.199V301.199C571.088 306.12 568.063 313.261 561.913 313.986L558.711 314.363" stroke="black" stroke-width="4.3099" stroke-linecap="round"/>
<path d="M548.704 276.637L563.564 280.502C567.667 281.569 571.383 283.78 574.278 286.878V286.878C578.572 291.472 575.429 298.984 569.143 299.151L566.301 299.226" stroke="black" stroke-width="4.3099" stroke-linecap="round"/>
<path d="M581.116 292.272C579.787 298.681 578.014 307.226 587.992 318.208" stroke="black" stroke-width="4.3099" stroke-linecap="round"/>
<path d="M579.831 293.116C580.852 289.986 582.637 279.586 570.115 275.504C560.723 272.442 557.961 269.641 558.848 265.368C559.734 261.095 564.671 258.777 575.353 260.992C583.898 262.765 591.337 265.679 593.756 266.552" stroke="black" stroke-width="4.3099" stroke-linecap="round"/>
<defs>
<linearGradient id="paint0_linear_3_20947" x1="238.29" y1="301.627" x2="397.665" y2="447.699" gradientUnits="userSpaceOnUse">
<stop stop-color="#5BD576"/>
<stop offset="1" stop-color="#57A943"/>
</linearGradient>
<linearGradient id="paint1_linear_3_20947" x1="723.607" y1="355.788" x2="814.987" y2="488.979" gradientUnits="userSpaceOnUse">
<stop stop-color="#5BD576"/>
<stop offset="1" stop-color="#57A943"/>
</linearGradient>
</defs>
</svg>
