<svg width="839" height="1080" viewBox="0 0 839 1080" fill="none" xmlns="http://www.w3.org/2000/svg">
<g clip-path="url(#clip0_3_19563)">
<path d="M476.897 471.617C458.385 400.916 353.59 265.635 82.5127 290.118C174.632 467.732 194.049 608.755 476.897 471.617Z" fill="url(#paint0_linear_3_19563)" stroke="black" stroke-width="4"/>
<path d="M464.568 521.962C459.398 498.556 408.993 436.737 248.73 376.705" stroke="black" stroke-width="5.58566" stroke-linecap="round"/>
<path d="M772.467 711.375C725.85 655.089 677.127 491.05 855.175 285.182C945.674 463.628 1048.87 561.678 772.467 711.375Z" fill="url(#paint1_linear_3_19563)" stroke="black" stroke-width="4"/>
<path d="M820.551 730.735C804.559 712.88 783.762 635.874 828.516 470.693" stroke="black" stroke-width="5.58566" stroke-linecap="round"/>
<path d="M624.812 494.543C611.878 516.325 599.686 544.264 594.316 558.625C579.129 596.086 567.264 681.303 641.303 722.491C733.852 773.975 852.628 656.693 822.565 604.456C798.514 562.666 743.015 562.248 718.271 567.262C648.938 578.821 417.501 733 882.001 945.5" stroke="white" stroke-width="5"/>
<path d="M594.813 521.205C580.013 502.184 578.993 475.843 592.279 455.736C620.754 412.639 687.888 438.454 680.153 489.525L677.677 505.873L799.368 690.018L928.928 575.885L1025.4 685.996L799.951 806.918C790.653 811.905 779.08 808.811 773.511 799.85L622.25 556.467L594.813 521.205Z" fill="#D0A0FF" stroke="black" stroke-width="5"/>
<path d="M624.817 494.542C611.883 516.324 599.691 544.263 594.321 558.624C579.134 596.085 567.27 681.302 641.309 722.49C733.858 773.974 852.633 656.692 822.57 604.455C798.52 562.665 743.02 562.247 718.277 567.261" stroke="white" stroke-width="5"/>
<path d="M559.509 186.459C596.328 234.563 642.517 274.692 695.277 304.425L647.433 400.025C597.905 373.132 543.123 357.297 486.865 353.625L440.174 350.577L537.273 157.406L559.509 186.459ZM734.457 330.031C753.171 339.201 763.005 360.139 758.113 380.396C756.585 386.722 753.687 392.636 749.624 397.719C736.613 413.998 714.041 419.056 695.327 409.886L670.485 397.714L709.615 317.859L734.457 330.031Z" fill="#FBE254" stroke="black" stroke-width="5"/>
<path d="M446.045 232.389C432.465 260.102 424.39 287.136 422.248 308.384C421.177 319.019 421.606 328.066 423.476 334.979C425.349 341.898 428.57 346.375 432.863 348.479C437.156 350.583 442.669 350.384 449.284 347.625C455.893 344.867 463.306 339.662 471.053 332.299C486.533 317.586 502.949 294.64 516.528 266.926C530.108 239.213 538.183 212.179 540.325 190.931C541.397 180.296 540.968 171.249 539.097 164.336C537.224 157.418 534.003 152.94 529.71 150.836C525.417 148.732 519.904 148.931 513.289 151.691C506.68 154.448 499.268 159.653 491.52 167.016C476.04 181.729 459.625 204.676 446.045 232.389Z" fill="#FBE254" stroke="black" stroke-width="5"/>
<path d="M524.506 216.166C528.041 217.898 531.135 220.228 533.761 223.035C529.695 236.925 523.925 251.833 516.529 266.927C509.019 282.253 500.635 296.135 492.012 307.977C488.227 307.612 484.532 306.598 481.033 304.884C462.001 295.558 455.287 268.236 467.528 243.256C479.768 218.276 505.474 206.84 524.506 216.166Z" fill="white" stroke="black" stroke-width="5"/>
<path d="M681.671 420.619L645.163 402.73L598.801 497.346C596.247 502.557 598.402 508.851 603.613 511.405L621.249 520.047C626.46 522.6 632.755 520.446 635.308 515.235L681.671 420.619Z" fill="white" stroke="black" stroke-width="5"/>
<path d="M634.471 396.975L634.515 396.884C634.515 396.884 634.515 396.884 634.515 396.884L634.515 396.884L634.471 396.975ZM634.471 396.975L634.543 397.047C634.543 397.047 634.543 397.047 634.543 397.047L634.543 397.047L634.471 396.975ZM687.54 294.783L741.481 321.215C737.404 358.895 720.722 394.096 694.136 421.112L690.825 424.477L634.642 396.946L639.886 391.618C665.291 365.802 681.219 332.153 685.081 296.14C685.208 294.957 686.472 294.26 687.54 294.783ZM690.852 424.49L690.851 424.49L690.852 424.49Z" fill="white" stroke="black" stroke-width="5"/>
<path d="M337.87 211.571L359.994 199.546L401.028 243.27L337.87 211.571Z" fill="#FBE254"/>
<path d="M324.098 263.417L339.427 283.394L394.688 260.115L324.098 263.417Z" fill="#FBE254"/>
<path d="M303.703 216.367L392.653 250.093L303.272 245.453L303.703 216.367Z" fill="#FBE254"/>
<path d="M647.832 465.27L646.957 474.869L641.775 495.088L652.097 505.981L669.2 457.384L668.031 455.119L644.802 436.292L633.489 435.928L629.876 442.607L641.938 454.887L647.832 465.27Z" fill="#D0A0FF"/>
<path d="M634.985 459.76L620.004 450.216L616.153 446.695L601.975 464.925L594.531 502.625L601.72 507.954L610.206 508.227L614.421 500.435L614.603 494.778L621.975 494.45L628.508 485.033L626.975 479.887L633.234 478.957L641.993 470.745L634.985 459.76Z" fill="#D0A0FF"/>
<path d="M586.327 493.871L600.105 505.641L601.83 506.768C608.942 511.418 617.761 504.011 614.411 496.203V496.203C611.716 489.921 608.011 484.123 603.443 479.039L597.768 472.721" stroke="black" stroke-width="5" stroke-linecap="round"/>
<path d="M606.102 459.964L617.663 467.984C622.398 471.27 626.024 475.916 628.059 481.309V481.309C630.595 488.03 624.854 494.958 617.778 493.713L614.095 493.066" stroke="black" stroke-width="5" stroke-linecap="round"/>
<path d="M615.553 447.809L630.778 457.057C634.982 459.61 638.374 463.305 640.559 467.712V467.712C643.8 474.249 637.804 481.548 630.763 479.639L627.58 478.776" stroke="black" stroke-width="5" stroke-linecap="round"/>
<path d="M646.357 475.985C642.744 482.664 637.927 491.569 645.354 507.098" stroke="black" stroke-width="5" stroke-linecap="round"/>
<path d="M644.649 476.495C646.826 473.357 652.276 462.395 639.722 453.686C630.305 447.153 628.17 443.12 630.579 438.668C632.988 434.215 639.247 433.284 650.378 439.306C659.283 444.123 666.578 449.841 668.975 451.617" stroke="black" stroke-width="5" stroke-linecap="round"/>
</g>
<defs>
<linearGradient id="paint0_linear_3_19563" x1="276.173" y1="389.255" x2="422.051" y2="593.272" gradientUnits="userSpaceOnUse">
<stop stop-color="#5BD576"/>
<stop offset="1" stop-color="#57A943"/>
</linearGradient>
<linearGradient id="paint1_linear_3_19563" x1="814.054" y1="567.1" x2="885.841" y2="740.192" gradientUnits="userSpaceOnUse">
<stop stop-color="#5BD576"/>
<stop offset="1" stop-color="#57A943"/>
</linearGradient>
<clipPath id="clip0_3_19563">
<rect width="839" height="1080" fill="white"/>
</clipPath>
</defs>
</svg>
