<svg width="1366" height="768" viewBox="0 0 1366 768" fill="none" xmlns="http://www.w3.org/2000/svg">
<g clip-path="url(#clip0_100_10591)">
<path d="M501 466L992 -10H1414L1615.5 452L1452 801L1042 834.5L501 466Z" fill="black"/>
<mask id="mask0_100_10591" style="mask-type:alpha" maskUnits="userSpaceOnUse" x="501" y="-10" width="1115" height="845">
<path d="M501 466L992 -10H1414L1615.5 452L1452 801L1042 834.5L501 466Z" fill="black"/>
</mask>
<g mask="url(#mask0_100_10591)">
<g opacity="0.15">
<path fill-rule="evenodd" clip-rule="evenodd" d="M463.482 1.57027L579.469 117.559L523.161 173.867L523.074 173.954L463.48 233.547L460.195 236.832L463.48 240.117L582.726 359.362L589.297 352.792L473.336 236.832L529.645 180.524L529.731 180.437L589.325 120.844L592.61 117.559L589.325 114.273L470.052 -5L463.482 1.57027Z" fill="#A9A9A9"/>
<path fill-rule="evenodd" clip-rule="evenodd" d="M463.482 239.799L579.469 355.787L523.161 412.096L523.074 412.182L463.48 471.776L460.195 475.061L463.48 478.346L582.726 597.59L589.297 591.02L473.336 475.061L529.645 418.752L529.731 418.666L589.325 359.072L592.61 355.787L589.325 352.502L470.052 233.229L463.482 239.799Z" fill="#A9A9A9"/>
<path fill-rule="evenodd" clip-rule="evenodd" d="M463.482 478.027L579.469 594.016L523.161 650.324L523.074 650.411L463.48 710.004L460.195 713.289L463.48 716.574L582.726 835.819L589.297 829.249L473.336 713.289L529.645 656.981L529.731 656.894L589.325 597.301L592.61 594.016L589.325 590.73L470.052 471.457L463.482 478.027Z" fill="#A9A9A9"/>
<path fill-rule="evenodd" clip-rule="evenodd" d="M595.896 1.57027L711.883 117.559L655.575 173.867L655.488 173.954L595.895 233.547L592.609 236.832L595.895 240.117L715.14 359.362L721.711 352.792L605.75 236.832L662.059 180.524L662.145 180.437L721.739 120.844L725.024 117.559L721.739 114.273L602.466 -5L595.896 1.57027Z" fill="#A9A9A9"/>
<path fill-rule="evenodd" clip-rule="evenodd" d="M595.896 239.799L711.883 355.787L655.575 412.096L655.488 412.182L595.895 471.776L592.609 475.061L595.895 478.346L715.14 597.59L721.711 591.02L605.75 475.061L662.059 418.752L662.145 418.666L721.739 359.072L725.024 355.787L721.739 352.502L602.466 233.229L595.896 239.799Z" fill="#A9A9A9"/>
<path fill-rule="evenodd" clip-rule="evenodd" d="M595.896 478.027L711.883 594.016L655.575 650.324L655.488 650.411L595.895 710.004L592.609 713.289L595.895 716.574L715.14 835.819L721.711 829.249L605.75 713.289L662.059 656.981L662.145 656.894L721.739 597.301L725.024 594.016L721.739 590.73L602.466 471.457L595.896 478.027Z" fill="#A9A9A9"/>
<path fill-rule="evenodd" clip-rule="evenodd" d="M728.31 1.57027L844.297 117.559L787.989 173.867L787.902 173.954L728.309 233.547L725.023 236.832L728.309 240.117L847.555 359.362L854.125 352.792L738.164 236.832L794.473 180.524L794.559 180.437L854.153 120.844L857.438 117.559L854.153 114.273L734.88 -5L728.31 1.57027Z" fill="#A9A9A9"/>
<path fill-rule="evenodd" clip-rule="evenodd" d="M728.31 239.799L844.297 355.787L787.989 412.096L787.902 412.182L728.309 471.776L725.023 475.061L728.309 478.346L847.555 597.59L854.125 591.02L738.164 475.061L794.473 418.752L794.559 418.666L854.153 359.072L857.438 355.787L854.153 352.502L734.88 233.229L728.31 239.799Z" fill="#A9A9A9"/>
<path fill-rule="evenodd" clip-rule="evenodd" d="M728.31 478.027L844.297 594.016L787.989 650.324L787.902 650.411L728.309 710.004L725.023 713.289L728.309 716.574L847.555 835.819L854.125 829.249L738.164 713.289L794.473 656.981L794.559 656.894L854.153 597.301L857.438 594.016L854.153 590.73L734.88 471.457L728.31 478.027Z" fill="#A9A9A9"/>
<path fill-rule="evenodd" clip-rule="evenodd" d="M860.726 1.57027L976.713 117.559L920.405 173.867L920.318 173.954L860.725 233.547L857.439 236.832L860.725 240.117L979.971 359.362L986.541 352.792L870.58 236.832L926.889 180.524L926.975 180.437L986.569 120.844L989.854 117.559L986.569 114.273L867.296 -5L860.726 1.57027Z" fill="#A9A9A9"/>
<path fill-rule="evenodd" clip-rule="evenodd" d="M860.726 239.799L976.713 355.787L920.405 412.096L920.318 412.182L860.725 471.776L857.439 475.061L860.725 478.346L979.971 597.59L986.541 591.02L870.58 475.061L926.889 418.752L926.975 418.666L986.569 359.072L989.854 355.787L986.569 352.502L867.296 233.229L860.726 239.799Z" fill="#A9A9A9"/>
<path fill-rule="evenodd" clip-rule="evenodd" d="M860.726 478.027L976.713 594.016L920.405 650.324L920.318 650.411L860.725 710.004L857.439 713.289L860.725 716.574L979.971 835.819L986.541 829.249L870.58 713.289L926.889 656.981L926.975 656.894L986.569 597.301L989.854 594.016L986.569 590.73L867.296 471.457L860.726 478.027Z" fill="#A9A9A9"/>
<path fill-rule="evenodd" clip-rule="evenodd" d="M993.14 1.57027L1109.13 117.559L1052.82 173.867L1052.73 173.954L993.139 233.547L989.854 236.832L993.139 240.117L1112.38 359.362L1118.95 352.792L1002.99 236.832L1059.3 180.524L1059.39 180.437L1118.98 120.844L1122.27 117.559L1118.98 114.273L999.71 -5L993.14 1.57027Z" fill="#A9A9A9"/>
<path fill-rule="evenodd" clip-rule="evenodd" d="M993.14 239.799L1109.13 355.787L1052.82 412.096L1052.73 412.182L993.139 471.776L989.854 475.061L993.139 478.346L1112.38 597.59L1118.95 591.02L1002.99 475.061L1059.3 418.752L1059.39 418.666L1118.98 359.072L1122.27 355.787L1118.98 352.502L999.71 233.229L993.14 239.799Z" fill="#A9A9A9"/>
<path fill-rule="evenodd" clip-rule="evenodd" d="M993.14 478.027L1109.13 594.016L1052.82 650.324L1052.73 650.411L993.139 710.004L989.854 713.289L993.139 716.574L1112.38 835.819L1118.95 829.249L1002.99 713.289L1059.3 656.981L1059.39 656.894L1118.98 597.301L1122.27 594.016L1118.98 590.73L999.71 471.457L993.14 478.027Z" fill="#A9A9A9"/>
<path fill-rule="evenodd" clip-rule="evenodd" d="M1125.55 1.57051L1241.54 117.559L1185.23 173.867L1185.15 173.954L1125.55 233.547L1122.27 236.833L1125.55 240.118L1244.8 359.362L1251.37 352.792L1135.41 236.832L1191.72 180.524L1191.8 180.438L1251.4 120.844L1254.68 117.559L1251.4 114.274L1132.12 -4.99976L1125.55 1.57051Z" fill="#A9A9A9"/>
<path fill-rule="evenodd" clip-rule="evenodd" d="M1125.69 239.799L1241.67 355.787L1185.42 412.042L1185.23 411.855L1125.55 471.535L1122.27 474.821L1125.55 478.106L1244.8 597.35L1251.37 590.78L1135.41 474.82L1191.66 418.565L1191.85 418.752L1251.53 359.072L1254.82 355.787L1251.53 352.502L1132.26 233.229L1125.69 239.799Z" fill="#A9A9A9"/>
<path fill-rule="evenodd" clip-rule="evenodd" d="M1125.55 477.787L1241.54 593.775L1185.23 650.084L1185.15 650.17L1125.55 709.764L1122.27 713.049L1125.55 716.334L1244.8 835.579L1251.37 829.008L1135.41 713.049L1191.72 656.741L1191.8 656.654L1251.4 597.061L1254.68 593.775L1251.4 590.49L1132.12 471.217L1125.55 477.787Z" fill="#A9A9A9"/>
<path fill-rule="evenodd" clip-rule="evenodd" d="M1258.1 1.57027L1374.09 117.559L1317.78 173.867L1317.7 173.954L1258.1 233.547L1254.82 236.832L1258.1 240.117L1377.35 359.362L1383.92 352.792L1267.96 236.832L1324.27 180.524L1324.35 180.437L1383.95 120.844L1387.23 117.559L1383.95 114.273L1264.67 -5L1258.1 1.57027Z" fill="#A9A9A9"/>
<path fill-rule="evenodd" clip-rule="evenodd" d="M1258.1 239.799L1374.09 355.787L1317.78 412.096L1317.7 412.182L1258.1 471.776L1254.82 475.061L1258.1 478.346L1377.35 597.59L1383.92 591.02L1267.96 475.061L1324.27 418.752L1324.35 418.666L1383.95 359.072L1387.23 355.787L1383.95 352.502L1264.67 233.229L1258.1 239.799Z" fill="#A9A9A9"/>
<path fill-rule="evenodd" clip-rule="evenodd" d="M1258.1 478.027L1374.09 594.016L1317.78 650.324L1317.7 650.411L1258.1 710.004L1254.82 713.289L1258.1 716.574L1377.35 835.819L1383.92 829.249L1267.96 713.289L1324.27 656.981L1324.35 656.894L1383.95 597.301L1387.23 594.016L1383.95 590.73L1264.67 471.457L1258.1 478.027Z" fill="#A9A9A9"/>
</g>
</g>
</g>
<defs>
<clipPath id="clip0_100_10591">
<rect width="1366" height="768" fill="white"/>
</clipPath>
</defs>
</svg>
