<svg width="681" height="605" viewBox="0 0 681 605" fill="none" xmlns="http://www.w3.org/2000/svg">
<path d="M0 133.5L702.5 0L691.5 605L64 546L0 133.5Z" fill="black"/>
<mask id="mask0_100_18904" style="mask-type:alpha" maskUnits="userSpaceOnUse" x="0" y="0" width="703" height="605">
<path d="M0 133.5L702.5 0L691.5 605L64 546L0 133.5Z" fill="#393939"/>
</mask>
<g mask="url(#mask0_100_18904)">
<g opacity="0.15">
<path fill-rule="evenodd" clip-rule="evenodd" d="M10.2838 4.569L97.7785 92.0641L55.6402 134.202L55.6409 134.203L10.2845 179.559L7 182.844L10.2846 186.128L101.043 276.886L107.612 270.317L20.1381 182.844L62.2764 140.706L62.2757 140.705L107.632 95.3486L110.917 92.0641L107.632 88.7796L16.8529 -2L10.2838 4.569Z" fill="#A9A9A9"/>
<path fill-rule="evenodd" clip-rule="evenodd" d="M10.2838 187.454L97.7785 274.949L55.6402 317.088L55.6409 317.088L10.2845 362.445L7 365.729L10.2846 369.014L101.043 459.771L107.612 453.202L20.1381 365.729L62.2764 323.591L62.2757 323.59L107.632 278.234L110.917 274.949L107.632 271.665L16.8529 180.885L10.2838 187.454Z" fill="#A9A9A9"/>
<path fill-rule="evenodd" clip-rule="evenodd" d="M10.2838 370.34L97.7785 457.835L55.6402 499.973L55.6409 499.974L10.2845 545.33L7 548.614L10.2846 551.899L101.043 642.657L107.612 636.087L20.1381 548.614L62.2764 506.476L62.2757 506.475L107.632 461.119L110.917 457.835L107.632 454.55L16.8529 363.771L10.2838 370.34Z" fill="#A9A9A9"/>
<path fill-rule="evenodd" clip-rule="evenodd" d="M114.2 4.569L201.695 92.0641L159.556 134.202L159.557 134.203L114.201 179.559L110.916 182.844L114.201 186.128L204.959 276.886L211.528 270.317L124.054 182.844L166.192 140.706L166.192 140.705L211.548 95.3486L214.833 92.0641L211.548 88.7796L120.769 -2L114.2 4.569Z" fill="#A9A9A9"/>
<path fill-rule="evenodd" clip-rule="evenodd" d="M114.2 187.454L201.695 274.949L159.556 317.088L159.557 317.088L114.201 362.445L110.916 365.729L114.201 369.014L204.959 459.771L211.528 453.202L124.054 365.729L166.192 323.591L166.192 323.59L211.548 278.234L214.833 274.949L211.548 271.665L120.769 180.885L114.2 187.454Z" fill="#A9A9A9"/>
<path fill-rule="evenodd" clip-rule="evenodd" d="M114.2 370.34L201.695 457.835L159.556 499.973L159.557 499.974L114.201 545.33L110.916 548.614L114.201 551.899L204.959 642.657L211.528 636.087L124.054 548.614L166.192 506.476L166.192 506.475L211.548 461.119L214.833 457.835L211.548 454.55L120.769 363.771L114.2 370.34Z" fill="#A9A9A9"/>
<path fill-rule="evenodd" clip-rule="evenodd" d="M218.118 4.569L305.612 92.0641L263.474 134.202L263.475 134.203L218.119 179.559L214.834 182.844L218.119 186.128L308.877 276.886L315.446 270.317L227.972 182.844L270.11 140.706L270.11 140.705L315.466 95.3486L318.75 92.0641L315.466 88.7796L224.687 -2L218.118 4.569Z" fill="#A9A9A9"/>
<path fill-rule="evenodd" clip-rule="evenodd" d="M218.118 187.454L305.612 274.949L263.474 317.088L263.475 317.088L218.119 362.445L214.834 365.729L218.119 369.014L308.877 459.771L315.446 453.202L227.972 365.729L270.11 323.591L270.11 323.59L315.466 278.234L318.75 274.949L315.466 271.665L224.687 180.885L218.118 187.454Z" fill="#A9A9A9"/>
<path fill-rule="evenodd" clip-rule="evenodd" d="M218.118 370.34L305.612 457.835L263.474 499.973L263.475 499.974L218.119 545.33L214.834 548.614L218.119 551.899L308.877 642.657L315.446 636.087L227.972 548.614L270.11 506.476L270.11 506.475L315.466 461.119L318.75 457.835L315.466 454.55L224.687 363.771L218.118 370.34Z" fill="#A9A9A9"/>
<path fill-rule="evenodd" clip-rule="evenodd" d="M322.034 4.569L409.528 92.0641L367.39 134.202L367.391 134.203L322.035 179.559L318.75 182.844L322.035 186.128L412.793 276.886L419.362 270.317L331.888 182.844L374.026 140.706L374.026 140.705L419.382 95.3486L422.667 92.0641L419.382 88.7796L328.603 -2L322.034 4.569Z" fill="#A9A9A9"/>
<path fill-rule="evenodd" clip-rule="evenodd" d="M322.034 187.454L409.528 274.949L367.39 317.088L367.391 317.088L322.035 362.445L318.75 365.729L322.035 369.014L412.793 459.771L419.362 453.202L331.888 365.729L374.026 323.591L374.026 323.59L419.382 278.234L422.667 274.949L419.382 271.665L328.603 180.885L322.034 187.454Z" fill="#A9A9A9"/>
<path fill-rule="evenodd" clip-rule="evenodd" d="M322.034 370.34L409.528 457.835L367.39 499.973L367.391 499.974L322.035 545.33L318.75 548.614L322.035 551.899L412.793 642.657L419.362 636.087L331.888 548.614L374.026 506.476L374.026 506.475L419.382 461.119L422.667 457.835L419.382 454.55L328.603 363.771L322.034 370.34Z" fill="#A9A9A9"/>
<path fill-rule="evenodd" clip-rule="evenodd" d="M425.95 4.569L513.445 92.0641L471.306 134.202L471.307 134.203L425.951 179.559L422.666 182.844L425.951 186.128L516.709 276.886L523.278 270.317L435.804 182.844L477.942 140.706L477.942 140.705L523.298 95.3486L526.583 92.0641L523.298 88.7796L432.519 -2L425.95 4.569Z" fill="#A9A9A9"/>
<path fill-rule="evenodd" clip-rule="evenodd" d="M425.95 187.454L513.445 274.949L471.306 317.088L471.307 317.088L425.951 362.445L422.666 365.729L425.951 369.014L516.709 459.771L523.278 453.202L435.804 365.729L477.942 323.591L477.942 323.59L523.298 278.234L526.583 274.949L523.298 271.665L432.519 180.885L425.95 187.454Z" fill="#A9A9A9"/>
<path fill-rule="evenodd" clip-rule="evenodd" d="M425.95 370.34L513.445 457.835L471.306 499.973L471.307 499.974L425.951 545.33L422.666 548.614L425.951 551.899L516.709 642.657L523.278 636.087L435.804 548.614L477.942 506.476L477.942 506.475L523.298 461.119L526.583 457.835L523.298 454.55L432.519 363.771L425.95 370.34Z" fill="#A9A9A9"/>
<path fill-rule="evenodd" clip-rule="evenodd" d="M529.866 4.569L617.361 92.0641L575.222 134.202L575.223 134.203L529.867 179.559L526.582 182.844L529.867 186.128L620.625 276.886L627.194 270.317L539.72 182.844L581.858 140.706L581.858 140.705L627.214 95.3486L630.499 92.0641L627.214 88.7796L536.435 -2L529.866 4.569Z" fill="#A9A9A9"/>
<path fill-rule="evenodd" clip-rule="evenodd" d="M529.967 187.454L617.462 274.949L575.431 316.981L575.289 316.839L529.867 362.262L526.582 365.546L529.867 368.831L620.625 459.589L627.194 453.019L539.72 365.546L581.751 323.515L581.893 323.657L627.316 278.234L630.6 274.949L627.316 271.665L536.536 180.885L529.967 187.454Z" fill="#A9A9A9"/>
<path fill-rule="evenodd" clip-rule="evenodd" d="M529.866 370.157L617.361 457.652L575.222 499.79L575.223 499.791L529.867 545.147L526.582 548.432L529.867 551.716L620.625 642.474L627.194 635.905L539.72 548.432L581.858 506.293L581.858 506.293L627.214 460.937L630.499 457.652L627.214 454.368L536.435 363.588L529.866 370.157Z" fill="#A9A9A9"/>
<path fill-rule="evenodd" clip-rule="evenodd" d="M633.885 4.569L721.38 92.0641L679.242 134.202L679.242 134.203L633.886 179.559L630.602 182.844L633.886 186.128L724.645 276.886L731.214 270.317L643.74 182.844L685.878 140.706L685.877 140.705L731.234 95.3486L734.518 92.0641L731.234 88.7796L640.454 -2L633.885 4.569Z" fill="#A9A9A9"/>
<path fill-rule="evenodd" clip-rule="evenodd" d="M633.885 187.454L721.38 274.949L679.242 317.088L679.242 317.088L633.886 362.445L630.602 365.729L633.886 369.014L724.645 459.771L731.214 453.202L643.74 365.729L685.878 323.591L685.877 323.59L731.234 278.234L734.518 274.949L731.234 271.665L640.454 180.885L633.885 187.454Z" fill="#A9A9A9"/>
<path fill-rule="evenodd" clip-rule="evenodd" d="M633.885 370.34L721.38 457.835L679.242 499.973L679.242 499.974L633.886 545.33L630.602 548.614L633.886 551.899L724.645 642.657L731.214 636.087L643.74 548.614L685.878 506.476L685.877 506.475L731.234 461.119L734.518 457.835L731.234 454.55L640.454 363.771L633.885 370.34Z" fill="#A9A9A9"/>
</g>
</g>
</svg>
