<svg width="865" height="515" viewBox="0 0 865 515" fill="none" xmlns="http://www.w3.org/2000/svg">
<g clip-path="url(#clip0_3_19765)">
<path d="M257.926 281.146C329.101 307.927 373.568 249.528 386.904 216.981C271.679 65.3142 109.53 103.38 42.8584 141.371C77.8877 180.289 158.159 255.033 199.01 242.665C250.074 227.205 285.131 252.249 257.926 281.146Z" fill="url(#paint0_linear_3_19765)" stroke="black" stroke-width="4"/>
<path d="M398.102 226.733C379.6 211.168 294.234 175.65 100.785 158.103" stroke="black" stroke-width="4" stroke-linecap="round"/>
<path d="M492.428 348.969C534.802 308.69 663.056 260.842 837.082 391.69C699.613 473.665 627 561.384 492.428 348.969Z" fill="url(#paint1_linear_3_19765)" stroke="black" stroke-width="4"/>
<path d="M481.157 387.333C494.533 373.595 554.852 352.79 689.125 379.482" stroke="black" stroke-width="4" stroke-linecap="round"/>
<path d="M518.481 376.424C533.506 369.105 581.13 366.892 651.422 416.595" stroke="black" stroke-width="4" stroke-linecap="round"/>
<rect x="223.5" y="97.5" width="489" height="287" rx="5.5" fill="#2C2C2C"/>
<circle cx="647" cy="117" r="6" fill="#5CD576"/>
<circle cx="670" cy="117" r="6" fill="#FBE254"/>
<circle cx="693" cy="117" r="6" fill="#D85656"/>
<path d="M447 224H366" stroke="black" stroke-width="3"/>
<path d="M484 259L357 259" stroke="black" stroke-width="3"/>
<path d="M416 293L335 293" stroke="black" stroke-width="3"/>
<path d="M449 310L313 310" stroke="black" stroke-width="3"/>
<path d="M447 327L366 327" stroke="black" stroke-width="3"/>
<path d="M427 242L338 242L321.5 258.5L284 258.5" stroke="black" stroke-width="3"/>
<path d="M425 276L305 276L288.5 292.5L251 292.5" stroke="black" stroke-width="3"/>
<circle cx="360" cy="224" r="6" fill="black"/>
<circle cx="278" cy="259" r="6" fill="black"/>
<circle cx="351" cy="259" r="6" fill="black"/>
<circle cx="245" cy="293" r="6" fill="black"/>
<circle cx="329" cy="293" r="6" fill="black"/>
<circle cx="307" cy="310" r="6" fill="black"/>
<circle cx="360" cy="327" r="6" fill="black"/>
<path d="M486 224H567" stroke="black" stroke-width="3"/>
<path d="M449 259L576 259" stroke="black" stroke-width="3"/>
<path d="M517 293L598 293" stroke="black" stroke-width="3"/>
<path d="M484 310L620 310" stroke="black" stroke-width="3"/>
<path d="M486 327L567 327" stroke="black" stroke-width="3"/>
<path d="M506 242L595 242L611.5 258.5L649 258.5" stroke="black" stroke-width="3"/>
<path d="M508 276L628 276L644.5 292.5L682 292.5" stroke="black" stroke-width="3"/>
<circle r="6" transform="matrix(-1 0 0 1 573 224)" fill="black"/>
<circle r="6" transform="matrix(-1 0 0 1 655 259)" fill="black"/>
<circle r="6" transform="matrix(-1 0 0 1 582 259)" fill="black"/>
<circle r="6" transform="matrix(-1 0 0 1 688 293)" fill="black"/>
<circle r="6" transform="matrix(-1 0 0 1 604 293)" fill="black"/>
<circle r="6" transform="matrix(-1 0 0 1 626 310)" fill="black"/>
<circle r="6" transform="matrix(-1 0 0 1 573 327)" fill="black"/>
<path d="M448.695 96.5466L446.441 79.0835" stroke="white" stroke-width="3"/>
<rect x="436.754" y="95.7207" width="23.4773" height="11.7386" rx="5.86931" transform="rotate(-7.35457 436.754 95.7207)" fill="#D0A0FF"/>
<circle cx="446.141" cy="76.7549" r="5.29568" transform="rotate(-7.35457 446.141 76.7549)" fill="#D85656"/>
<g clip-path="url(#clip1_3_19765)">
<path d="M372.941 197.127C368.358 149.55 403.211 107.265 450.789 102.682L457.383 102.047C508.602 97.1128 554.123 134.634 559.057 185.854L559.814 193.712C560.213 197.853 559.818 202.031 558.651 206.024C555.275 217.567 547.04 227.068 536.093 232.048L511.529 243.223C486.139 254.773 457.453 256.85 430.665 249.076L410.669 243.273C401.472 240.604 393.099 235.652 386.33 228.877C378.939 221.479 374.349 211.742 373.346 201.332L372.941 197.127Z" fill="#D0A0FF" stroke="black" stroke-width="5"/>
<path d="M391.578 196.277C388.87 168.164 409.454 143.069 437.567 140.361L478.611 136.407C509.786 133.404 537.492 156.242 540.495 187.417L540.835 190.945C541.195 194.684 540.648 198.454 539.239 201.936C536.557 208.563 531.528 213.969 525.112 217.121L506.227 226.399C483.378 237.625 457.05 239.485 432.849 231.585L417.184 226.471C412.662 224.995 408.423 222.763 404.648 219.869C397.212 214.168 392.477 205.603 391.578 196.277Z" fill="#9559D0"/>
<path d="M385.046 281.817C381.897 268.625 393.545 256.641 406.822 259.413L431.629 264.592C460.313 270.581 490.139 267.707 517.152 256.353L543.024 245.479C554.949 240.467 568.204 248.927 568.68 261.854L574.011 406.756L418.444 421.742L385.046 281.817Z" fill="#D0A0FF" stroke="black" stroke-width="5"/>
<path d="M537.07 296.045L566.5 260.5L537.5 328.5L533.748 320.009C530.226 312.037 531.512 302.759 537.07 296.045Z" fill="#222222"/>
<path d="M409.004 376L416.004 289.5L400 350.5L409.004 376Z" fill="#222222"/>
<path d="M366.682 302.258C369.381 291.408 376.248 282.058 385.793 276.236L386.964 275.522C400.029 267.552 416.308 279.009 413.216 293.997L402.715 344.905L385.12 419.588C384.354 422.84 381.183 424.929 377.892 424.349C375.779 423.976 374 422.552 373.173 420.572L367.041 405.89C362.743 395.596 360.013 384.716 358.943 373.612L358.032 364.157C356.786 351.215 357.752 338.155 360.891 325.537L366.682 302.258Z" fill="#D0A0FF" stroke="black" stroke-width="5"/>
<path d="M539.805 309.248L562.259 271.714C565.268 266.685 568.841 262.015 572.909 257.796L583.944 246.353C591.069 238.965 599.768 233.279 609.394 229.72L611.755 228.847C615.427 227.489 619.541 228.138 622.617 230.56C625.709 232.995 627.305 236.869 626.823 240.776L626.4 244.204C623.376 268.732 612.834 291.724 596.222 310.022L585.557 321.769C578.119 329.963 567.902 335.103 556.889 336.191C542.29 337.635 532.273 321.837 539.805 309.248Z" fill="#D0A0FF" stroke="black" stroke-width="5"/>
<path d="M482.46 190.2L483.794 186.764C488.722 174.06 505.48 173.934 510.603 186.561" stroke="black" stroke-width="5" stroke-linecap="round"/>
<path d="M423.378 195.892L424.712 192.456C429.64 179.752 446.398 179.626 451.521 192.253" stroke="black" stroke-width="5" stroke-linecap="round"/>
<path d="M405.653 137.754C417.592 129.059 419.096 134.153 417.038 138.301C415.901 140.594 409.685 149.245 407.552 152.234C395.608 168.971 399.289 183.197 392.364 184.324C382.47 185.934 383.173 169.12 391.083 154.688C394.526 148.406 401.128 141.05 405.653 137.754Z" fill="white" stroke="black" stroke-width="5"/>
<rect x="425.133" y="122.079" width="9.01029" height="7.23228" rx="3.61614" transform="rotate(-13.2874 425.133 122.079)" fill="white" stroke="black" stroke-width="5"/>
</g>
<rect x="223.5" y="97.5" width="489" height="287" rx="5.5" stroke="black" stroke-width="5"/>
<path d="M267.505 476.564L268.85 336.236C268.874 333.73 266.614 331.819 264.146 332.26L244.08 335.849C235.681 337.351 227.411 339.503 219.344 342.284L194.646 350.801L193.96 356.411C189.158 395.692 188.234 435.351 191.203 474.813L192.312 489.557C192.484 491.845 194.54 493.519 196.815 493.224L225.891 489.455L260.655 484.405C264.559 483.838 267.467 480.509 267.505 476.564Z" fill="black"/>
<path d="M260.529 477.809L261.875 337.412C261.899 334.906 259.639 332.995 257.171 333.436L224.487 339.282L187.063 350.071L186.296 357.069C181.952 396.693 181.548 436.65 185.09 476.354L186.749 494.955C186.97 497.433 189.376 499.111 191.777 498.461L219.544 490.955L253.758 485.637C257.626 485.036 260.491 481.724 260.529 477.809Z" fill="#FBE254"/>
<path d="M192.629 373.268C202.129 366.101 232.829 352.268 279.629 354.268" stroke="black" stroke-width="5" stroke-linecap="round" stroke-linejoin="round"/>
<path d="M231.629 383.768C239.296 380.101 260.829 373.568 285.629 376.768" stroke="black" stroke-width="5" stroke-linecap="round" stroke-linejoin="round"/>
<path d="M193.629 397.768C197.629 395.434 208.029 390.368 217.629 388.768" stroke="black" stroke-width="5" stroke-linecap="round" stroke-linejoin="round"/>
<path d="M228.129 406.268C238.129 402.268 264.029 394.568 287.629 395.768" stroke="black" stroke-width="5" stroke-linecap="round" stroke-linejoin="round"/>
<path d="M200.444 428.976C206.216 427.057 221.212 423.283 235.02 423.542" stroke="black" stroke-width="5" stroke-linecap="round" stroke-linejoin="round"/>
<path d="M761.82 274.172L805.747 140.89C806.531 138.509 804.958 136.002 802.473 135.673L782.266 132.994C773.807 131.872 765.274 131.409 756.744 131.607L730.625 132.215L728.267 137.351C711.755 173.316 698.823 210.818 689.659 249.316L686.235 263.7C685.703 265.932 687.154 268.152 689.41 268.562L718.257 273.807L752.911 279.56C756.803 280.206 760.585 277.919 761.82 274.172Z" fill="black"/>
<path d="M754.791 273.238L798.74 139.89C799.524 137.51 797.951 135.002 795.466 134.673L762.552 130.309L723.618 129.215L720.761 135.649C704.581 172.079 692.054 210.024 683.362 248.926L679.29 267.152C678.748 269.58 680.529 271.909 683.015 272.02L711.75 273.307L745.961 278.638C749.83 279.241 753.566 276.956 754.791 273.238Z" fill="#FBE254"/>
<path d="M701.254 234.807C711.754 234.14 735.254 234.007 745.254 238.807" stroke="black" stroke-width="5" stroke-linecap="round" stroke-linejoin="round"/>
<path d="M710.254 247.807C718.087 248.474 735.854 251.307 744.254 257.307" stroke="black" stroke-width="5" stroke-linecap="round" stroke-linejoin="round"/>
<ellipse cx="748.254" cy="169.307" rx="29" ry="27" fill="white"/>
<path d="M745.996 170.5L750.496 145L763.5 148L774 159L745.996 170.5Z" fill="#5CD576"/>
<path d="M774.754 169.307C774.754 182.673 763.061 193.807 748.254 193.807C733.447 193.807 721.754 182.673 721.754 169.307C721.754 155.941 733.447 144.807 748.254 144.807C763.061 144.807 774.754 155.941 774.754 169.307Z" stroke="black" stroke-width="5"/>
<path d="M750.254 145.307L744.754 172.807L771.754 160.307" stroke="black" stroke-width="5" stroke-linejoin="round"/>
<path d="M253.327 157.964L321.945 43.8823C323.115 41.9366 322.433 39.408 320.443 38.3147L305.856 30.3011C292.283 22.8449 277.729 17.3365 262.62 13.9381L247.396 10.5136L208.297 66.1147L181.434 109.691C178.378 114.648 180.187 121.157 185.362 123.826L186.271 124.295C201.591 132.197 216.241 141.336 230.075 151.621L241.698 160.261C245.492 163.081 250.89 162.015 253.327 157.964Z" fill="black"/>
<path d="M243.622 153.036L314.545 40.0578C315.769 38.1093 315.1 35.533 313.084 34.4253L298.567 26.4503C284.994 18.9941 270.44 13.4857 255.331 10.0873L240.107 6.66279L201.675 61.5192L169.573 111.81C167.318 115.344 168.968 120.057 172.935 121.413C192.642 128.147 211.208 137.844 227.995 150.169L234.317 154.811C237.345 157.034 241.624 156.218 243.622 153.036Z" fill="#FBE254" stroke="black" stroke-width="5"/>
<path d="M271.921 64.0569C266.948 61.6138 255.296 57.883 248.467 62.5049C239.93 68.2822 251.352 81.0092 254.578 70.6691C257.804 60.329 244.988 50.6571 233.358 51.6463C221.727 52.6354 219.032 61.6346 224.989 66.9746C230.945 72.3147 241.085 50.5153 221.443 40.9654C201.801 31.4155 197.707 47.2186 198.901 49.6319" stroke="black" stroke-width="5" stroke-linecap="round"/>
<path d="M248.856 101.021C244.233 97.968 233.147 92.7913 225.788 96.5109C216.588 101.16 226.306 115.232 230.815 105.383C235.325 95.5353 223.838 84.3179 212.176 83.8258C200.514 83.3337 196.7 91.919 201.932 97.9705C207.165 104.022 219.984 83.6827 201.71 71.7217C198.039 69.3191 194.094 69.2279 187.644 70.4299" stroke="black" stroke-width="5" stroke-linecap="round"/>
</g>
<defs>
<linearGradient id="paint0_linear_3_19765" x1="186.118" y1="171.194" x2="258.539" y2="245.909" gradientUnits="userSpaceOnUse">
<stop stop-color="#5BD576"/>
<stop offset="1" stop-color="#57A943"/>
</linearGradient>
<linearGradient id="paint1_linear_3_19765" x1="670.5" y1="460.5" x2="510" y2="385" gradientUnits="userSpaceOnUse">
<stop stop-color="#5BD576"/>
<stop offset="1" stop-color="#57A943"/>
</linearGradient>
<clipPath id="clip0_3_19765">
<rect width="865" height="515" fill="white"/>
</clipPath>
<clipPath id="clip1_3_19765">
<rect width="284" height="284" fill="white" transform="translate(348 97)"/>
</clipPath>
</defs>
</svg>
