<svg width="17" height="17" viewBox="0 0 17 17" fill="none" xmlns="http://www.w3.org/2000/svg">
<path d="M5.91174 9.17142C4.46886 9.17142 3.30318 10.2006 3.32451 11.4621C3.33872 12.2716 3.84338 12.9745 4.58614 13.3668C4.33381 13.0247 4.18455 12.6199 4.17744 12.1838C4.15612 10.9224 5.3218 9.89313 6.76468 9.89313C7.04899 9.89313 7.32264 9.93392 7.57852 10.0061V7.4801C7.31198 7.44558 7.03833 7.42676 6.76468 7.42676C6.75046 7.42676 6.7398 7.42676 6.72558 7.42676V9.28438C6.4697 9.21221 6.19605 9.17142 5.91174 9.17142Z" fill="#F00044"/>
<path d="M12.1512 1.59668H12.1298H11.3906C11.6039 2.54118 12.2045 3.3633 13.0432 3.92185C12.4923 3.27858 12.1583 2.47529 12.1512 1.59668Z" fill="#F00044"/>
<path d="M16.5005 5.44052C16.2197 5.44052 15.9497 5.41542 15.6831 5.37149V7.18205C14.7164 7.18205 13.7782 7.01574 12.8969 6.68312C12.3282 6.46975 11.7987 6.19675 11.3118 5.86728L11.326 11.4496C11.3189 12.7047 10.7574 13.8814 9.74099 14.7694C8.91293 15.4911 7.86453 15.9524 6.72729 16.0999C6.46074 16.1344 6.18709 16.1532 5.91344 16.1532C4.69801 16.1532 3.53944 15.8049 2.59766 15.1617C2.70427 15.2746 2.818 15.3845 2.94238 15.4911C3.96591 16.3823 5.3235 16.8749 6.76993 16.8749C7.04358 16.8749 7.31723 16.8561 7.58378 16.8216C8.72102 16.6741 9.76942 16.2129 10.5975 15.4911C11.6139 14.6031 12.1754 13.4264 12.1825 12.1713L12.1292 6.58899C12.6125 6.91846 13.1421 7.1946 13.7142 7.40483C14.5992 7.73431 15.5374 7.90376 16.5005 7.90376" fill="#F00044"/>
<path d="M2.93088 8.81708C3.94374 7.92906 5.29067 7.43642 6.72644 7.427V6.75864C6.4599 6.72412 6.18625 6.70529 5.9126 6.70529C4.46261 6.70529 3.10147 7.19794 2.07795 8.09537C1.07219 8.97711 0.496462 10.1821 0.500016 11.4341C0.500016 12.6955 1.06509 13.8785 2.08505 14.7728C2.24853 14.914 2.41557 15.0458 2.59326 15.165C1.79008 14.3209 1.35295 13.2666 1.3494 12.1558C1.35295 10.9038 1.92513 9.69883 2.93088 8.81708Z" fill="#08FFF9"/>
<path d="M15.6819 5.37157V4.70007H15.6748C14.6868 4.70007 13.777 4.41138 13.0449 3.92188C13.6811 4.66241 14.6122 5.18958 15.6819 5.37157Z" fill="#08FFF9"/>
<path d="M6.62072 14.4055C6.95834 14.4212 7.28175 14.3804 7.58027 14.2957C8.61091 13.9976 9.35367 13.1504 9.35367 12.1525L9.35722 8.41845V1.59671H11.3901C11.3367 1.36137 11.3083 1.12289 11.3048 0.875H8.50429V7.6936L8.50073 11.4277C8.50073 12.4255 7.75797 13.2727 6.72734 13.5708C6.42881 13.6587 6.10541 13.6995 5.76779 13.6807C5.33776 13.6587 4.93617 13.5457 4.58789 13.3637C5.02502 13.9599 5.77134 14.3647 6.62072 14.4055Z" fill="#08FFF9"/>
<path d="M6.72703 16.0999C7.86427 15.9525 8.91267 15.4912 9.74073 14.7695C10.7571 13.8815 11.3187 12.7048 11.3258 11.4496L11.3116 5.86733C11.7949 6.19681 12.3244 6.47294 12.8966 6.68318C13.7815 7.01266 14.7197 7.1821 15.6828 7.1821V5.37155C14.6131 5.18955 13.682 4.66239 13.0459 3.92185C12.2071 3.3633 11.603 2.54118 11.3933 1.59668H9.35691V8.41529L9.35336 12.1494C9.35336 13.1472 8.61059 13.9944 7.57996 14.2925C7.28143 14.3804 6.95803 14.4212 6.62041 14.4024C5.76747 14.3616 5.02471 13.9568 4.58758 13.3637C3.84481 12.9746 3.34016 12.2686 3.32595 11.459C3.30462 10.1976 4.4703 9.16838 5.91318 9.16838C6.19749 9.16838 6.47114 9.20917 6.72703 9.28134V7.42372C5.29125 7.43313 3.94432 7.92578 2.93146 8.8138C1.92571 9.69554 1.34998 10.9005 1.35353 12.1494C1.35353 13.2602 1.79066 14.3145 2.5974 15.1586C3.54273 15.8018 4.69775 16.1502 5.91318 16.1502C6.18683 16.1533 6.46048 16.1345 6.72703 16.0999Z" fill="#010101"/>
</svg>
