<svg width="19" height="16" viewBox="0 0 19 16" fill="none" xmlns="http://www.w3.org/2000/svg">
<path fill-rule="evenodd" clip-rule="evenodd" d="M16.3796 2.74661C17.1424 2.27858 17.7277 1.53643 18.0034 0.652356C17.2892 1.08573 16.5 1.401 15.6569 1.57002C14.9849 0.834372 14.0246 0.375 12.9617 0.375C10.9237 0.375 9.27021 2.07056 9.27021 4.16157C9.27021 4.45842 9.3019 4.74661 9.36529 5.02397C6.29609 4.86579 3.57554 3.35983 1.75304 1.06622C1.43502 1.62744 1.2533 2.27858 1.2533 2.97197C1.2533 4.28508 1.90518 5.44434 2.8962 6.12365C2.29186 6.10523 1.72134 5.93296 1.22266 5.65127V5.69786C1.22266 7.53318 2.49577 9.06406 4.18621 9.41075C3.87665 9.49959 3.55018 9.54401 3.21315 9.54401C2.97544 9.54401 2.743 9.52126 2.51796 9.47684C2.98811 10.9806 4.35103 12.076 5.96751 12.1052C4.70391 13.1215 3.11067 13.7271 1.38114 13.7271C1.0832 13.7271 0.788431 13.7098 0.5 13.6751C2.13444 14.7477 4.07633 15.375 6.16086 15.375C12.9543 15.375 16.668 9.60577 16.668 4.60144C16.668 4.43676 16.6648 4.27207 16.6585 4.11064C17.3801 3.57652 18.0066 2.91021 18.5 2.15073C17.8386 2.45192 17.1265 2.65561 16.3796 2.74661Z" fill="white"/>
</svg>
