<svg width="21" height="20" viewBox="0 0 21 20" fill="none" xmlns="http://www.w3.org/2000/svg">
<path fill-rule="evenodd" clip-rule="evenodd" d="M15.0844 11.9851C14.8356 11.8612 13.6123 11.2622 13.3842 11.1795C13.1561 11.0968 12.9902 11.0555 12.8244 11.3034C12.6585 11.5513 12.1817 12.1091 12.0365 12.2744C11.8914 12.4396 11.7462 12.4603 11.4974 12.3363C11.2486 12.2124 10.4468 11.9509 9.49644 11.1072C8.75672 10.4506 8.25736 9.63972 8.11221 9.39176C7.9671 9.1439 8.09679 9.00989 8.22136 8.88639C8.33328 8.77543 8.47018 8.59713 8.59456 8.45258C8.719 8.30797 8.76044 8.20462 8.84338 8.03949C8.92632 7.87416 8.88487 7.72956 8.82266 7.60563C8.76044 7.4817 8.26281 6.26276 8.05548 5.76689C7.85351 5.28413 7.64838 5.34952 7.49563 5.34182C7.35067 5.33465 7.1846 5.33312 7.01877 5.33312C6.85289 5.33312 6.5833 5.39509 6.35526 5.64296C6.12716 5.89091 5.48438 6.49 5.48438 7.70884C5.48438 8.92773 6.37598 10.1052 6.50041 10.2705C6.6248 10.4358 8.25493 12.937 10.751 14.0096C11.3446 14.2648 11.8081 14.4172 12.1694 14.5312C12.7655 14.7198 13.308 14.6931 13.7366 14.6294C14.2147 14.5583 15.2088 14.0303 15.4161 13.4519C15.6235 12.8734 15.6235 12.3776 15.5613 12.2744C15.4991 12.1711 15.3332 12.1091 15.0844 11.9851ZM10.5426 18.1544H10.5393C9.05411 18.1538 7.59741 17.7568 6.32658 17.0062L6.02438 16.8277L2.89175 17.6455L3.72787 14.6058L3.5311 14.2942C2.70257 12.9827 2.265 11.467 2.26563 9.91049C2.26744 5.36881 5.98045 1.67384 10.5459 1.67384C12.7567 1.6746 14.8348 2.53257 16.3975 4.08957C17.9602 5.64651 18.8203 7.71615 18.8195 9.91709C18.8176 14.4592 15.1046 18.1544 10.5426 18.1544ZM17.5861 2.90642C15.706 1.03313 13.2057 0.00104544 10.5417 0C5.05291 0 0.585661 4.44555 0.583464 9.90978C0.582748 11.6565 1.04128 13.3614 1.91273 14.8645L0.5 20L5.77897 18.6218C7.23348 19.4114 8.87111 19.8275 10.5378 19.8281H10.5418H10.5419C16.0301 19.8281 20.4978 15.3821 20.5 9.91772C20.501 7.26966 19.4662 4.77966 17.5861 2.90642Z" fill="white"/>
</svg>
