<svg width="20" height="15" viewBox="0 0 20 15" fill="none" xmlns="http://www.w3.org/2000/svg">
<path fill-rule="evenodd" clip-rule="evenodd" d="M8.86652 10.3926C8.53357 10.6022 8.10019 10.363 8.10016 9.96955L8.09977 5.78393C8.09974 5.38979 8.53451 5.15057 8.86743 5.36156L12.181 7.46158C12.4914 7.65827 12.4907 8.11132 12.1797 8.30706L8.86652 10.3926ZM19.31 3.89495C19.31 3.89495 19.1242 2.52338 18.5547 1.91939C17.8322 1.1263 17.0223 1.12257 16.6512 1.07654C13.9924 0.875 10.0042 0.875 10.0042 0.875H9.99584C9.99584 0.875 6.00762 0.875 3.34881 1.07654C2.97712 1.12257 2.16784 1.1263 1.44466 1.91939C0.87525 2.52338 0.69 3.89495 0.69 3.89495C0.69 3.89495 0.5 5.506 0.5 7.11644V8.62672C0.5 10.2378 0.69 11.8482 0.69 11.8482C0.69 11.8482 0.87525 13.2198 1.44466 13.8238C2.16784 14.6169 3.11725 14.592 3.54 14.6747C5.06 14.8277 10 14.875 10 14.875C10 14.875 13.9924 14.8688 16.6512 14.6672C17.0223 14.6206 17.8322 14.6169 18.5547 13.8238C19.1242 13.2198 19.31 11.8482 19.31 11.8482C19.31 11.8482 19.5 10.2378 19.5 8.62672V7.11644C19.5 5.506 19.31 3.89495 19.31 3.89495Z" fill="white"/>
</svg>
